<?xml version="1.0" standalone="no"?>
<!DOCTYPE svg PUBLIC "-//W3C//DTD SVG 20010904//EN"
 "http://www.w3.org/TR/2001/REC-SVG-20010904/DTD/svg10.dtd">
<svg version="1.0" xmlns="http://www.w3.org/2000/svg"
 width="700.000000pt" height="700.000000pt" viewBox="0 0 700.000000 700.000000"
 preserveAspectRatio="xMidYMid meet">
<metadata>
Created by potrace 1.11, written by Peter Selinger 2001-2013
</metadata>
<g transform="translate(0.000000,700.000000) scale(0.100000,-0.100000)"
fill="#000000" stroke="none">
<path d="M3290 6994 c-131 -12 -327 -38 -420 -55 -1276 -243 -2311 -1178
-2690 -2432 -219 -723 -190 -1543 79 -2250 433 -1137 1424 -1970 2611 -2196
224 -42 375 -55 640 -56 333 0 544 25 847 100 1008 251 1856 946 2305 1892 33
70 80 181 104 247 25 67 51 137 59 158 22 57 92 333 114 448 43 229 55 375 55
650 0 275 -12 421 -55 650 -22 115 -92 391 -114 448 -8 21 -34 91 -59 158
-237 643 -711 1243 -1296 1640 -474 322 -994 514 -1585 585 -93 11 -515 20
-595 13z m1788 -2161 c102 -42 183 -123 225 -225 l22 -53 3 -1290 c2 -709 0
-1458 -3 -1664 l-7 -374 -362 362 -361 361 -1305 2 -1305 3 -67 33 c-111 54
-189 159 -208 279 -13 77 -13 2189 0 2266 26 159 151 292 299 317 25 4 714 7
1531 6 l1485 -1 53 -22z"/>
<path d="M3414 4550 c-259 -39 -454 -263 -454 -520 0 -145 55 -273 159 -377
254 -251 673 -180 832 142 60 122 73 229 44 354 -42 177 -194 337 -366 385
-72 19 -152 26 -215 16z"/>
<path d="M3390 3228 c-357 -24 -707 -152 -859 -313 -84 -89 -95 -122 -99 -312
l-4 -163 1057 0 1057 0 -4 168 c-4 156 -6 170 -30 217 -81 157 -309 285 -637
359 -181 41 -329 55 -481 44z"/>
</g>
</svg>
