<?xml version="1.0" standalone="no"?>
<!DOCTYPE svg PUBLIC "-//W3C//DTD SVG 20010904//EN"
 "http://www.w3.org/TR/2001/REC-SVG-20010904/DTD/svg10.dtd">
<svg version="1.0" xmlns="http://www.w3.org/2000/svg"
 width="962.000000pt" height="962.000000pt" viewBox="0 0 962.000000 962.000000"
 preserveAspectRatio="xMidYMid meet">
<metadata>
Created by potrace 1.11, written by Peter Selinger 2001-2013
</metadata>
<g transform="translate(0.000000,962.000000) scale(0.100000,-0.100000)"
fill="#000000" stroke="none">
<path d="M3925 9609 c-452 -36 -864 -131 -1265 -291 -1363 -547 -2352 -1794
-2570 -3241 -103 -684 -43 -1346 179 -1999 501 -1468 1811 -2555 3341 -2772
468 -66 865 -61 1345 19 447 75 964 267 1387 516 64 38 120 69 125 69 4 0 388
-382 853 -849 544 -547 866 -863 905 -889 228 -150 470 -193 725 -127 279 72
508 299 596 590 24 79 27 107 28 230 0 151 -11 212 -61 335 -61 151 -70 160
-964 1055 -467 468 -849 856 -849 864 0 8 26 55 58 105 272 423 475 952 571
1486 51 285 55 347 55 730 0 432 -15 576 -105 966 -109 478 -348 1012 -643
1434 -661 947 -1694 1576 -2856 1740 -256 36 -614 48 -855 29z m655 -1005
c862 -96 1657 -552 2182 -1249 359 -478 576 -1044 629 -1645 16 -185 6 -545
-20 -715 -125 -820 -523 -1523 -1151 -2032 -445 -361 -953 -584 -1547 -678
l-43 -7 0 755 0 755 94 207 c52 114 97 209 99 212 3 2 41 -21 85 -51 370 -259
858 -268 1233 -21 95 62 252 219 314 314 137 208 203 477 175 712 -32 278
-171 548 -368 715 -36 31 -80 66 -98 77 -30 20 -32 26 -39 97 -32 378 -169
682 -421 934 -373 373 -898 511 -1412 371 -248 -67 -471 -202 -659 -398 l-81
-85 -49 10 c-68 13 -285 12 -363 -1 -85 -15 -249 -66 -326 -101 -95 -43 -231
-137 -316 -218 -106 -102 -190 -216 -254 -347 -47 -97 -104 -262 -104 -301 0
-8 -27 -42 -61 -77 -272 -278 -353 -709 -204 -1081 90 -222 309 -446 529 -539
132 -55 247 -79 391 -80 179 -1 321 31 467 104 l58 29 16 -37 c8 -21 33 -81
54 -133 21 -52 84 -203 139 -334 l101 -239 0 -609 c0 -445 -3 -608 -11 -608
-37 0 -265 59 -392 101 -645 215 -1173 599 -1581 1149 -254 341 -464 813 -545
1225 -138 694 -61 1365 226 1993 347 756 1008 1366 1790 1651 236 86 402 128
663 166 247 36 527 39 800 9z"/>
</g>
</svg>
