<?xml version="1.0" standalone="no"?>
<!DOCTYPE svg PUBLIC "-//W3C//DTD SVG 20010904//EN"
 "http://www.w3.org/TR/2001/REC-SVG-20010904/DTD/svg10.dtd">
<svg version="1.0" xmlns="http://www.w3.org/2000/svg"
 width="250.000000pt" height="250.000000pt" viewBox="0 0 250.000000 250.000000"
 preserveAspectRatio="xMidYMid meet">
<metadata>
Created by potrace 1.11, written by Peter Selinger 2001-2013
</metadata>
<g transform="translate(0.000000,250.000000) scale(0.100000,-0.100000)"
fill="#000000" stroke="none">
<path d="M1067 2335 c-476 -90 -840 -469 -907 -945 -84 -593 272 -1131 840
-1271 137 -33 383 -33 520 0 428 105 752 449 835 884 19 102 19 309 0 420 -77
444 -398 788 -837 898 -111 28 -341 35 -451 14z m267 -790 c115 -30 193 -111
223 -230 13 -53 14 -75 4 -122 -28 -143 -111 -226 -255 -254 -46 -10 -68 -9
-121 4 -119 30 -200 108 -230 223 -19 72 -19 86 0 158 29 110 109 191 217 220
69 19 92 19 162 1z m-410 -437 c26 -75 120 -168 201 -198 186 -69 400 24 462
202 l18 48 352 0 c299 0 353 -2 353 -14 0 -47 -25 -181 -47 -249 -147 -467
-569 -766 -1048 -744 -322 15 -602 163 -795 419 -109 144 -188 345 -206 523
l-7 65 349 0 349 0 19 -52z"/>
<path d="M1226 1444 c-19 -18 -21 -55 -4 -72 28 -28 88 -2 88 38 0 10 -7 26
-16 34 -8 9 -24 16 -34 16 -10 0 -26 -7 -34 -16z"/>
<path d="M1204 1289 c3 -17 6 -85 6 -150 l0 -119 43 0 42 0 -3 150 -3 150 -46
0 -45 0 6 -31z"/>
</g>
</svg>
