<svg id="Earth" xmlns="http://www.w3.org/2000/svg" viewBox="0 0 275.37 275.38"><defs><style>.cls-1{fill:#6b93d6;stroke:#6b93d6;}.cls-1,.cls-2,.cls-4,.cls-5,.cls-6,.cls-7{stroke-miterlimit:10;}.cls-2{fill:#5784d0;stroke:#5784d0;}.cls-3{fill:none;}.cls-4{fill:#9fc164;stroke:#9fc164;}.cls-5{fill:#d8c596;stroke:#d8c596;}.cls-6{fill:#e5e5e5;stroke:#e5e5e5;}.cls-7{fill:#d1d7e0;stroke:#d1d7e0;}</style></defs><title>earth</title><g id="Group"><path class="cls-1" d="M2748,1319.07l-0.47,0a17.5,17.5,0,0,1-1.69-34.91,12.5,12.5,0,0,1,7.92-10.19H2739v0l-0.3,0a12.45,12.45,0,0,1-9-3.82H2701.4a17.49,17.49,0,0,1-5.64-34.05h-26a17.49,17.49,0,0,1-12.56-29.66,12.45,12.45,0,0,1,7.48-15.92h-14.09v0l-0.3,0a12.5,12.5,0,0,1-12.5-12.47c-2.24-.11-4.49-0.18-6.76-0.18a137.51,137.51,0,0,0-32.53,3.89,17.49,17.49,0,0,1-16.66,22.84h-32.18q-5.45,4-10.47,8.57a17.5,17.5,0,0,1,1.82,32.92,12.49,12.49,0,0,1,8.4,10.88,17.49,17.49,0,0,1,2.73,34h14a17.5,17.5,0,0,1,0,35h-35c-0.51,0-1,0-1.51-.08s-1,.08-1.51.08h-27.68a17.48,17.48,0,0,1,1.08,34.35,136.38,136.38,0,0,0,7.27,17h9.22a12.5,12.5,0,0,1,11.52-7.64l0.3,0v0h1.66a12.5,12.5,0,0,1,2.5-24.75l0.3,0v0h37.05a17.4,17.4,0,0,1,7.39-1.66l0.48,0v0h40.8a17.5,17.5,0,0,1,0,35h-0.16a12.49,12.49,0,0,1-11.87,16.41h-42.15s0,0.05,0,.08a12.48,12.48,0,0,1,9.58,17.35h1.84a17.49,17.49,0,0,1,8.79,32.62,137.63,137.63,0,0,0,68.31,5.6,17.46,17.46,0,0,1,14.42-21h-41.92a17.5,17.5,0,0,1,0-35h44.63a17.49,17.49,0,0,1,2.24-33.59H2661a17.5,17.5,0,0,1,0-35h66.43a17.5,17.5,0,0,1,3.75,34.59h0.25l0.5,0,0.5,0h28.15a136.81,136.81,0,0,0,7.58-41.22H2748v0Zm-36.14-14.85h-36a12.5,12.5,0,0,1-12.43,11.21h-15.82a12.52,12.52,0,0,1-1.83.15H2604.5v0a12.48,12.48,0,0,1-6-23.25,17.35,17.35,0,0,1-1.75-11.42,12.49,12.49,0,0,1-10.95-12.39c0-.42,0-0.84.06-1.25a17.49,17.49,0,0,1,2.83-34.75l0.48,0v0h40.8a17.49,17.49,0,0,1,15.42,9.22H2664a12.5,12.5,0,0,1,3.9,24.37h14.72a12.5,12.5,0,0,1,12.5,12.5c0,0.21,0,.42,0,0.62h16.82A12.5,12.5,0,0,1,2711.88,1304.21Z" transform="translate(-2493.31 -1177.39)"/><path class="cls-2" d="M2510.72,1381h6.3a12.43,12.43,0,0,1,.92-3.73h-9.22C2509.37,1378.53,2510,1379.77,2510.72,1381Z" transform="translate(-2493.31 -1177.39)"/><path class="cls-2" d="M2565.77,1394.63h-0.53l0.54,0.08S2565.77,1394.66,2565.77,1394.63Z" transform="translate(-2493.31 -1177.39)"/><path class="cls-2" d="M2577.2,1412.06h-1.84a12.59,12.59,0,0,1-11.45,7.49h-4.78a12.49,12.49,0,0,1-5.74,8.61,136.58,136.58,0,0,0,24.28,13.33c2.73,1.15,5.5,2.2,8.32,3.18A17.49,17.49,0,0,0,2577.2,1412.06Z" transform="translate(-2493.31 -1177.39)"/><path class="cls-2" d="M2619.95,1343.23h-40.8v0l-0.48,0a17.4,17.4,0,0,0-7.39,1.66h3.65a12.5,12.5,0,0,1,2.5,24.75h30.5a12.5,12.5,0,0,1,11.87,8.59h0.16A17.5,17.5,0,0,0,2619.95,1343.23Z" transform="translate(-2493.31 -1177.39)"/><path class="cls-2" d="M2629.95,1232.5h-40.8v0l-0.48,0a17.49,17.49,0,0,0-2.83,34.75,12.5,12.5,0,0,1,12.44-11.25l0.3,0v0h12a12.42,12.42,0,0,1,12.36-14.28l0.3,0v0h22.09A17.49,17.49,0,0,0,2629.95,1232.5Z" transform="translate(-2493.31 -1177.39)"/><path class="cls-2" d="M2598.28,1281a12.58,12.58,0,0,1-1.55-.11,17.35,17.35,0,0,0,1.75,11.42,12.43,12.43,0,0,1,6-1.73h16.13a12.53,12.53,0,0,1,1.83-.15l0.3,0v0h4.41A12.51,12.51,0,0,1,2620,1281h-21.44v0Z" transform="translate(-2493.31 -1177.39)"/><path class="cls-2" d="M2767.14,1298.14h-8.57v0l-0.3,0a12.45,12.45,0,0,1-12.41-14,17.5,17.5,0,0,0,1.69,34.91l0.47,0v0h20.1c0-1.33.07-2.67,0.07-4A138,138,0,0,0,2767.14,1298.14Z" transform="translate(-2493.31 -1177.39)"/><path class="cls-2" d="M2539.16,1213.19a137.74,137.74,0,0,0-13.43,14,12.46,12.46,0,0,1-6.51,18.25h17.71a12.46,12.46,0,0,1,4.05.68A17.5,17.5,0,0,0,2539.16,1213.19Z" transform="translate(-2493.31 -1177.39)"/><path class="cls-3" d="M2657.45,1401.28h-30a10,10,0,0,0,0,20h30A10,10,0,0,0,2657.45,1401.28Z" transform="translate(-2493.31 -1177.39)"/><path class="cls-4" d="M2669.74,1236.12h26a17.49,17.49,0,0,0,5.64,34.05h28.36l-0.23-.26a12.48,12.48,0,0,1,9.21-20.93l0.3,0v0h12.19a137.19,137.19,0,0,0-7.6-12.24l-0.44-.63-0.67-.95q-2.92-4.07-6.13-7.91h-34.89v0l-0.3,0a12.53,12.53,0,0,1-12.5-12.5h-19.45v0l-0.3,0a12.49,12.49,0,0,1-11.77-8.31A17.49,17.49,0,0,0,2669.74,1236.12Z" transform="translate(-2493.31 -1177.39)"/><path class="cls-4" d="M2566.07,1291h-14a17.49,17.49,0,0,0-2.73-34c0,0.31,0,.62,0,0.94a12.46,12.46,0,0,1-3.76,8.93,10,10,0,0,1-6.83,17h-14.2a10,10,0,0,1,6.72,6.34c0.08,0.23.15,0.47,0.22,0.72s0.07,0.26.1,0.39,0.06,0.29.08,0.43a10,10,0,0,1-9.84,11.74H2494.3c0,0.28,0,.55-0.06.83a10,10,0,1,1-.11,19.71c0,0.55.05,1.11,0.1,1.67,0,0.08,0,.15,0,0.23a136.5,136.5,0,0,0,7.21,34.35,17.48,17.48,0,0,0-1.08-34.35h27.68c0.51,0,1,0,1.51-.08s1,0.08,1.51.08h35A17.5,17.5,0,0,0,2566.07,1291Z" transform="translate(-2493.31 -1177.39)"/><path class="cls-4" d="M2732.4,1360.31l-0.5,0-0.5,0h-0.25a17.5,17.5,0,0,0-3.75-34.59H2661a17.5,17.5,0,0,0,0,35h12.7a17.49,17.49,0,0,0-2.24,33.59h-44.63a17.5,17.5,0,0,0,0,35h41.92a17.46,17.46,0,0,0-14.42,21,136.36,136.36,0,0,0,51.57-20.24l1.39-.91q3.76-2.52,7.35-5.29h-9.7a10,10,0,0,1-3-19.53h-7.12a10,10,0,0,1-9.95-9,10.13,10.13,0,0,1-.05-1,10,10,0,0,1,9.33-10c0.22,0,.44,0,0.67,0h4.7a10,10,0,0,1,4-19.15h20a10,10,0,0,1,3.76,19.26l0.2,0a10,10,0,0,1,1.59-.14h20l0.4,0a136.55,136.55,0,0,0,11.13-24H2732.4Zm-74.95,61h-30a10,10,0,0,1,0-20h30A10,10,0,0,1,2657.45,1421.28Z" transform="translate(-2493.31 -1177.39)"/><path class="cls-4" d="M2549.63,1204.62h32.18a17.49,17.49,0,0,0,16.66-22.84A136.59,136.59,0,0,0,2549.63,1204.62Z" transform="translate(-2493.31 -1177.39)"/><path class="cls-5" d="M2541.1,1269.39a12.45,12.45,0,0,1-4.17.73h-25c-0.82,0-1.74,0-2.63,0h-2.1a12.49,12.49,0,0,1-1.87,24.84h-10.1c-0.24,1.68-.47,3.36-0.65,5.06q-0.17,1.59-.3,3.19h27.61a10,10,0,0,0,9.84-11.74c0-.14-0.05-0.29-0.08-0.43s-0.07-.26-0.1-0.39-0.14-.48-0.22-0.72a10,10,0,0,0-6.72-6.34h14.2a10,10,0,0,0,6.83-17A12.49,12.49,0,0,1,2541.1,1269.39Z" transform="translate(-2493.31 -1177.39)"/><path class="cls-5" d="M2657.45,1401h-30a10,10,0,0,0,0,20h30A10,10,0,0,0,2657.45,1401Z" transform="translate(-2493.31 -1177.39)"/><path class="cls-5" d="M2749,1384h-20a10,10,0,0,0-1.59.14l-0.2,0a10,10,0,0,0-3.76-19.26h-20a10,10,0,0,0-4,19.15h-4.7c-0.23,0-.45,0-0.67,0a10,10,0,0,0-9.33,10,10.13,10.13,0,0,0,.05,1,10,10,0,0,0,9.95,9h7.12a10,10,0,0,0,3,19.53h9.7q1.44-1.11,2.84-2.24l0.59-.5A138.27,138.27,0,0,0,2732.5,1407q1.37-1.5,2.69-3l0.41-.47q2.74-3.22,5.27-6.61c0.48-.64.94-1.28,1.41-1.92l0.2-.27c2.48-3.45,4.78-7,6.94-10.71Z" transform="translate(-2493.31 -1177.39)"/><path class="cls-5" d="M2495.81,1303.9a10,10,0,0,0-1.57.14c-0.28,3.54-.43,7.11-0.43,10.73,0,3,.12,6,0.31,9A10,10,0,1,0,2495.81,1303.9Z" transform="translate(-2493.31 -1177.39)"/><path class="cls-6" d="M2767.14,1298.14a136.94,136.94,0,0,0-2.47-14.05q-1.19-5.13-2.75-10.11l-0.27-.84c-0.32-1-.64-2-1-3a136.34,136.34,0,0,0-6.82-16.23c-0.83-1.67-1.71-3.32-2.61-5H2739v0l-0.3,0a12.48,12.48,0,0,0-9.21,20.93l0.23,0.26a12.45,12.45,0,0,0,9,3.82l0.3,0v0h14.74a12.5,12.5,0,0,0-7.92,10.19,12.45,12.45,0,0,0,12.41,14l0.3,0v0h8.57Z" transform="translate(-2493.31 -1177.39)"/><path class="cls-6" d="M2682.6,1266.09h-14.72a12.5,12.5,0,0,0-3.9-24.37h-40.7v0l-0.3,0a12.42,12.42,0,0,0-12.36,14.28h28.66a12.54,12.54,0,0,1,12.26,10.09c0,0.16,0,.31.07,0.47v0l0,0.13a12.41,12.41,0,0,1-12.36,14.28H2620a12.51,12.51,0,0,0,7.16,9.42h-4.41v0l-0.3,0a12.53,12.53,0,0,0-1.83.15H2604.5a12.49,12.49,0,0,0,0,25v0h41.31a12.52,12.52,0,0,0,1.83-.15h15.82a12.5,12.5,0,0,0,12.43-11.21h-4.71v0l-0.3,0a12.53,12.53,0,0,1-12.5-12.5c0-.05,0-0.1,0-0.15s0-.31,0-0.47,0-.45,0-0.66a12.5,12.5,0,0,1,12.43-11.21l0.3,0v0h23.88c0-.21,0-0.41,0-0.62A12.5,12.5,0,0,0,2682.6,1266.09Z" transform="translate(-2493.31 -1177.39)"/><path class="cls-6" d="M2707.5,1201.18a137,137,0,0,0-18.94-10.65l-1.68-.77a136.45,136.45,0,0,0-49.11-11.69,12.5,12.5,0,0,0,12.5,12.47l0.3,0v0h14.09a12.5,12.5,0,0,0,4.29,24.23l0.3,0v0h19.45a12.5,12.5,0,0,1,12.5-12.5l0.3,0v0h7.57l-1.23-.86Z" transform="translate(-2493.31 -1177.39)"/><path class="cls-6" d="M2607.92,1369.63h-30.5a12.5,12.5,0,0,0-2.5-24.75h-40.7v0l-0.3,0a12.5,12.5,0,0,0-2.5,24.75h-1.66v0l-0.3,0A12.46,12.46,0,0,0,2517,1381h15.89a12.51,12.51,0,0,1,12.47,11.83c0,0.22,0,.45,0,0.67s0,0.71-.05,1.06v0.07a12.5,12.5,0,0,1-7.68,10.43h9.13a12.47,12.47,0,0,1,9.93,4.93l0,0.07a12.25,12.25,0,0,1,2.35,9.51h4.78a12.49,12.49,0,0,0,1.87-24.85l-0.54-.08h42.68A12.5,12.5,0,0,0,2607.92,1369.63Z" transform="translate(-2493.31 -1177.39)"/><path class="cls-6" d="M2507.22,1270.42h2.1c0.89,0,1.81,0,2.63,0h25a12.51,12.51,0,0,0,12.5-12.5c0-.32,0-0.63,0-0.94a12.52,12.52,0,0,0-12.45-11.56h-17.71a12.46,12.46,0,0,0,6.51-18.25,137.65,137.65,0,0,0-12.88,18.25l-0.43.73c-0.26.44-.53,0.87-0.78,1.32-1.72,3-3.35,6.13-4.84,9.31l-0.41.87q-1.43,3.09-2.7,6.26c-0.76,1.89-1.58,4.15-2.27,6.12l-0.07.2,0,0-0.05.16h0l-0.21.61c-0.54,1.59-1.06,3.25-1.56,4.93-0.78,2.63-1.51,5.31-2.11,7.86l-0.07.27c0,0.2-.09.41-0.13,0.61q-0.7,3.1-1.26,6.25h0c0,0.27-.09.54-0.13,0.81-0.09.55-.17,1.1-0.26,1.65s-0.17,1.06-.25,1.59l0,0.25h10.1A12.49,12.49,0,0,0,2507.22,1270.42Z" transform="translate(-2493.31 -1177.39)"/><path class="cls-7" d="M2651.78,1268.5a12.56,12.56,0,0,0-.14-1.78l0-.13v0c0-.16,0-0.32-0.07-0.47a12.54,12.54,0,0,0-12.26-10.09h-40.7v0l-0.3,0a12.5,12.5,0,0,0-12.44,11.25c0,0.41-.06.83-0.06,1.25a12.58,12.58,0,0,0,12.5,12.5l0.3,0v0h40.7A12.5,12.5,0,0,0,2651.78,1268.5Z" transform="translate(-2493.31 -1177.39)"/><path class="cls-7" d="M2701.19,1227.26l0.3,0v0h34.89a138.32,138.32,0,0,0-13.27-13.84c-0.85-.77-1.71-1.54-2.58-2.29l-1-.85q-5-4.25-10.46-8h-7.57v0l-0.3,0A12.5,12.5,0,0,0,2701.19,1227.26Z" transform="translate(-2493.31 -1177.39)"/><path class="cls-7" d="M2556.78,1410.05l0-.07a12.47,12.47,0,0,0-9.93-4.93h-9.13a12.5,12.5,0,0,0,7.68-10.43v-0.07c0-.35.05-0.7,0.05-1.06s0-.45,0-0.67a12.51,12.51,0,0,0-12.47-11.83h-22.19a138.61,138.61,0,0,0,8.51,13.56l0.33,0.47c2.49,3.47,5.16,6.81,8,10l0.83,0.94c1.83,2.07,3.71,4.11,5.66,6.06l0.09,0.1c-0.26,0-.5.08-0.75,0.12h0.87q3.81,3.8,7.92,7.28a138.12,138.12,0,0,0,11.26,8.61A12.48,12.48,0,0,0,2556.78,1410.05Z" transform="translate(-2493.31 -1177.39)"/><path class="cls-7" d="M2711.88,1279.21h-57.32v0l-0.3,0a12.5,12.5,0,0,0-12.43,11.21c0,0.22,0,.44,0,0.66s0,0.31,0,.47,0,0.1,0,.15a12.53,12.53,0,0,0,12.5,12.5l0.3,0v0h57.32A12.5,12.5,0,0,0,2711.88,1279.21Z" transform="translate(-2493.31 -1177.39)"/></g></svg>