<svg id="Jupiter" xmlns="http://www.w3.org/2000/svg" viewBox="0 0 452.85 452.85"><defs><style>.cls-1{fill:#d8ca9d;stroke:#d8ca9d;}.cls-1,.cls-2,.cls-3,.cls-4{stroke-miterlimit:10;}.cls-1,.cls-2,.cls-3{stroke-width:2px;}.cls-2{fill:#e3dccb;stroke:#e3dccb;}.cls-3{fill:#d4a661;stroke:#d4a661;}.cls-4{fill:#d07d40;stroke:#d07d40;}</style></defs><title>jupiter</title><path class="cls-1" d="M1371.91,698.55h0Z" transform="translate(-1146.9 -622.22)"/><path class="cls-1" d="M1438.13,998.64a24.88,24.88,0,0,1,4.39-14.15h-12.19a24.8,24.8,0,0,1-6.81-.18h-38.92a24.65,24.65,0,0,1-5.52,0h-1.15a25,25,0,0,1-6.45,49.16h-40.69a24.65,24.65,0,0,1-5.52,0h-17.63a25,25,0,0,1-26.93-18.42,24.93,24.93,0,0,1-18.86,8.6h-30.61a225.39,225.39,0,0,0,284.17,0h-52.28A25,25,0,0,1,1438.13,998.64Z" transform="translate(-1146.9 -622.22)"/><path class="cls-1" d="M1272.81,698.64a25,25,0,0,1-25,25h76.95a24.89,24.89,0,0,1,15,5,25,25,0,0,1,24.52-29.91v-0.16h-33.46a25.25,25.25,0,0,1-2.76.16,25,25,0,0,1,0-50v-0.16h31.22a25,25,0,0,1-19-22.93,224.44,224.44,0,0,0-109,48h16.57A25,25,0,0,1,1272.81,698.64Z" transform="translate(-1146.9 -622.22)"/><path class="cls-1" d="M1544.08,923.64a25,25,0,0,1,0-50h-9a25,25,0,0,1,0-50h33.74a25,25,0,0,1,0-50h-43.51a25,25,0,0,1,0-50h-53.23a25,25,0,0,1,0-50h43.3a225.57,225.57,0,0,0-49.5-30.57,24.89,24.89,0,0,1-16.32,6.07h-26.05a25,25,0,0,1-5.34,49.42h-10.5a25,25,0,0,1,0,50H1367a25.25,25.25,0,0,1-2.76.16,24.89,24.89,0,0,1-15-5,25,25,0,0,1-24.51,29.91H1215a25,25,0,0,1,0,50h32.76a25,25,0,0,1,0,50h62a25,25,0,0,1,0,50h-41.12a25,25,0,0,1-24.87,22.43H1228a25.29,25.29,0,0,1,.13,2.57,25,25,0,0,1-25,25h58.77A25,25,0,0,1,1286,992.22a24.93,24.93,0,0,1,18.86-8.6v-0.16h39.73a25,25,0,0,1,6.11-49,25,25,0,0,1,24-31.83h1.5A25,25,0,0,1,1400,885.49v-0.16h43.45a25,25,0,0,1,23.79,17.32h1.45A25,25,0,0,1,1489,942.17a25,25,0,0,1,2.58,31.47h65.44a25.18,25.18,0,0,1,3.68.27,224.6,224.6,0,0,0,25.2-50.27h-41.88Zm-88.78-75H1326.35a25,25,0,0,1,0-50H1455.3A25,25,0,0,1,1455.3,848.64Z" transform="translate(-1146.9 -622.22)"/><path class="cls-2" d="M1309.79,873.64h-62a25,25,0,0,0,0-50H1215a25,25,0,0,0,0-50h109.7a25,25,0,0,0,24.51-29.91,25,25,0,0,1-9.53-15.1,24.89,24.89,0,0,0-15-5h-76.95a25,25,0,0,0,0-50h-16.57a226.86,226.86,0,0,0-26.78,25.7,25,25,0,0,1,18.81,24.23s0,0.05,0,.08q0,0.59,0,1.17a25,25,0,0,1-25,23.75h-27a222.72,222.72,0,0,0-17.8,50h16.12a25,25,0,0,1,25,25s0,0.05,0,.08A25,25,0,0,1,1171,848.53,25,25,0,0,1,1190.85,873c0,0.22,0,.43,0,0.65a25,25,0,0,1-15.36,22.43H1191a24.35,24.35,0,0,0,9.37.15v-0.16h43.45a25,25,0,0,1,25,25,25.29,25.29,0,0,1-.13,2.57h41.12A25,25,0,0,0,1309.79,873.64Z" transform="translate(-1146.9 -622.22)"/><path class="cls-2" d="M1261.85,973.64h-58.77a25,25,0,0,0,25-25,25.29,25.29,0,0,0-.13-2.57h-24.83a45.17,45.17,0,0,0-12.26,0H1170a225.08,225.08,0,0,0,61.21,77.57h30.61a24.93,24.93,0,0,0,18.86-8.6,25,25,0,0,1,5.31-22.83A25,25,0,0,0,1261.85,973.64Z" transform="translate(-1146.9 -622.22)"/><path class="cls-2" d="M1449.9,934.49H1471a24.92,24.92,0,0,1,18,7.68,25,25,0,0,0-20.35-39.51h-1.45A25,25,0,0,1,1449.9,934.49Z" transform="translate(-1146.9 -622.22)"/><path class="cls-2" d="M1375,910.49a25,25,0,0,1,1.26-7.83h-1.5a25,25,0,0,0-24,31.83l0.89,0v-0.16h40.81A25,25,0,0,1,1375,910.49Z" transform="translate(-1146.9 -622.22)"/><path class="cls-2" d="M1575.63,898.72a25,25,0,0,1-25-25s0-.05,0-0.08a25,25,0,0,1,25-24.92v-0.16h14.57a25,25,0,0,1-19.6-24.41c0-.17,0-0.34,0-0.51a25,25,0,0,1,22.68-24.38,222.2,222.2,0,0,0-18-50.7H1558.5a25.25,25.25,0,0,1-2.76.16,25,25,0,0,1-25-25s0-.05,0-0.08a25,25,0,0,1,13.4-22.07,226.83,226.83,0,0,0-28.73-27.93h-43.3a25,25,0,0,0,0,50h53.23a25,25,0,0,0,0,50h43.51a25,25,0,0,0,0,50H1535.1a25,25,0,0,0,0,50h9a25,25,0,0,0,0,50H1586a223.7,223.7,0,0,0,7.22-25.08H1578.4A25.25,25.25,0,0,1,1575.63,898.72Z" transform="translate(-1146.9 -622.22)"/><path class="cls-2" d="M1491.63,973.64A25,25,0,0,1,1471,984.49h-28.49a25,25,0,0,0,20.61,39.15h52.28a226.66,226.66,0,0,0,45.34-49.73,25.18,25.18,0,0,0-3.68-.27h-65.44Z" transform="translate(-1146.9 -622.22)"/><path class="cls-2" d="M1480.3,823.64a25,25,0,0,0-25-25h13.54a25,25,0,0,0,0-50H1409.9a25,25,0,0,0,0,50h-83.54a25,25,0,0,0,0,50H1455.3A25,25,0,0,0,1480.3,823.64Z" transform="translate(-1146.9 -622.22)"/><path class="cls-3" d="M1205.84,747.39a25,25,0,0,0,17.39-22.58q0-.58,0-1.17s0-.05,0-0.08a25,25,0,0,0-18.81-24.23,224.46,224.46,0,0,0-33.15,49.23h27A25,25,0,0,0,1205.84,747.39Z" transform="translate(-1146.9 -622.22)"/><path class="cls-3" d="M1243.81,896.07h-43.45v0.16a24.35,24.35,0,0,1-9.37-.15h-15.51a25,25,0,0,0,15.36-22.43c0-.22,0-0.43,0-0.65A25,25,0,0,0,1171,848.53a25,25,0,0,0,23.63-24.88s0-.05,0-0.08a25,25,0,0,0-25-25H1153.5a224.73,224.73,0,0,0-4.22,25.08l0,0.44a228.06,228.06,0,0,0-1.33,23.92c0,0.19,0,.38,0,0.57,0,0,0,.05,0,0.08a227.86,227.86,0,0,0,1.34,24.56c0,0.28.07,0.57,0.1,0.85,0.84,7.46,2.06,14.8,3.6,22,0.14,0.64.27,1.28,0.41,1.92A220.63,220.63,0,0,0,1170,946.07h20.82a24.95,24.95,0,0,1,9.5.16,25.25,25.25,0,0,0,2.76-.16h40.69a25,25,0,0,0,24.87-22.43,25.29,25.29,0,0,0,.13-2.57A25,25,0,0,0,1243.81,896.07Z" transform="translate(-1146.9 -622.22)"/><path class="cls-3" d="M1471,934.49H1449.9a25,25,0,0,0-6.45-49.16H1400v0.16a25,25,0,0,0-7.59,48.82H1351.6v0.16l-0.89,0a25,25,0,0,0-6.11,49h-39.73v0.16a25,25,0,1,0,0,50,25.25,25.25,0,0,0,2.76-.16h17.63a24.65,24.65,0,0,0,5.52,0h40.69a25,25,0,0,0,6.45-49.16h1.15a24.65,24.65,0,0,0,5.52,0h38.92a24.8,24.8,0,0,0,6.81.18H1471A25,25,0,0,0,1471,934.49Z" transform="translate(-1146.9 -622.22)"/><path class="cls-3" d="M1558.5,748.56h16.84a224.13,224.13,0,0,0-31.2-47,25,25,0,0,0-13.4,22.07s0,0.05,0,.08a25,25,0,0,0,25,25A25.25,25.25,0,0,0,1558.5,748.56Z" transform="translate(-1146.9 -622.22)"/><path class="cls-3" d="M1328,698.72a25.25,25.25,0,0,0,2.76-.16h33.46v0.16a25,25,0,1,0,2.76,49.84h40.69a25,25,0,0,0,0-50h10.5a25,25,0,0,0,5.34-49.42h26.05a24.89,24.89,0,0,0,16.32-6.07,224,224,0,0,0-84.75-19.71c-2.6-.09-5.21-0.15-7.84-0.15a227.1,227.1,0,0,0-33,2.42,25,25,0,0,0,19,22.93H1328v0.16A25,25,0,0,0,1328,698.72Zm43.45-.16h0Z" transform="translate(-1146.9 -622.22)"/><path class="cls-3" d="M1598.75,848.56a227.83,227.83,0,0,0-1.39-24.92,224.68,224.68,0,0,0-4.07-24.38,25,25,0,0,0-22.68,24.38c0,0.17,0,.34,0,0.51a25,25,0,0,0,19.6,24.41h-14.57v0.16a25,25,0,0,0-25,24.92s0,0.05,0,.08a25,25,0,0,0,27.76,24.84h14.78a224.69,224.69,0,0,0,4.19-24.92,227.89,227.89,0,0,0,1.38-24.64c0-.12,0-0.24,0-0.36S1598.75,848.59,1598.75,848.56Z" transform="translate(-1146.9 -622.22)"/><path id="The_great_red_spot" data-name="The great red spot" class="cls-4" d="M1394.24,827h-41.83a27,27,0,0,0,0,54.1h41.83A27,27,0,0,0,1394.24,827Z" transform="translate(-1146.9 -622.22)"/></svg>