<svg id="Mars" xmlns="http://www.w3.org/2000/svg" viewBox="0 0 194.31 194.31"><defs><style>.cls-1{fill:#c1440e;stroke:#c1440e;}.cls-1,.cls-2,.cls-3,.cls-4{stroke-miterlimit:10;stroke-width:2px;}.cls-2{fill:#e77d11;stroke:#e77d11;}.cls-3{fill:#fda600;stroke:#fda600;}.cls-4{fill:#872f09;stroke:#872f09;}</style></defs><title>mars</title><path class="cls-1" d="M2982.91,1904.36c0.26-.06.51-0.13,0.78-0.17V1904h-0.94Z" transform="translate(-2974.16 -1769.33)"/><path class="cls-1" d="M3000.67,1904h28.39a12.45,12.45,0,0,1,4.14.72c0-.24,0-0.48,0-0.72a12.5,12.5,0,0,1,12.5-12.5h6.57a12.49,12.49,0,0,1,10.32-12.3V1879h14.57a12.49,12.49,0,0,1,12.45-11.5h20.92a3.11,3.11,0,1,0,5.74-1,12.49,12.49,0,0,1,10.32-12.3V1854h23.88v-0.2a68.73,68.73,0,0,1-9.5-24.34c0-.15,0-0.31,0-0.46h-7.65v-0.2a12.48,12.48,0,0,1-3-23.65,12.43,12.43,0,0,1-5.16-1.15h-14a12.49,12.49,0,0,1-8.14,11.5h7.45a12.5,12.5,0,1,1,0,25h-20.92a12.49,12.49,0,0,1-4.35-24.2h-1.85a12.53,12.53,0,0,1-2.2.2h-20.92a12.5,12.5,0,0,1-12.5-12.5c0-.15,0-0.3,0-0.46a9.67,9.67,0,0,0-14.65.46h-17.57a12.5,12.5,0,0,1,0,25h37.22a12.5,12.5,0,1,1,0,25H3020s0,0.05,0,.08a12.5,12.5,0,0,1-1.36,24.92h-18A12.5,12.5,0,0,1,3000.67,1904Z" transform="translate(-2974.16 -1769.33)"/><path class="cls-1" d="M3062.77,1778.78h1.45q-0.48-.3-0.93-0.63a12.37,12.37,0,0,1-2.25.63h1.72Z" transform="translate(-2974.16 -1769.33)"/><path class="cls-1" d="M3048.07,1779h-15A10,10,0,0,0,3048.07,1779Z" transform="translate(-2974.16 -1769.33)"/><path class="cls-1" d="M3152.61,1891.49a12.5,12.5,0,0,1-12.5-12.5h-13.56v-0.2a2.08,2.08,0,1,0-3.56,1.2,12.4,12.4,0,0,0-2.56,11.5,12.38,12.38,0,0,0-5.88,12.88,12.5,12.5,0,0,1-12.5,12.5h-17.89a12.49,12.49,0,0,1-3,24.62h-20.92a12.5,12.5,0,1,1,0-25h-14.58a12.45,12.45,0,0,1-4.14-.72c0,0.24,0,.48,0,0.72a12.5,12.5,0,0,1-12.5,12.5h-13.31a12.49,12.49,0,0,1,8.69,21.47,95.71,95.71,0,0,0,46.87,12.19h0.62a12.51,12.51,0,0,1,9.7-8.45V1954h21.47v-0.2a12.49,12.49,0,0,1,0-24.6V1929H3106a12.5,12.5,0,0,1,12.5-12.5h8.35a12.49,12.49,0,0,1,10.32-12.3V1904h22.68a95.34,95.34,0,0,0,4.3-12.5h-11.58Z" transform="translate(-2974.16 -1769.33)"/><path class="cls-2" d="M2975.16,1866.49h1.92a12.52,12.52,0,0,1-1.92-.16C2975.16,1866.38,2975.16,1866.43,2975.16,1866.49Z" transform="translate(-2974.16 -1769.33)"/><path class="cls-2" d="M2978.46,1841.47v0h0.37Z" transform="translate(-2974.16 -1769.33)"/><path class="cls-2" d="M3033.2,1904.71a12.45,12.45,0,0,0-4.14-.72h-28.39a12.5,12.5,0,0,0,0-25h18a12.5,12.5,0,0,0,1.36-24.92,12.5,12.5,0,0,1-12.5,12.42h-25.46a12.5,12.5,0,0,1,0,25h-3.62a95.34,95.34,0,0,0,4.3,12.5h0.94v0.2c-0.26,0-.52.11-0.78,0.17a95.79,95.79,0,0,0,6.28,12.12h10.55a12.5,12.5,0,0,1,8,22.11,96.43,96.43,0,0,0,16.71,11.86,12.49,12.49,0,0,0-8.69-21.47h13.31a12.5,12.5,0,0,0,12.5-12.5c0-.24,0-0.48,0-0.72A12.49,12.49,0,0,1,3033.2,1904.71Z" transform="translate(-2974.16 -1769.33)"/><path class="cls-2" d="M3012.24,1829a12.55,12.55,0,0,1-12.5,12.5h7.8A12.51,12.51,0,0,1,3020,1854h32.73a12.5,12.5,0,1,0,0-25h-37.22a12.5,12.5,0,0,0,0-25h17.57a12.45,12.45,0,0,0,8.69-3.53,12.47,12.47,0,0,1-.23-18.15,12.44,12.44,0,0,0-8.46-3.32h15a12.53,12.53,0,0,1,2.2-.2H3061a12.37,12.37,0,0,0,2.25-.63,12.49,12.49,0,0,1-4.65-7,95.47,95.47,0,0,0-27.24,7.81,96.4,96.4,0,0,0-42.22,37.5h10.55A12.5,12.5,0,0,1,3012.24,1829Z" transform="translate(-2974.16 -1769.33)"/><path class="cls-2" d="M3085.39,1891.86h0.29a12.5,12.5,0,0,1-8.61-11.88c0-.34,0-0.67.05-1h-14.57v0.2a12.49,12.49,0,0,0-10.32,12.3h30.16A12.49,12.49,0,0,1,3085.39,1891.86Z" transform="translate(-2974.16 -1769.33)"/><path class="cls-2" d="M3110.48,1892.49h-4.55a12.5,12.5,0,0,1,8.41,9.71,12.43,12.43,0,0,0,5.61-14.06A12.46,12.46,0,0,1,3110.48,1892.49Z" transform="translate(-2974.16 -1769.33)"/><path class="cls-2" d="M3118.53,1941.49A12.5,12.5,0,0,1,3106,1929h-2.92v0.2a12.49,12.49,0,0,0,0,24.6v0.2h-21.47v0.2a12.51,12.51,0,0,0-9.7,8.45,95.7,95.7,0,0,0,59.58-21.17l-0.48,0h-12.5Z" transform="translate(-2974.16 -1769.33)"/><path class="cls-2" d="M3142.11,1834.73a12.47,12.47,0,0,0,8.32,19.06v0.2h-23.88v0.2a12.45,12.45,0,0,0-10.05,14.84,12.52,12.52,0,0,1,6.23,8.4,12.43,12.43,0,0,0,3.82,1.35v0.2h13.56a12.5,12.5,0,0,1,12.5-12.5h14.87v0a12.49,12.49,0,0,1-3.15-24.42l0-.09h-10.87A12.49,12.49,0,0,1,3142.11,1834.73Z" transform="translate(-2974.16 -1769.33)"/><path class="cls-2" d="M3137.2,1904.19a12.49,12.49,0,0,0-10.32,12.3H3131c0.38,0,.75,0,1.12.06s0.74-.06,1.12-0.06h20.18a95.68,95.68,0,0,0,6.43-12.5H3137.2v0.2Z" transform="translate(-2974.16 -1769.33)"/><path class="cls-2" d="M3133.3,1828.78v0.2H3141a12.49,12.49,0,0,1,12.48-12h0.3a96.76,96.76,0,0,0-8.57-12,12.54,12.54,0,0,1-2.31.22h-12.57A12.48,12.48,0,0,0,3133.3,1828.78Z" transform="translate(-2974.16 -1769.33)"/><path class="cls-2" d="M3100.55,1791c0,0.16,0,.32,0,0.47a12.49,12.49,0,0,1,10.65,12.35c0,0.07,0,.14,0,0.2h14a12.47,12.47,0,0,1-4-19.76q-3.15-1.91-6.46-3.59h-4.73a11.37,11.37,0,0,0-3.12,0h-11.7A12.48,12.48,0,0,1,3100.55,1791Z" transform="translate(-2974.16 -1769.33)"/><path class="cls-3" d="M2999.74,1916.49h-10.55a95.41,95.41,0,0,0,18.54,22.11A12.5,12.5,0,0,0,2999.74,1916.49Z" transform="translate(-2974.16 -1769.33)"/><path class="cls-3" d="M3155.5,1854a12.49,12.49,0,0,0,12,12.47,97.07,97.07,0,0,0-.81-12.47,95.71,95.71,0,0,0-2.34-11.95A12.5,12.5,0,0,0,3155.5,1854Z" transform="translate(-2974.16 -1769.33)"/><path class="cls-3" d="M3153.43,1841.95h10.87a94.17,94.17,0,0,0-10.58-25h-0.3a12.49,12.49,0,0,0-12.48,12c0,0.15,0,.3,0,0.46A12.53,12.53,0,0,0,3153.43,1841.95Z" transform="translate(-2974.16 -1769.33)"/><path class="cls-3" d="M3152.61,1866.49a12.5,12.5,0,1,0,0,25h11.58a95.73,95.73,0,0,0,2.48-12.5,97.07,97.07,0,0,0,.81-12.5h-14.87Z" transform="translate(-2974.16 -1769.33)"/><path class="cls-3" d="M3110.48,1815.49H3103a12.49,12.49,0,0,0,8.14-11.5c0-.07,0-0.14,0-0.2a12.49,12.49,0,0,0-10.65-12.35,12.48,12.48,0,0,1-7,10.75c-0.2.1-.41,0.21-0.62,0.3a12.46,12.46,0,0,1-4.86,1h-11.14a12.51,12.51,0,0,1-2.78.32h-23.86a12.56,12.56,0,0,1-2.5-.25c0,0.15,0,.3,0,0.46a12.5,12.5,0,0,0,12.5,12.5h20.92a12.53,12.53,0,0,0,2.2-.2h1.85a12.49,12.49,0,0,0,4.35,24.2h20.92A12.5,12.5,0,1,0,3110.48,1815.49Z" transform="translate(-2974.16 -1769.33)"/><path class="cls-3" d="M3116.49,1869a12.44,12.44,0,0,0-6-1.54h-20.92a12.49,12.49,0,0,0-12.45,11.5c0,0.33-.05.66-0.05,1a12.5,12.5,0,0,0,8.61,11.88h-0.29a12.49,12.49,0,0,0-3-.38h-36.73a12.5,12.5,0,0,0-12.5,12.5c0,0.24,0,.48,0,0.72a12.52,12.52,0,0,0,12.46,11.78h14.58a12.5,12.5,0,1,0,0,25h20.92a12.49,12.49,0,0,0,3-24.62H3102a12.5,12.5,0,0,0,3.89-24.38h4.55A12.5,12.5,0,0,0,3116.49,1869Z" transform="translate(-2974.16 -1769.33)"/><path class="cls-3" d="M3015.53,1844.38a12.45,12.45,0,0,0-8-2.89h-7.8a12.5,12.5,0,1,0,0-25h-10.55a95.67,95.67,0,0,0-6.43,12.5l-0.19.46a95.45,95.45,0,0,0-4.1,12l0.36,0h-0.37q-0.53,2-1,4c-0.32,1.44-.62,2.9-0.88,4.37s-0.45,2.75-.63,4.14c-0.24,1.83-.42,3.67-0.55,5.53-0.16,2.25-.25,4.52-0.26,6.81a12.52,12.52,0,0,0,1.92.16h-1.92a97,97,0,0,0,.81,12.5,95.77,95.77,0,0,0,2.48,12.5h3.62a12.5,12.5,0,0,0,0-25h25.46a12.5,12.5,0,0,0,12.5-12.42s0-.05,0-0.08A12.47,12.47,0,0,0,3015.53,1844.38Z" transform="translate(-2974.16 -1769.33)"/><path class="cls-4" d="M3145.77,1916.49h-12.5c-0.38,0-.75,0-1.12.06s-0.74-.06-1.12-0.06h-12.5a12.5,12.5,0,1,0,0,25H3131l0.48,0,0.12-.1q1.81-1.46,3.55-3a96.79,96.79,0,0,0,8.12-8.14l0.18-.21,0.91-1a96.64,96.64,0,0,0,7.9-10.65c0.34-.53.69-1.07,1-1.61l0.14-.24h-7.68Z" transform="translate(-2974.16 -1769.33)"/><path class="cls-4" d="M3095.1,1780.64h11.7a11.37,11.37,0,0,1,3.12,0h4.73q-1.24-.63-2.5-1.22l-0.92-.44q-2.43-1.11-4.94-2.09-3.52-1.38-7.17-2.48-2.2-.66-4.44-1.23a95.77,95.77,0,0,0-12.56-2.26q-4.7-.53-9.53-0.59l-1.28,0h-0.61a97,97,0,0,0-12.06.83,12.49,12.49,0,0,0,4.65,7q0.45,0.34.93,0.63h-14a12.5,12.5,0,1,0,0,25h23.86a12.51,12.51,0,0,0,2.78-.32h11.14a12.46,12.46,0,0,0,4.86-1c0.21-.09.41-0.2,0.62-0.3a12.48,12.48,0,0,0,7-10.75c0-.16,0-0.31,0-0.47A12.48,12.48,0,0,0,3095.1,1780.64Z" transform="translate(-2974.16 -1769.33)"/><path class="cls-4" d="M3125.12,1804a12.43,12.43,0,0,0,5.16,1.15h12.57a12.54,12.54,0,0,0,2.31-.22c-0.26-.31-0.5-0.63-0.76-0.93l-0.17-.2a96.61,96.61,0,0,0-23.1-19.55A12.47,12.47,0,0,0,3125.12,1804Z" transform="translate(-2974.16 -1769.33)"/></svg>