<svg version="1" xmlns="http://www.w3.org/2000/svg" width="666.667" height="666.667" viewBox="0 0 500.000000 500.000000"><path d="M229.9.4c-.2.2-3.6.6-7.5.9-4 .3-13.9 2-22 3.6C134.5 18.2 77.1 57.2 40.5 113.5c-15.8 24.2-25.7 46.9-32.9 74.9-5.5 21.3-7 33.2-7.2 59.1-.2 30.8 2 47.2 10.6 77 4.5 15.3 14.8 38 25.2 55.4 4.3 7.2 17.8 26.4 19.7 28.1.4.3 3 3.3 6 6.8 20.9 24.5 52.3 48.1 82.6 62.2 13.5 6.2 34.2 13.5 45.5 16 27.3 6 37 7 64.5 6.5 12.7-.2 24.3-.6 25.8-.9 1.5-.2 6-1 10-1.6 24.5-4 47.8-11.5 70.1-22.6 13.9-6.9 13.9-6.9 26.1-14.9 38-24.7 69.1-60 88.7-100.5 4.4-9 11.4-26.3 12.4-30.5.4-1.7 1.1-3.6 1.7-4.2.5-.7.7-1.3.4-1.3-.3 0 .2-2.1 1-4.7 3-9.8 6.6-27.8 8.1-41.3.9-8.3.9-46.6 0-54.7-1.2-10.2-3.7-23.8-6.4-34.1-1.4-5.3-2.7-10.4-2.9-11.2-.8-3.5-5.5-16.2-9.1-24.5-17.1-40.3-44.9-75.8-79.4-101.9-4.1-3.1-7.9-6-8.5-6.4-3.2-2.6-25.3-15.4-32.5-18.9-23-11.1-49-19.4-70.5-22.4-4-.5-8.4-1.2-9.7-1.5-2.7-.7-49.3-1.6-49.9-1z"/></svg>