<?xml version="1.0" standalone="no"?>
<!DOCTYPE svg PUBLIC "-//W3C//DTD SVG 20010904//EN"
 "http://www.w3.org/TR/2001/REC-SVG-20010904/DTD/svg10.dtd">
<svg version="1.0" xmlns="http://www.w3.org/2000/svg"
 width="192.000000pt" height="192.000000pt" viewBox="0 0 192.000000 192.000000"
 preserveAspectRatio="xMidYMid meet">
<metadata>
Created by potrace 1.11, written by Peter Selinger 2001-2013
</metadata>
<g transform="translate(0.000000,192.000000) scale(0.100000,-0.100000)"
fill="#000000" stroke="none">
<path d="M780 1904 c-393 -82 -682 -372 -764 -764 -18 -85 -18 -257 -1 -345
21 -105 22 -108 39 -148 8 -20 13 -37 10 -37 -10 0 91 -178 131 -230 84 -109
185 -196 309 -265 62 -34 187 -81 241 -91 17 -3 48 -9 70 -14 22 -5 101 -8
175 -6 109 3 152 9 225 30 435 127 724 523 702 961 -7 130 -12 160 -38 240
-10 33 -19 63 -19 68 1 16 -95 185 -135 237 -84 109 -185 196 -309 265 -62 34
-187 81 -241 91 -16 3 -47 9 -69 14 -58 13 -253 10 -326 -6z"/>
</g>
</svg>
