<svg id="Layer_30" data-name="Layer 30" xmlns="http://www.w3.org/2000/svg" viewBox="0 0 66.92 66.92"><defs><style>.cls-1{fill:#acacac;}.cls-2{fill:#919191;}</style></defs><title>ceres</title><g id="Ceres"><path class="cls-1" d="M2636,1425.1a5.59,5.59,0,0,1,4.45-5.47l-0.07-.12H2633a5.58,5.58,0,0,1-2.37-10.64,33.3,33.3,0,0,0-19.21-6.07,33.65,33.65,0,0,0-5.65.48,5.58,5.58,0,0,1-5.56,5.1h-7.29a33.62,33.62,0,0,0-10.49,11.18,5.58,5.58,0,0,1-.79,11.11h7.77a5.59,5.59,0,0,1,0,11.17h-3.81a5.59,5.59,0,1,1,0,11.17h1.88a5.58,5.58,0,0,1,3.63,9.83,33.44,33.44,0,0,0,37.11,2.36,5.59,5.59,0,0,1,2.19-10.72h9.07a33.29,33.29,0,0,0,5.4-18.21,33.65,33.65,0,0,0-.47-5.59h-2.83A5.59,5.59,0,0,1,2636,1425.1Zm-39.14-5.59a5.59,5.59,0,0,1,5.59-5.59h11.17a5.59,5.59,0,0,1,0,11.17h-11.17A5.59,5.59,0,0,1,2596.87,1419.51Zm33.55,22.34h-5.63a5.59,5.59,0,1,1,0,11.17h-18.95a5.59,5.59,0,0,1,0-11.17h6.32a5.59,5.59,0,1,1,0-11.17h18.26A5.59,5.59,0,1,1,2630.42,1441.85Z" transform="translate(-2577.97 -1402.81)"/><path class="cls-2" d="M2589.42,1430.68h-7.77a5.58,5.58,0,0,0,.79-11.11,33.23,33.23,0,0,0-4,11.11,33.22,33.22,0,0,0,0,11.17,33.23,33.23,0,0,0,4,11.17,33.62,33.62,0,0,0,8.64,9.83,5.58,5.58,0,0,0-3.63-9.83h-1.88a5.59,5.59,0,1,0,0-11.17h3.81A5.59,5.59,0,0,0,2589.42,1430.68Z" transform="translate(-2577.97 -1402.81)"/><path class="cls-2" d="M2630.38,1447.44a5.59,5.59,0,0,0-5.59-5.59h5.63a5.59,5.59,0,1,0,0-11.17h-18.26a5.59,5.59,0,1,0,0,11.17h-6.32a5.59,5.59,0,0,0,0,11.17h18.95A5.59,5.59,0,0,0,2630.38,1447.44Z" transform="translate(-2577.97 -1402.81)"/><path class="cls-2" d="M2624.84,1460.07a5.59,5.59,0,0,0,3.39,5.14,33.62,33.62,0,0,0,11.27-10.72h-9.07A5.59,5.59,0,0,0,2624.84,1460.07Z" transform="translate(-2577.97 -1402.81)"/><path class="cls-2" d="M2640.46,1419.63a5.59,5.59,0,0,0,1.13,11.05h2.83A33.23,33.23,0,0,0,2640.46,1419.63Z" transform="translate(-2577.97 -1402.81)"/><path class="cls-2" d="M2613.62,1425.1a5.59,5.59,0,0,0,0-11.17h-11.17a5.59,5.59,0,0,0,0,11.17h11.17Z" transform="translate(-2577.97 -1402.81)"/><path class="cls-2" d="M2633,1419.51h7.38a33.62,33.62,0,0,0-9.75-10.64A5.58,5.58,0,0,0,2633,1419.51Z" transform="translate(-2577.97 -1402.81)"/><path class="cls-2" d="M2605.78,1403.29a33.26,33.26,0,0,0-12.86,5.1h7.29A5.58,5.58,0,0,0,2605.78,1403.29Z" transform="translate(-2577.97 -1402.81)"/></g></svg>