<svg id="Moon" xmlns="http://www.w3.org/2000/svg" viewBox="0 0 90.49 90.49"><defs><style>.cls-1{fill:#e0e0e0;stroke:#e0e0e0;}.cls-1,.cls-2,.cls-3,.cls-4{stroke-miterlimit:10;}.cls-2{fill:#f5f5f5;stroke:#f5f5f5;}.cls-3{fill:#9e9e9e;stroke:#9e9e9e;}.cls-4{fill:#bdbdbd;stroke:#bdbdbd;}</style></defs><title>moon</title><path class="cls-1" d="M2396,1332.45h-18.27a44.92,44.92,0,0,0,4.3,5.39,5,5,0,0,1,1.94-.39h12.26a5,5,0,0,1,0,10h-1.41a44.53,44.53,0,0,0,20,4.74h0a5,5,0,0,1,1.51-9.74h12.93a2.93,2.93,0,0,0,1.17,0h5.4a5,5,0,0,1,0-10h6.43a5,5,0,0,1,0-10H2457a44.48,44.48,0,0,0,2.3-10h-15.76a5,5,0,0,1,0-10h7.8a5,5,0,0,1-5-5c0-.13,0-0.25,0-0.38H2443a5,5,0,0,1-5-4.62h-18.17a5,5,0,0,1,0-10h6.32a5,5,0,0,1,5-5h8.56a5,5,0,0,1-5-5h-8.44a5,5,0,0,1-3-8.94,44.63,44.63,0,0,0-20.72.93,5,5,0,0,1-4,8h-7a5,5,0,0,0,10,0h9.91a5,5,0,0,1,0,10h-5.32a5,5,0,0,1,0,10h-5.29a5,5,0,0,1,0-10h0.69a5,5,0,0,0-10,0h-6.5a5,5,0,0,1,0,10H2378a5,5,0,0,1,3.1,4.62c0,0.14,0,.26,0,0.4a5,5,0,0,1,4.83,5H2396a5,5,0,0,1,0,10h-9.15a5,5,0,0,1,0,10H2396A5,5,0,0,1,2396,1332.45Zm0.6-15a5,5,0,0,1,5-5h5.29a4.58,4.58,0,0,0,1.83,0h1.44c0-.07,0-0.13,0-0.19a5,5,0,0,1,2-9.57h5.29a5,5,0,0,1,5,4.76h11.77a5,5,0,0,1,0,10H2421a5,5,0,0,1,0,10h-12.26a5,5,0,0,1-5-5h-2.11A5,5,0,0,1,2396.61,1317.45Z" transform="translate(-2369.61 -1262.21)"/><path class="cls-1" d="M2442.3,1342.76l0.41-.31h-2.08A5,5,0,0,1,2442.3,1342.76Z" transform="translate(-2369.61 -1262.21)"/><path class="cls-2" d="M2401,1307.45a5,5,0,0,0-5-5h-10.07c0,0.15,0,.29,0,0.44a5,5,0,0,1-5,4.56h-8.49a5,5,0,0,1,5,4.51c0,0.16,0,.32,0,0.49a5,5,0,0,1-5,5h-1.2a44.42,44.42,0,0,0,1.45,5h2.64a5,5,0,0,1,2.1,9.52v0l0.29,0.46H2396a5,5,0,0,0,0-10h-9.15a5,5,0,0,0,0-10H2396A5,5,0,0,0,2401,1307.45Z" transform="translate(-2369.61 -1262.21)"/><path class="cls-2" d="M2459.31,1302.45a44.53,44.53,0,0,0-1.18-6.31,5,5,0,0,1-2.89.93h-8.86c0,0.13,0,.25,0,0.38a5,5,0,0,0,5,5h-7.8a5,5,0,0,0,0,10h15.76A44,44,0,0,0,2459.31,1302.45Z" transform="translate(-2369.61 -1262.21)"/><path class="cls-2" d="M2437.29,1327.45a5,5,0,0,0,5,5h-6.43a5,5,0,0,0,0,10h6.84a45.3,45.3,0,0,0,5.62-5.36,5,5,0,0,1,1.85-9.64h4.69a44.84,44.84,0,0,0,2.13-5h-14.71A5,5,0,0,0,2437.29,1327.45Z" transform="translate(-2369.61 -1262.21)"/><path class="cls-2" d="M2436.35,1292.45H2438c0-.1,0-0.2,0-0.3s0-.05,0-0.08a5,5,0,0,1,3.1-4.62h-9.92a5,5,0,0,1-5-5h-6.32a5,5,0,0,0,0,10h16.5Z" transform="translate(-2369.61 -1262.21)"/><path class="cls-2" d="M2374.93,1292.08h1.21a5,5,0,0,1,1.9.38h7.06a5,5,0,0,0,0-10h6.5a5,5,0,0,0,0-10H2387a45,45,0,0,0-9.25,10c-0.36.53-.69,1.08-1,1.63A5,5,0,0,1,2374.93,1292.08Z" transform="translate(-2369.61 -1262.21)"/><path class="cls-2" d="M2426.29,1272.45h8.44a5,5,0,0,1,2-4,44.4,44.4,0,0,0-13.5-4.95A5,5,0,0,0,2426.29,1272.45Z" transform="translate(-2369.61 -1262.21)"/><path class="cls-3" d="M2380.94,1307.45a5,5,0,0,0,5-4.56c0-.15,0-0.29,0-0.44a5,5,0,0,0-4.83-5,5,5,0,0,1-5,4.6h-5.29c-0.14,0-.27,0-0.41,0,0,0.14,0,.28-0.06.42a44,44,0,0,0,0,10,44.57,44.57,0,0,0,.85,5h1.2a5,5,0,0,0,5-5c0-.17,0-0.32,0-0.49a5,5,0,0,0-5-4.51h8.49Z" transform="translate(-2369.61 -1262.21)"/><path class="cls-3" d="M2457,1292.45l0-.1a5,5,0,0,1-1,.1h-5.29a4.9,4.9,0,0,1-.53-0.05,5,5,0,0,1-4.47-4.95c0-.13,0-0.25,0-0.38s0-.13,0-0.2a5,5,0,0,1,4.45-4.37c0.16,0,.32,0,0.49,0h-4.24a5,5,0,0,1-2.73-9.18c-0.33-.28-0.65-0.55-1-0.82a44.82,44.82,0,0,0-6-4,5,5,0,0,0,3,9h-8.56a5,5,0,0,0,0,10h9.92a5,5,0,0,0-3.1,4.62s0,0.05,0,.08,0,0.2,0,.3a5,5,0,0,0,5,4.62h12.26a5,5,0,0,0,2.89-.93C2457.8,1294.9,2457.44,1293.66,2457,1292.45Z" transform="translate(-2369.61 -1262.21)"/><path class="cls-3" d="M2452,1282.45h-0.09l-0.16,0H2452Z" transform="translate(-2369.61 -1262.21)"/><path class="cls-3" d="M2396.23,1337.45H2384a5,5,0,0,0-1.94.39,44.86,44.86,0,0,0,12.79,9.61h1.41A5,5,0,0,0,2396.23,1337.45Z" transform="translate(-2369.61 -1262.21)"/><path class="cls-3" d="M2410.18,1312.26c0,0.06,0,.13,0,0.19h0.58A5,5,0,0,1,2410.18,1312.26Z" transform="translate(-2369.61 -1262.21)"/><path class="cls-3" d="M2387,1272.45h11.57a5,5,0,0,0,4-8A44.66,44.66,0,0,0,2387,1272.45Z" transform="translate(-2369.61 -1262.21)"/><path class="cls-3" d="M2434.23,1307.45h-11.77c0,0.08,0,.16,0,0.24a5,5,0,0,1-5,5h-2a5,5,0,0,1,3.54,4.76,5,5,0,0,1-5,5h-5.29a4.58,4.58,0,0,0-1.83,0h-3.17a5,5,0,0,0,5,5H2421a5,5,0,0,0,0-10h13.26A5,5,0,0,0,2434.23,1307.45Z" transform="translate(-2369.61 -1262.21)"/><path class="cls-4" d="M2419,1317.45a5,5,0,0,0-3.54-4.76h2a5,5,0,0,0,5-5c0-.08,0-0.16,0-0.24a5,5,0,0,0-5-4.76h-5.29a5,5,0,0,0-1.46,9.76h-2a4.58,4.58,0,0,1-1.83,0h-5.29a5,5,0,0,0,0,10h5.29a4.58,4.58,0,0,1,1.83,0H2414A5,5,0,0,0,2419,1317.45Z" transform="translate(-2369.61 -1262.21)"/><path class="cls-4" d="M2454.67,1287.08l-0.05-.11-0.07-.15q-0.89-1.7-1.91-3.32c-0.22-.35-0.44-0.7-0.67-1h-0.25l0.16,0H2452v0a44.54,44.54,0,0,0-3.93-5c-0.29-.32-0.59-0.64-0.9-0.95a45.33,45.33,0,0,0-3.43-3.23,5,5,0,0,0,2.73,9.18h4.24c-0.17,0-.32,0-0.49,0a5,5,0,0,0-4.45,4.37c0,0.07,0,.13,0,0.2s0,0.25,0,.38a5,5,0,0,0,4.47,4.95,4.9,4.9,0,0,0,.53.05h5.29a5,5,0,0,0,1-.1A44.42,44.42,0,0,0,2454.67,1287.08Z" transform="translate(-2369.61 -1262.21)"/><path class="cls-4" d="M2378,1292.45a5,5,0,0,0-1.9-.38h-1.21a5,5,0,0,0,1.78-8,44.63,44.63,0,0,0-3.87,8c0,0.13-.1.25-0.15,0.38a44.06,44.06,0,0,0-2.24,9.58c0.14,0,.27,0,0.41,0h5.29a5,5,0,0,0,5-4.6c0-.13,0-0.26,0-0.4A5,5,0,0,0,2378,1292.45Z" transform="translate(-2369.61 -1262.21)"/><path class="cls-4" d="M2395.92,1287.45a5,5,0,0,0,5,5h5.29a5,5,0,0,0,0-10h5.32a5,5,0,0,0,0-10h-9.91a5,5,0,0,0,0,10h-0.69A5,5,0,0,0,2395.92,1287.45Z" transform="translate(-2369.61 -1262.21)"/><path class="cls-4" d="M2377.43,1322.93a5,5,0,0,0-2.1-.48h-2.64a43.59,43.59,0,0,0,4.74,9.52A5,5,0,0,0,2377.43,1322.93Z" transform="translate(-2369.61 -1262.21)"/><path class="cls-4" d="M2445.18,1332.45a5,5,0,0,0,3.15,4.64,42.58,42.58,0,0,0,6.54-9.64h-4.69A5,5,0,0,0,2445.18,1332.45Z" transform="translate(-2369.61 -1262.21)"/><path class="cls-4" d="M2435.86,1342.45h-5.4a2.93,2.93,0,0,1-1.17,0h-12.93a5,5,0,0,0-1.51,9.74c0.9,0,1.79,0,2.68-.09q2-.12,3.87-0.4t3.78-.73l1.43-.36c0.78-.21,1.56-0.45,2.33-0.71q0.88-.29,1.75-0.62,1.82-.69,3.57-1.53a44.78,44.78,0,0,0,5.56-3.19c0.85-.57,1.67-1.18,2.48-1.81a5,5,0,0,0-1.68-.31h-4.76Z" transform="translate(-2369.61 -1262.21)"/></svg>