<svg id="Venus" xmlns="http://www.w3.org/2000/svg" viewBox="0 0 265.93 265.93"><defs><style>.cls-1,.cls-4{fill:#6d5e47;}.cls-2{fill:#dbae6d;stroke:#dbae6d;}.cls-2,.cls-3,.cls-4,.cls-5,.cls-6{stroke-miterlimit:10;stroke-width:2px;}.cls-3{fill:#a78651;stroke:#a78651;}.cls-4{stroke:#6d5e47;}.cls-5{fill:#f49d37;stroke:#f49d37;}.cls-6{fill:#f9b002;stroke:#f9b002;}</style></defs><title>venus</title><path class="cls-1" d="M2398.64,453.52h2.61c-0.48,0-1,0-1.43-.07S2399,453.52,2398.64,453.52Z" transform="translate(-2365.97 -234.8)"/><path class="cls-1" d="M2399.81,419.3c0.47,0,.95-0.07,1.43-0.07h-2.86C2398.87,419.23,2399.34,419.26,2399.81,419.3Z" transform="translate(-2365.97 -234.8)"/><path class="cls-1" d="M2546.52,317.17h-1.19a17.1,17.1,0,0,1-3.79-.43h-8.84a17.11,17.11,0,0,1-6.25,12.83,17.14,17.14,0,0,1,.51,3.9h30.52a17.19,17.19,0,0,1,2.75.24c0-.19,0-0.38,0-0.58A17.14,17.14,0,0,1,2546.52,317.17Z" transform="translate(-2365.97 -234.8)"/><path class="cls-1" d="M2523.6,248.07a17,17,0,0,1,1.78.48h30.22c-1-.46-1.94-0.89-2.92-1.33a17.15,17.15,0,0,1-3.92.47h-25.16c0,0.11,0,.22,0,0.33S2523.6,248.06,2523.6,248.07Z" transform="translate(-2365.97 -234.8)"/><path class="cls-1" d="M2456.13,264.85c0,0.46,0,.91-0.07,1.36a17.14,17.14,0,0,1,4.07-.51h8.49c0-.29,0-0.57,0-0.86,0,0,0,0,0,0a17.15,17.15,0,0,1-12.85-21.76A131.35,131.35,0,0,0,2443,248.2,17.15,17.15,0,0,1,2456.13,264.85Z" transform="translate(-2365.97 -234.8)"/><path class="cls-1" d="M2443.05,281.5a17.14,17.14,0,0,1-4.07.51h4C2443,281.84,2443,281.67,2443.05,281.5Z" transform="translate(-2365.97 -234.8)"/><path class="cls-1" d="M2493.91,402.91c0-.28,0-0.55,0-0.83A17.15,17.15,0,0,1,2511,384.92h23.44a17.15,17.15,0,0,1-17.15-17.15h-16a17.15,17.15,0,0,1-17.14-16.91h-8.65a17.15,17.15,0,0,1-10.88-30.41,17.13,17.13,0,0,1-.52-4.14h-62.86a17.15,17.15,0,1,1,0,34.31h41.17a17.15,17.15,0,1,1,0,34.31h-28.29a17,17,0,0,1-1.83,4,17.11,17.11,0,0,1,6.11,13.12,17.36,17.36,0,0,1-.09,1.76,17.05,17.05,0,0,1,7.52-1.76h34.31c0.48,0,1,0,1.43.07h27.3A17.14,17.14,0,0,1,2493.91,402.91Z" transform="translate(-2365.97 -234.8)"/><path class="cls-1" d="M2510.39,419.21l0.37,0.1h0.32l0-.07h0Z" transform="translate(-2365.97 -234.8)"/><path class="cls-1" d="M2506.45,418.73c0.21,0,.41,0,0.61,0-0.36-.09-0.73-0.18-1.08-0.29,0,0.09,0,.17,0,0.26h0.46Z" transform="translate(-2365.97 -234.8)"/><path class="cls-1" d="M2408.67,419.23a17.36,17.36,0,0,1,.09-1.76,17.05,17.05,0,0,1-7.52,1.76h7.43Z" transform="translate(-2365.97 -234.8)"/><path class="cls-1" d="M2558.48,452.68h-17.73a12.15,12.15,0,0,0-8.06.84,17.14,17.14,0,0,1-17.13,16.67H2506a17.15,17.15,0,0,1-17.15,17.15H2479c0,0.17,0,.33,0,0.5a17.06,17.06,0,0,1-3.14,9.87A132.33,132.33,0,0,0,2556,486.79,17.14,17.14,0,0,1,2558.48,452.68Z" transform="translate(-2365.97 -234.8)"/><path class="cls-1" d="M2449.6,296.38a17.38,17.38,0,0,1-6.62-13.52c0-.29,0-0.57,0-0.86h-4a17.14,17.14,0,0,0,4.07-.51,17.14,17.14,0,0,1,13-15.28c0-.45.07-0.9,0.07-1.36A17.15,17.15,0,0,0,2443,248.2a132.18,132.18,0,0,0-31,20.28,17.15,17.15,0,0,1-12.76,28.59h-11.75q-2.65,4.18-5,8.55-2.79,5.21-5.12,10.69a130.88,130.88,0,0,0-4.54,12.41h9.28a17.14,17.14,0,0,1,14.44,26.39c-0.11.17-.22,0.35-0.34,0.51a17.27,17.27,0,0,1-11.53,7.19h13a17.14,17.14,0,0,1,16.43,22.06v0h28.29a17.15,17.15,0,1,0,0-34.31h-41.17a17.15,17.15,0,1,0,0-34.31h62.86a17.15,17.15,0,0,1,11.82-16.3h-15.78A17.06,17.06,0,0,1,2449.6,296.38Z" transform="translate(-2365.97 -234.8)"/><path class="cls-1" d="M2436.12,437.25a0.45,0.45,0,0,0-.17-0.86h-10.12A17.16,17.16,0,0,1,2409.11,423a17.32,17.32,0,0,1-.43-3.36,0.44,0.44,0,0,0-.44-0.44h-7c-0.47,0-.94,0-1.4.07h-0.06c-0.46,0-.93-0.07-1.4-0.07h2.86a17,17,0,0,0,7.3-1.65,0.45,0.45,0,0,0,.25-0.36,17.15,17.15,0,0,1,9.29-13.28,0.45,0.45,0,0,0,.25-0.36q0.06-.75.07-1.51a17.1,17.1,0,0,0-5.72-12.78,0.45,0.45,0,0,0-.67.1,17.12,17.12,0,0,1-14.31,7.73h-21.18a0.45,0.45,0,0,0-.16.87,17.14,17.14,0,0,1,4.84,28.69,0.44,0.44,0,0,0-.11.53q1.57,3.1,3.28,6.1a132.3,132.3,0,0,0,14.06,20l0.2,0.24c0.4,0,.79,0,1.18-0.06s0.95,0.07,1.43.07h-1.61a0.45,0.45,0,0,0-.34.74q0.88,1,1.79,2a132.75,132.75,0,0,0,17.84,16.4l0.51,0a17.06,17.06,0,0,1,8.12-2.05h9.89c0-.17,0-0.33,0-0.5s0-.39,0-0.58a17,17,0,0,1-12.16-16.07c0-.11,0-0.22,0-0.33A17.15,17.15,0,0,1,2436.12,437.25Z" transform="translate(-2365.97 -234.8)"/><path class="cls-1" d="M2606.51,422.66a16.8,16.8,0,0,1-10.26-3.43l-0.15-.11c-0.31-.24-0.62-0.49-0.91-0.75a17.12,17.12,0,0,1,3.87-28.3,17.09,17.09,0,0,1-2.55-5.08l0-.07a17.17,17.17,0,0,1,12-21.51A17.09,17.09,0,0,1,2606,363h-25.5a17,17,0,0,1-9-2.56,17.12,17.12,0,0,1-14,7.3h-40.17a17.15,17.15,0,0,0,17.15,17.15H2511a17.15,17.15,0,0,0-17.15,17.15c0,0.28,0,.55,0,0.83A17.15,17.15,0,0,1,2506,418.47c0.36,0.11.72,0.2,1.08,0.29a17.15,17.15,0,0,1,3.33.44l0.63,0h0a17.22,17.22,0,0,1,16.28-22.54h34.31a17.1,17.1,0,0,1,16.53,21.68c0,0.09,0,.19-0.07.28s0,0.21-.08.31-0.07.18-.1,0.27A17.15,17.15,0,0,1,2561.64,431h-14.39a17.11,17.11,0,0,1-9.83,21.35,17.18,17.18,0,0,0,3.33.33h17.73a17.14,17.14,0,0,0-2.47,34.11,132.22,132.22,0,0,0,33.54-23.08,17.16,17.16,0,0,1-12.52-11l0-.12a17.1,17.1,0,0,1,13.27-22.5c0.33-.06.65-0.11,1-0.15a17.29,17.29,0,0,1,1.94-.12h22.24c1.12-2.1,2.2-4.23,3.21-6.4,0.11-.24.22-0.49,0.33-0.73h-12.45Z" transform="translate(-2365.97 -234.8)"/><path class="cls-1" d="M2560.26,333.13c0,0.19,0,.38,0,0.58a17,17,0,0,1,6.26,2.33,17.23,17.23,0,0,1,2.21-2.57h-5.07A17.22,17.22,0,0,1,2560.26,333.13Z" transform="translate(-2365.97 -234.8)"/><path class="cls-1" d="M2545.33,317.17h1.19c0-.14,0-0.29,0-0.43h-5A17.1,17.1,0,0,0,2545.33,317.17Z" transform="translate(-2365.97 -234.8)"/><path class="cls-1" d="M2597.93,299.16a17.15,17.15,0,0,1,17.15,17.15c0,0.27,0,.54,0,0.8,0,0.11,0,.23,0,0.34v0.07c0,0.17,0,.34,0,0.5a17.09,17.09,0,0,1-5.25,10.7h5.07a17.16,17.16,0,0,1,3.86.45h6.47c-0.85-2.79-1.78-5.55-2.81-8.27q-0.55-1.45-1.14-2.88l-0.23-.57c-0.21-.51-0.42-1-0.64-1.53a131.82,131.82,0,0,0-15-26.21,17.11,17.11,0,0,1-15.31,9.44h7.91Z" transform="translate(-2365.97 -234.8)"/><path class="cls-1" d="M2535.21,256.85a17.07,17.07,0,0,1,2,8h44.34a132.15,132.15,0,0,0-21.33-14q-2.28-1.2-4.61-2.31h-30.22A17.19,17.19,0,0,1,2535.21,256.85Z" transform="translate(-2365.97 -234.8)"/><path class="cls-1" d="M2400.61,363.08a17.19,17.19,0,0,0-2.91-.27h-13a17.27,17.27,0,0,0,11.53-7.19c0.12-.17.22-0.34,0.34-0.51a17.14,17.14,0,0,0-14.44-26.39h-9.28a131.29,131.29,0,0,0-4.77,21.89q-0.28,2.15-.49,4.32c-0.25,2.61-.42,5.24-0.52,7.89V363c-0.06,1.57-.1,3.15-0.1,4.74,0,4.33.22,8.61,0.62,12.84q0.21,2.17.49,4.32c0.52,4,1.23,7.92,2.1,11.79l0.09,0.41a130.88,130.88,0,0,0,7.12,22.11q1.66,3.91,3.56,7.68a17.13,17.13,0,0,0-4.36-28.82,0.5,0.5,0,0,1,.2-1h20.91a17.25,17.25,0,0,0,16.42-12.2v0A17.12,17.12,0,0,0,2400.61,363.08Z" transform="translate(-2365.97 -234.8)"/><path class="cls-1" d="M2399.37,281.16l-0.72.84a132.41,132.41,0,0,0-11.14,15.06h11.75A17.13,17.13,0,0,0,2412,268.48,132.65,132.65,0,0,0,2399.37,281.16Z" transform="translate(-2365.97 -234.8)"/><path class="cls-1" d="M2591.25,429.91c-0.33,0-.66.09-1,0.15a17.1,17.1,0,0,0-13.27,22.5l0,0.12a17.16,17.16,0,0,0,12.52,11,132.83,132.83,0,0,0,9.41-9.86l1-1.17,0.84-1a132,132,0,0,0,14.63-21.89h-22.24A17.29,17.29,0,0,0,2591.25,429.91Z" transform="translate(-2365.97 -234.8)"/><path class="cls-1" d="M2630.83,363.48c0-.22,0-0.44,0-0.67q-0.18-4.66-.67-9.24c-0.07-.61-0.12-1.22-0.19-1.82,0-.38-0.09-0.76-0.14-1.14q-0.71-5.51-1.88-10.86c-0.48-2.23-1-4.43-1.63-6.61-0.36-1.33-.74-2.66-1.14-4h-6.47a17.16,17.16,0,0,0-3.86-.45h-5.07l-0.52.47a17.06,17.06,0,0,1-10.64,4.23c-0.22,0-.43,0-0.66,0h-29.24a17.23,17.23,0,0,0-2.21,2.57,17.12,17.12,0,0,1,8.15,14.58c0,0.21,0,.42,0,0.63s0,0.26,0,.39a17,17,0,0,1-3.07,8.83,17,17,0,0,0,9,2.56H2606a17.09,17.09,0,0,0,2.48.38,17.13,17.13,0,0,0-12,21.51l0,0.07a17.09,17.09,0,0,0,2.55,5.08,17.05,17.05,0,0,1,7.45-1.72h22.79c0.18-1.14.35-2.28,0.5-3.43a133.19,133.19,0,0,0,1.11-17.15C2630.9,366.34,2630.88,364.91,2630.83,363.48Z" transform="translate(-2365.97 -234.8)"/><path class="cls-1" d="M2578,419c0-.1.05-0.2,0.08-0.31s0-.19.07-0.28a17.1,17.1,0,0,0-16.53-21.68h-34.31a17.13,17.13,0,0,0-16.28,22.54l0,0.07H2531a17.16,17.16,0,0,1,16.25,11.7h14.39a17.15,17.15,0,0,0,16.28-11.77C2578,419.14,2578,419.05,2578,419Z" transform="translate(-2365.97 -234.8)"/><path class="cls-1" d="M2566.49,336a17,17,0,0,0-6.26-2.33,17.19,17.19,0,0,0-2.75-.24H2527c0,0.08,0,.16,0,0.24a17.15,17.15,0,0,1-17.15,17.15h-25.65a17.15,17.15,0,0,0,17.14,16.91h56.18a17.14,17.14,0,0,0,17.1-16.13c0-.13,0-0.26,0-0.39s0-.42,0-0.63A17.12,17.12,0,0,0,2566.49,336Z" transform="translate(-2365.97 -234.8)"/><path class="cls-1" d="M2439,436.38a17.16,17.16,0,0,0-13.79,16.82c0,0.11,0,.22,0,0.33a17,17,0,0,0,12.16,16.07A17.21,17.21,0,0,1,2454.56,453h17.58A17.15,17.15,0,0,1,2455,436.46s0,0,0-.07,0-.22,0-0.33,0-.11,0-0.16a17.15,17.15,0,0,1,17.15-17.15H2506c0-.09,0-0.17,0-0.26a17.12,17.12,0,0,0-17.11-16.32h-27.3c-0.47,0-.95-0.07-1.43-0.07h-34.31a17.21,17.21,0,0,0-17.06,15.4,17.36,17.36,0,0,0-.09,1.76,17.18,17.18,0,0,0,17.15,17.15H2439Z" transform="translate(-2365.97 -234.8)"/><path class="cls-1" d="M2496.69,453.61a17.19,17.19,0,0,1-2.82-.25q-0.76-.13-1.5-0.32h-3.5A17.16,17.16,0,0,1,2506,470.19h9.54a17.14,17.14,0,0,0,17.13-16.67c-0.56.05-1.12,0.09-1.7,0.09h-34.31Z" transform="translate(-2365.97 -234.8)"/><path class="cls-1" d="M2449.6,296.38a17.06,17.06,0,0,0,10.54,3.64h15.78a17.07,17.07,0,0,0-11.29,20.43,17.08,17.08,0,0,1,10.88-3.9h34.31a17.14,17.14,0,0,1,16.63,13,17.11,17.11,0,0,0,6.25-12.83h-9.09a17.16,17.16,0,0,1-3.82-.44h-17A17.14,17.14,0,0,1,2485.69,300c0-.29,0-0.57,0-0.86h0A17.28,17.28,0,0,1,2502.56,282h-16.83a17.13,17.13,0,0,1-17.11-16.3h-8.49a17.22,17.22,0,0,0-17.08,15.79c0,0.17,0,.34,0,0.51s0,0.57,0,.86A17.38,17.38,0,0,0,2449.6,296.38Z" transform="translate(-2365.97 -234.8)"/><path class="cls-1" d="M2537.11,282c0.49,0,1,0,1.46.07a17.1,17.1,0,0,1,2.36.37h17A17.13,17.13,0,0,1,2575,299.16c0,0.14,0,.28,0,0.43a17.19,17.19,0,0,1-17.15,17.15h-11.41c0,0.14,0,.29,0,0.43a17.13,17.13,0,0,0,17.11,16.3h34.31c0.22,0,.44,0,0.66,0a17.06,17.06,0,0,0,10.64-4.23l0.52-.47A17.09,17.09,0,0,0,2615,318c0-.17,0-0.34,0-0.5v-0.07c0-.11,0-0.23,0-0.34,0-.27,0-0.53,0-0.8a17.15,17.15,0,0,0-17.15-17.15H2590a17.11,17.11,0,0,0,15.31-9.44c-1.5-2-3-4-4.65-6l-0.73-.86q-2-2.36-4.08-4.63a132.72,132.72,0,0,0-14.34-13.38h-44.34A17.24,17.24,0,0,1,2537,267a17.16,17.16,0,0,1-16.76,15h16.83Z" transform="translate(-2365.97 -234.8)"/><path class="cls-1" d="M2468.58,264.81a17.15,17.15,0,0,1,17.15-17.11h28.71a17.15,17.15,0,0,1-16.32-11.89,131.65,131.65,0,0,0-42.4,7.24A17.15,17.15,0,0,0,2468.58,264.81Z" transform="translate(-2365.97 -234.8)"/><path class="cls-1" d="M2523.6,248c0-.11,0-0.22,0-0.33H2520a17.21,17.21,0,0,1,3.56.38S2523.6,248,2523.6,248Z" transform="translate(-2365.97 -234.8)"/><path class="cls-1" d="M2613.36,388.36h-6.86a17.14,17.14,0,0,0-11.32,30c0.29,0.26.6,0.51,0.91,0.75l0.15,0.11a16.8,16.8,0,0,0,10.26,3.43H2619c0.52-1.14,1-2.28,1.53-3.43l0.35-.86a131.1,131.1,0,0,0,6.77-21.25q1-4.33,1.69-8.77h-15.93Z" transform="translate(-2365.97 -234.8)"/><path class="cls-1" d="M2473.9,487.35h-19.34a17.11,17.11,0,0,1-17.13-16.66h-9.89a17.06,17.06,0,0,0-8.37,2.19,132,132,0,0,0,17.37,11.2q3.72,2,7.58,3.77a131.08,131.08,0,0,0,31.74,9.87,17.06,17.06,0,0,0,3.14-9.87c0-.17,0-0.33,0-0.5h-5.08Z" transform="translate(-2365.97 -234.8)"/><path class="cls-1" d="M2575,299.16a17.07,17.07,0,0,0-4-10.57,17.26,17.26,0,0,0-2-2,17.25,17.25,0,0,0-11.14-4.12h-17a17.1,17.1,0,0,0-2.36-.37c-0.48,0-1-.07-1.46-0.07h-16.83a17.15,17.15,0,0,0-.24-34.29h28.71a17.15,17.15,0,0,0,3.92-.47,131.11,131.11,0,0,0-32.72-9.75,132.76,132.76,0,0,0-21-1.68h-0.81a17.15,17.15,0,0,0,16.32,11.89h-28.71a17.15,17.15,0,0,0-17.15,17.11s0,0,0,0c0,0.29,0,.57,0,0.86a17.13,17.13,0,0,0,17.11,16.3h16.83a17.28,17.28,0,0,0-16.91,17.14h0c0,0.29,0,.57,0,0.86a17.14,17.14,0,0,0,17.11,16.28h17a17.16,17.16,0,0,0,3.82.44h34.31a17.19,17.19,0,0,0,17.15-17.15C2575.06,299.44,2575,299.3,2575,299.16Z" transform="translate(-2365.97 -234.8)"/><path class="cls-1" d="M2534.33,419.63a17.22,17.22,0,0,0-3.33-.33h-20.23l-0.37-.1a17.15,17.15,0,0,0-3.33-.44c-0.2,0-.41,0-0.61,0h-34.31A17.15,17.15,0,0,0,2455,435.89c0,0.06,0,.11,0,0.16s0,0.22,0,.33,0,0,0,.07A17.15,17.15,0,0,0,2472.14,453h-17.58a17.15,17.15,0,0,0-17.12,16.57c0,0.2,0,.39,0,0.58s0,0.33,0,.5a17.21,17.21,0,0,0,17.13,16.66h34.31a17.15,17.15,0,0,0,0-34.31h3.5q0.74,0.19,1.5.32a17.19,17.19,0,0,0,2.82.25H2531c0.57,0,1.14,0,1.7-.09A17.15,17.15,0,0,0,2534.33,419.63Z" transform="translate(-2365.97 -234.8)"/><path class="cls-1" d="M2475.51,350.86h34.31A17.15,17.15,0,0,0,2527,333.71c0-.08,0-0.16,0-0.24a17.19,17.19,0,0,0-17.14-16.91h-34.31A17.15,17.15,0,0,0,2475.51,350.86Z" transform="translate(-2365.97 -234.8)"/><path class="cls-2" d="M2398.64,453.52h2.61c-0.48,0-1,0-1.43-.07S2399,453.52,2398.64,453.52Z" transform="translate(-2365.97 -234.8)"/><path class="cls-2" d="M2399.81,419.3c0.47,0,.95-0.07,1.43-0.07h-2.86C2398.87,419.23,2399.34,419.26,2399.81,419.3Z" transform="translate(-2365.97 -234.8)"/><path class="cls-2" d="M2546.52,317.17h-1.19a17.1,17.1,0,0,1-3.79-.43h-8.84a17.11,17.11,0,0,1-6.25,12.83,17.14,17.14,0,0,1,.51,3.9h30.52a17.19,17.19,0,0,1,2.75.24c0-.19,0-0.38,0-0.58A17.14,17.14,0,0,1,2546.52,317.17Z" transform="translate(-2365.97 -234.8)"/><path class="cls-2" d="M2523.6,248.07a17,17,0,0,1,1.78.48h30.22c-1-.46-1.94-0.89-2.92-1.33a17.15,17.15,0,0,1-3.92.47h-25.16c0,0.11,0,.22,0,0.33S2523.6,248.06,2523.6,248.07Z" transform="translate(-2365.97 -234.8)"/><path class="cls-2" d="M2456.13,264.85c0,0.46,0,.91-0.07,1.36a17.14,17.14,0,0,1,4.07-.51h8.49c0-.29,0-0.57,0-0.86,0,0,0,0,0,0a17.15,17.15,0,0,1-12.85-21.76A131.35,131.35,0,0,0,2443,248.2,17.15,17.15,0,0,1,2456.13,264.85Z" transform="translate(-2365.97 -234.8)"/><path class="cls-2" d="M2443.05,281.5a17.14,17.14,0,0,1-4.07.51h4C2443,281.84,2443,281.67,2443.05,281.5Z" transform="translate(-2365.97 -234.8)"/><path class="cls-2" d="M2493.91,402.91c0-.28,0-0.55,0-0.83A17.15,17.15,0,0,1,2511,384.92h23.44a17.15,17.15,0,0,1-17.15-17.15h-16a17.15,17.15,0,0,1-17.14-16.91h-8.65a17.15,17.15,0,0,1-10.88-30.41,17.13,17.13,0,0,1-.52-4.14h-62.86a17.15,17.15,0,1,1,0,34.31h41.17a17.15,17.15,0,1,1,0,34.31h-28.29a17,17,0,0,1-1.83,4,17.11,17.11,0,0,1,6.11,13.12,17.36,17.36,0,0,1-.09,1.76,17.05,17.05,0,0,1,7.52-1.76h34.31c0.48,0,1,0,1.43.07h27.3A17.14,17.14,0,0,1,2493.91,402.91Z" transform="translate(-2365.97 -234.8)"/><path class="cls-2" d="M2510.39,419.21l0.37,0.1h0.32l0-.07h0Z" transform="translate(-2365.97 -234.8)"/><path class="cls-2" d="M2506.45,418.73c0.21,0,.41,0,0.61,0-0.36-.09-0.73-0.18-1.08-0.29,0,0.09,0,.17,0,0.26h0.46Z" transform="translate(-2365.97 -234.8)"/><path class="cls-2" d="M2408.67,419.23a17.36,17.36,0,0,1,.09-1.76,17.05,17.05,0,0,1-7.52,1.76h7.43Z" transform="translate(-2365.97 -234.8)"/><path class="cls-2" d="M2558.48,452.68h-17.73a12.15,12.15,0,0,0-8.06.84,17.14,17.14,0,0,1-17.13,16.67H2506a17.15,17.15,0,0,1-17.15,17.15H2479c0,0.17,0,.33,0,0.5a17.06,17.06,0,0,1-3.14,9.87A132.33,132.33,0,0,0,2556,486.79,17.14,17.14,0,0,1,2558.48,452.68Z" transform="translate(-2365.97 -234.8)"/><path class="cls-3" d="M2449.6,296.38a17.38,17.38,0,0,1-6.62-13.52c0-.29,0-0.57,0-0.86h-4a17.14,17.14,0,0,0,4.07-.51,17.14,17.14,0,0,1,13-15.28c0-.45.07-0.9,0.07-1.36A17.15,17.15,0,0,0,2443,248.2a132.18,132.18,0,0,0-31,20.28,17.15,17.15,0,0,1-12.76,28.59h-11.75q-2.65,4.18-5,8.55-2.79,5.21-5.12,10.69a130.88,130.88,0,0,0-4.54,12.41h9.28a17.14,17.14,0,0,1,14.44,26.39c-0.11.17-.22,0.35-0.34,0.51a17.27,17.27,0,0,1-11.53,7.19h13a17.14,17.14,0,0,1,16.43,22.06v0h28.29a17.15,17.15,0,1,0,0-34.31h-41.17a17.15,17.15,0,1,0,0-34.31h62.86a17.15,17.15,0,0,1,11.82-16.3h-15.78A17.06,17.06,0,0,1,2449.6,296.38Z" transform="translate(-2365.97 -234.8)"/><path class="cls-3" d="M2436.12,437.25a0.45,0.45,0,0,0-.17-0.86h-10.12A17.16,17.16,0,0,1,2409.11,423a17.32,17.32,0,0,1-.43-3.36,0.44,0.44,0,0,0-.44-0.44h-7c-0.47,0-.94,0-1.4.07h-0.06c-0.46,0-.93-0.07-1.4-0.07h2.86a17,17,0,0,0,7.3-1.65,0.45,0.45,0,0,0,.25-0.36,17.15,17.15,0,0,1,9.29-13.28,0.45,0.45,0,0,0,.25-0.36q0.06-.75.07-1.51a17.1,17.1,0,0,0-5.72-12.78,0.45,0.45,0,0,0-.67.1,17.12,17.12,0,0,1-14.31,7.73h-21.18a0.45,0.45,0,0,0-.16.87,17.14,17.14,0,0,1,4.84,28.69,0.44,0.44,0,0,0-.11.53q1.57,3.1,3.28,6.1a132.3,132.3,0,0,0,14.06,20l0.2,0.24c0.4,0,.79,0,1.18-0.06s0.95,0.07,1.43.07h-1.61a0.45,0.45,0,0,0-.34.74q0.88,1,1.79,2a132.75,132.75,0,0,0,17.84,16.4l0.51,0a17.06,17.06,0,0,1,8.12-2.05h9.89c0-.17,0-0.33,0-0.5s0-.39,0-0.58a17,17,0,0,1-12.16-16.07c0-.11,0-0.22,0-0.33A17.15,17.15,0,0,1,2436.12,437.25Z" transform="translate(-2365.97 -234.8)"/><path class="cls-3" d="M2606.51,422.66a16.8,16.8,0,0,1-10.26-3.43l-0.15-.11c-0.31-.24-0.62-0.49-0.91-0.75a17.12,17.12,0,0,1,3.87-28.3,17.09,17.09,0,0,1-2.55-5.08l0-.07a17.17,17.17,0,0,1,12-21.51A17.09,17.09,0,0,1,2606,363h-25.5a17,17,0,0,1-9-2.56,17.12,17.12,0,0,1-14,7.3h-40.17a17.15,17.15,0,0,0,17.15,17.15H2511a17.15,17.15,0,0,0-17.15,17.15c0,0.28,0,.55,0,0.83A17.15,17.15,0,0,1,2506,418.47c0.36,0.11.72,0.2,1.08,0.29a17.15,17.15,0,0,1,3.33.44l0.63,0h0a17.22,17.22,0,0,1,16.28-22.54h34.31a17.1,17.1,0,0,1,16.53,21.68c0,0.09,0,.19-0.07.28s0,0.21-.08.31-0.07.18-.1,0.27A17.15,17.15,0,0,1,2561.64,431h-14.39a17.11,17.11,0,0,1-9.83,21.35,17.18,17.18,0,0,0,3.33.33h17.73a17.14,17.14,0,0,0-2.47,34.11,132.22,132.22,0,0,0,33.54-23.08,17.16,17.16,0,0,1-12.52-11l0-.12a17.1,17.1,0,0,1,13.27-22.5c0.33-.06.65-0.11,1-0.15a17.29,17.29,0,0,1,1.94-.12h22.24c1.12-2.1,2.2-4.23,3.21-6.4,0.11-.24.22-0.49,0.33-0.73h-12.45Z" transform="translate(-2365.97 -234.8)"/><path class="cls-3" d="M2560.26,333.13c0,0.19,0,.38,0,0.58a17,17,0,0,1,6.26,2.33,17.23,17.23,0,0,1,2.21-2.57h-5.07A17.22,17.22,0,0,1,2560.26,333.13Z" transform="translate(-2365.97 -234.8)"/><path class="cls-3" d="M2545.33,317.17h1.19c0-.14,0-0.29,0-0.43h-5A17.1,17.1,0,0,0,2545.33,317.17Z" transform="translate(-2365.97 -234.8)"/><path class="cls-3" d="M2597.93,299.16a17.15,17.15,0,0,1,17.15,17.15c0,0.27,0,.54,0,0.8,0,0.11,0,.23,0,0.34v0.07c0,0.17,0,.34,0,0.5a17.09,17.09,0,0,1-5.25,10.7h5.07a17.16,17.16,0,0,1,3.86.45h6.47c-0.85-2.79-1.78-5.55-2.81-8.27q-0.55-1.45-1.14-2.88l-0.23-.57c-0.21-.51-0.42-1-0.64-1.53a131.82,131.82,0,0,0-15-26.21,17.11,17.11,0,0,1-15.31,9.44h7.91Z" transform="translate(-2365.97 -234.8)"/><path class="cls-3" d="M2535.21,256.85a17.07,17.07,0,0,1,2,8h44.34a132.15,132.15,0,0,0-21.33-14q-2.28-1.2-4.61-2.31h-30.22A17.19,17.19,0,0,1,2535.21,256.85Z" transform="translate(-2365.97 -234.8)"/><path class="cls-4" d="M2400.61,363.08a17.19,17.19,0,0,0-2.91-.27h-13a17.27,17.27,0,0,0,11.53-7.19c0.12-.17.22-0.34,0.34-0.51a17.14,17.14,0,0,0-14.44-26.39h-9.28a131.29,131.29,0,0,0-4.77,21.89q-0.28,2.15-.49,4.32c-0.25,2.61-.42,5.24-0.52,7.89V363c-0.06,1.57-.1,3.15-0.1,4.74,0,4.33.22,8.61,0.62,12.84q0.21,2.17.49,4.32c0.52,4,1.23,7.92,2.1,11.79l0.09,0.41a130.88,130.88,0,0,0,7.12,22.11q1.66,3.91,3.56,7.68a17.13,17.13,0,0,0-4.36-28.82,0.5,0.5,0,0,1,.2-1h20.91a17.25,17.25,0,0,0,16.42-12.2v0A17.12,17.12,0,0,0,2400.61,363.08Z" transform="translate(-2365.97 -234.8)"/><path class="cls-4" d="M2399.37,281.16l-0.72.84a132.41,132.41,0,0,0-11.14,15.06h11.75A17.13,17.13,0,0,0,2412,268.48,132.65,132.65,0,0,0,2399.37,281.16Z" transform="translate(-2365.97 -234.8)"/><path class="cls-4" d="M2591.25,429.91c-0.33,0-.66.09-1,0.15a17.1,17.1,0,0,0-13.27,22.5l0,0.12a17.16,17.16,0,0,0,12.52,11,132.83,132.83,0,0,0,9.41-9.86l1-1.17,0.84-1a132,132,0,0,0,14.63-21.89h-22.24A17.29,17.29,0,0,0,2591.25,429.91Z" transform="translate(-2365.97 -234.8)"/><path class="cls-4" d="M2630.83,363.48c0-.22,0-0.44,0-0.67q-0.18-4.66-.67-9.24c-0.07-.61-0.12-1.22-0.19-1.82,0-.38-0.09-0.76-0.14-1.14q-0.71-5.51-1.88-10.86c-0.48-2.23-1-4.43-1.63-6.61-0.36-1.33-.74-2.66-1.14-4h-6.47a17.16,17.16,0,0,0-3.86-.45h-5.07l-0.52.47a17.06,17.06,0,0,1-10.64,4.23c-0.22,0-.43,0-0.66,0h-29.24a17.23,17.23,0,0,0-2.21,2.57,17.12,17.12,0,0,1,8.15,14.58c0,0.21,0,.42,0,0.63s0,0.26,0,.39a17,17,0,0,1-3.07,8.83,17,17,0,0,0,9,2.56H2606a17.09,17.09,0,0,0,2.48.38,17.13,17.13,0,0,0-12,21.51l0,0.07a17.09,17.09,0,0,0,2.55,5.08,17.05,17.05,0,0,1,7.45-1.72h22.79c0.18-1.14.35-2.28,0.5-3.43a133.19,133.19,0,0,0,1.11-17.15C2630.9,366.34,2630.88,364.91,2630.83,363.48Z" transform="translate(-2365.97 -234.8)"/><path class="cls-4" d="M2578,419c0-.1.05-0.2,0.08-0.31s0-.19.07-0.28a17.1,17.1,0,0,0-16.53-21.68h-34.31a17.13,17.13,0,0,0-16.28,22.54l0,0.07H2531a17.16,17.16,0,0,1,16.25,11.7h14.39a17.15,17.15,0,0,0,16.28-11.77C2578,419.14,2578,419.05,2578,419Z" transform="translate(-2365.97 -234.8)"/><path class="cls-5" d="M2566.49,336a17,17,0,0,0-6.26-2.33,17.19,17.19,0,0,0-2.75-.24H2527c0,0.08,0,.16,0,0.24a17.15,17.15,0,0,1-17.15,17.15h-25.65a17.15,17.15,0,0,0,17.14,16.91h56.18a17.14,17.14,0,0,0,17.1-16.13c0-.13,0-0.26,0-0.39s0-.42,0-0.63A17.12,17.12,0,0,0,2566.49,336Z" transform="translate(-2365.97 -234.8)"/><path class="cls-5" d="M2439,436.38a17.16,17.16,0,0,0-13.79,16.82c0,0.11,0,.22,0,0.33a17,17,0,0,0,12.16,16.07A17.21,17.21,0,0,1,2454.56,453h17.58A17.15,17.15,0,0,1,2455,436.46s0,0,0-.07,0-.22,0-0.33,0-.11,0-0.16a17.15,17.15,0,0,1,17.15-17.15H2506c0-.09,0-0.17,0-0.26a17.12,17.12,0,0,0-17.11-16.32h-27.3c-0.47,0-.95-0.07-1.43-0.07h-34.31a17.21,17.21,0,0,0-17.06,15.4,17.36,17.36,0,0,0-.09,1.76,17.18,17.18,0,0,0,17.15,17.15H2439Z" transform="translate(-2365.97 -234.8)"/><path class="cls-5" d="M2496.69,453.61a17.19,17.19,0,0,1-2.82-.25q-0.76-.13-1.5-0.32h-3.5A17.16,17.16,0,0,1,2506,470.19h9.54a17.14,17.14,0,0,0,17.13-16.67c-0.56.05-1.12,0.09-1.7,0.09h-34.31Z" transform="translate(-2365.97 -234.8)"/><path class="cls-5" d="M2449.6,296.38a17.06,17.06,0,0,0,10.54,3.64h15.78a17.07,17.07,0,0,0-11.29,20.43,17.08,17.08,0,0,1,10.88-3.9h34.31a17.14,17.14,0,0,1,16.63,13,17.11,17.11,0,0,0,6.25-12.83h-9.09a17.16,17.16,0,0,1-3.82-.44h-17A17.14,17.14,0,0,1,2485.69,300c0-.29,0-0.57,0-0.86h0A17.28,17.28,0,0,1,2502.56,282h-16.83a17.13,17.13,0,0,1-17.11-16.3h-8.49a17.22,17.22,0,0,0-17.08,15.79c0,0.17,0,.34,0,0.51s0,0.57,0,.86A17.38,17.38,0,0,0,2449.6,296.38Z" transform="translate(-2365.97 -234.8)"/><path class="cls-5" d="M2537.11,282c0.49,0,1,0,1.46.07a17.1,17.1,0,0,1,2.36.37h17A17.13,17.13,0,0,1,2575,299.16c0,0.14,0,.28,0,0.43a17.19,17.19,0,0,1-17.15,17.15h-11.41c0,0.14,0,.29,0,0.43a17.13,17.13,0,0,0,17.11,16.3h34.31c0.22,0,.44,0,0.66,0a17.06,17.06,0,0,0,10.64-4.23l0.52-.47A17.09,17.09,0,0,0,2615,318c0-.17,0-0.34,0-0.5v-0.07c0-.11,0-0.23,0-0.34,0-.27,0-0.53,0-0.8a17.15,17.15,0,0,0-17.15-17.15H2590a17.11,17.11,0,0,0,15.31-9.44c-1.5-2-3-4-4.65-6l-0.73-.86q-2-2.36-4.08-4.63a132.72,132.72,0,0,0-14.34-13.38h-44.34A17.24,17.24,0,0,1,2537,267a17.16,17.16,0,0,1-16.76,15h16.83Z" transform="translate(-2365.97 -234.8)"/><path class="cls-5" d="M2468.58,264.81a17.15,17.15,0,0,1,17.15-17.11h28.71a17.15,17.15,0,0,1-16.32-11.89,131.65,131.65,0,0,0-42.4,7.24A17.15,17.15,0,0,0,2468.58,264.81Z" transform="translate(-2365.97 -234.8)"/><path class="cls-5" d="M2523.6,248c0-.11,0-0.22,0-0.33H2520a17.21,17.21,0,0,1,3.56.38S2523.6,248,2523.6,248Z" transform="translate(-2365.97 -234.8)"/><path class="cls-5" d="M2613.36,388.36h-6.86a17.14,17.14,0,0,0-11.32,30c0.29,0.26.6,0.51,0.91,0.75l0.15,0.11a16.8,16.8,0,0,0,10.26,3.43H2619c0.52-1.14,1-2.28,1.53-3.43l0.35-.86a131.1,131.1,0,0,0,6.77-21.25q1-4.33,1.69-8.77h-15.93Z" transform="translate(-2365.97 -234.8)"/><path class="cls-5" d="M2473.9,487.35h-19.34a17.11,17.11,0,0,1-17.13-16.66h-9.89a17.06,17.06,0,0,0-8.37,2.19,132,132,0,0,0,17.37,11.2q3.72,2,7.58,3.77a131.08,131.08,0,0,0,31.74,9.87,17.06,17.06,0,0,0,3.14-9.87c0-.17,0-0.33,0-0.5h-5.08Z" transform="translate(-2365.97 -234.8)"/><path class="cls-6" d="M2575,299.16a17.07,17.07,0,0,0-4-10.57,17.26,17.26,0,0,0-2-2,17.25,17.25,0,0,0-11.14-4.12h-17a17.1,17.1,0,0,0-2.36-.37c-0.48,0-1-.07-1.46-0.07h-16.83a17.15,17.15,0,0,0-.24-34.29h28.71a17.15,17.15,0,0,0,3.92-.47,131.11,131.11,0,0,0-32.72-9.75,132.76,132.76,0,0,0-21-1.68h-0.81a17.15,17.15,0,0,0,16.32,11.89h-28.71a17.15,17.15,0,0,0-17.15,17.11s0,0,0,0c0,0.29,0,.57,0,0.86a17.13,17.13,0,0,0,17.11,16.3h16.83a17.28,17.28,0,0,0-16.91,17.14h0c0,0.29,0,.57,0,0.86a17.14,17.14,0,0,0,17.11,16.28h17a17.16,17.16,0,0,0,3.82.44h34.31a17.19,17.19,0,0,0,17.15-17.15C2575.06,299.44,2575,299.3,2575,299.16Z" transform="translate(-2365.97 -234.8)"/><path class="cls-6" d="M2534.33,419.63a17.22,17.22,0,0,0-3.33-.33h-20.23l-0.37-.1a17.15,17.15,0,0,0-3.33-.44c-0.2,0-.41,0-0.61,0h-34.31A17.15,17.15,0,0,0,2455,435.89c0,0.06,0,.11,0,0.16s0,0.22,0,.33,0,0,0,.07A17.15,17.15,0,0,0,2472.14,453h-17.58a17.15,17.15,0,0,0-17.12,16.57c0,0.2,0,.39,0,0.58s0,0.33,0,.5a17.21,17.21,0,0,0,17.13,16.66h34.31a17.15,17.15,0,0,0,0-34.31h3.5q0.74,0.19,1.5.32a17.19,17.19,0,0,0,2.82.25H2531c0.57,0,1.14,0,1.7-.09A17.15,17.15,0,0,0,2534.33,419.63Z" transform="translate(-2365.97 -234.8)"/><path class="cls-6" d="M2475.51,350.86h34.31A17.15,17.15,0,0,0,2527,333.71c0-.08,0-0.16,0-0.24a17.19,17.19,0,0,0-17.14-16.91h-34.31A17.15,17.15,0,0,0,2475.51,350.86Z" transform="translate(-2365.97 -234.8)"/></svg>