<?xml version="1.0" standalone="no"?>
<!DOCTYPE svg PUBLIC "-//W3C//DTD SVG 20010904//EN"
 "http://www.w3.org/TR/2001/REC-SVG-20010904/DTD/svg10.dtd">
<svg version="1.0" xmlns="http://www.w3.org/2000/svg"
 width="700.000000pt" height="700.000000pt" viewBox="0 0 700.000000 700.000000"
 preserveAspectRatio="xMidYMid meet">
<metadata>
Created by potrace 1.11, written by Peter Selinger 2001-2013
</metadata>
<g transform="translate(0.000000,700.000000) scale(0.100000,-0.100000)"
fill="#000000" stroke="none">
<path d="M3298 6995 c-2 -1 -41 -5 -88 -9 -100 -7 -225 -22 -295 -36 -27 -5
-61 -12 -75 -14 -431 -79 -908 -273 -1275 -519 -69 -46 -297 -217 -305 -228
-3 -3 -25 -23 -50 -44 -85 -70 -216 -201 -361 -361 -162 -178 -362 -482 -491
-744 -109 -221 -225 -542 -263 -728 -2 -9 -8 -37 -14 -62 -13 -58 -48 -269
-57 -340 -13 -113 -28 -400 -20 -400 2 0 49 51 103 112 202 232 512 526 703
668 18 14 63 48 100 76 286 219 704 452 1060 591 176 68 520 175 605 188 11 2
43 8 70 14 59 13 89 18 170 32 33 5 71 12 85 14 14 3 50 7 80 10 30 3 66 8 80
10 153 26 717 26 890 0 14 -2 78 -11 144 -20 449 -61 990 -238 1385 -454 52
-28 95 -51 97 -51 2 0 45 -25 96 -57 51 -31 102 -61 113 -67 21 -12 233 -154
250 -168 19 -16 82 -63 110 -83 53 -38 270 -219 340 -285 109 -102 293 -288
367 -370 116 -131 128 -145 128 -152 0 -5 5 -8 11 -8 13 0 3 261 -16 400 -3
19 -7 56 -10 81 -3 25 -7 54 -9 65 -2 10 -11 60 -21 109 -85 456 -276 915
-543 1305 -57 84 -195 266 -212 280 -3 3 -30 34 -60 69 -299 347 -754 683
-1181 872 -255 112 -590 217 -814 253 -54 9 -239 35 -295 41 -56 7 -526 16
-532 10z"/>
<path d="M3387 4724 c-1 -1 -56 -5 -122 -9 -66 -4 -127 -9 -136 -10 -9 -2 -40
-6 -70 -10 -30 -3 -65 -8 -79 -10 -14 -3 -39 -7 -56 -10 -41 -6 -163 -31 -244
-49 -377 -85 -877 -313 -1218 -557 -81 -59 -213 -160 -238 -184 -6 -5 -43 -37
-82 -70 -39 -33 -128 -117 -198 -188 l-127 -127 139 -138 c76 -76 171 -165
209 -198 67 -58 273 -218 307 -239 9 -5 51 -34 93 -63 41 -28 78 -52 81 -52 3
0 24 -13 47 -28 23 -16 94 -56 157 -89 459 -243 927 -376 1430 -409 177 -12
504 -6 590 11 12 2 48 7 79 11 54 6 68 8 121 19 14 2 44 7 67 10 130 18 537
137 673 197 152 67 196 88 300 141 140 72 204 109 208 119 2 4 9 8 14 8 9 0
175 106 223 142 98 74 224 173 275 217 105 89 339 325 340 341 0 14 -246 263
-324 328 -28 23 -192 156 -211 170 -307 232 -671 424 -1035 546 -132 44 -338
99 -412 110 -21 3 -57 10 -80 15 -44 10 -84 16 -173 26 -27 4 -57 8 -65 10
-38 9 -474 26 -483 19z m213 -344 c43 -85 113 -267 126 -325 1 -5 10 -41 19
-80 38 -159 50 -268 50 -470 0 -182 -8 -272 -36 -415 -7 -30 -12 -59 -13 -65
-1 -5 -5 -19 -9 -30 -3 -11 -8 -31 -11 -45 -7 -40 -65 -199 -102 -280 -38 -83
-113 -210 -123 -210 -9 0 -63 85 -99 155 -100 199 -166 429 -189 660 -14 133
-5 527 13 556 2 3 8 35 14 71 29 183 130 448 227 594 l36 54 34 -58 c19 -31
47 -82 63 -112z"/>
<path d="M5 3359 c3 -79 8 -164 11 -189 11 -99 25 -206 30 -230 2 -14 6 -38 9
-55 3 -16 8 -41 10 -55 3 -14 7 -34 9 -45 45 -233 156 -562 273 -802 449 -928
1279 -1611 2270 -1868 72 -19 142 -36 155 -39 13 -2 60 -11 106 -20 46 -9 111
-19 145 -22 34 -3 65 -8 68 -9 15 -10 227 -20 409 -20 188 0 341 8 430 21 144
21 295 48 345 61 33 8 67 16 75 18 109 22 388 117 549 187 121 53 308 148 353
179 14 11 29 19 33 19 24 0 383 257 495 355 119 104 294 279 365 365 21 25 41
47 44 50 18 12 182 236 247 336 272 419 469 946 529 1414 3 25 8 61 10 80 12
85 15 123 20 260 l5 145 -37 -40 c-21 -22 -63 -69 -93 -105 -144 -170 -508
-511 -700 -655 -36 -27 -67 -52 -70 -56 -3 -3 -68 -49 -145 -101 -162 -111
-333 -215 -455 -277 -47 -24 -89 -47 -95 -51 -40 -31 -401 -180 -585 -243
-130 -44 -412 -120 -497 -133 -21 -3 -67 -12 -103 -19 -36 -8 -92 -16 -125
-20 -33 -4 -67 -8 -75 -10 -8 -3 -37 -7 -65 -9 -27 -3 -81 -8 -120 -12 -95
-10 -560 -10 -665 -1 -47 4 -120 12 -162 18 -43 5 -90 12 -105 13 -42 6 -100
16 -183 33 -41 8 -88 17 -105 20 -109 16 -453 121 -645 196 -283 110 -592 271
-845 440 -92 62 -330 235 -375 273 -14 12 -74 64 -135 115 -167 143 -424 403
-578 587 l-38 46 6 -145z"/>
</g>
</svg>
