<svg id="Layer_30" data-name="Layer 30" xmlns="http://www.w3.org/2000/svg" viewBox="0 0 117.37 117.37"><defs><style>.cls-1{fill:#f6ddbd;stroke:#f6ddbd;}.cls-1,.cls-2{stroke-miterlimit:10;stroke-width:2px;}.cls-2{fill:#ccba99;stroke:#ccba99;}</style></defs><title>pluto</title><g id="Pluto"><path class="cls-1" d="M524.46,1948.63a9.63,9.63,0,0,1,7.67-9.43L532,1939H519.29a9.62,9.62,0,0,1-4.09-18.34,57.4,57.4,0,0,0-33.11-10.46,58,58,0,0,0-9.74.84,9.63,9.63,0,0,1-9.59,8.79H450.18a58,58,0,0,0-18.08,19.28,9.62,9.62,0,0,1-1.36,19.15h13.4a9.63,9.63,0,0,1,0,19.26h-6.57a9.63,9.63,0,1,1,0,19.26h3.23a9.62,9.62,0,0,1,6.26,16.94,57.64,57.64,0,0,0,64,4.06,9.63,9.63,0,0,1,3.78-18.48h15.64a57.4,57.4,0,0,0,9.31-31.4,58,58,0,0,0-.82-9.63h-4.88A9.63,9.63,0,0,1,524.46,1948.63ZM457,1939a9.63,9.63,0,0,1,9.63-9.63h19.26a9.63,9.63,0,0,1,0,19.26H466.61A9.63,9.63,0,0,1,457,1939Zm57.85,38.52h-9.7a9.63,9.63,0,1,1,0,19.26H472.46a9.63,9.63,0,1,1,0-19.26h10.89a9.63,9.63,0,0,1,0-19.26h31.48A9.63,9.63,0,0,1,514.83,1977.52Z" transform="translate(-423.4 -1909.2)"/><path class="cls-2" d="M444.14,1958.26h-13.4a9.62,9.62,0,0,0,1.36-19.15,57.28,57.28,0,0,0-6.88,19.15,57.26,57.26,0,0,0,0,19.26,57.28,57.28,0,0,0,6.95,19.26,58,58,0,0,0,14.9,16.94,9.62,9.62,0,0,0-6.26-16.94h-3.23a9.63,9.63,0,1,0,0-19.26h6.57A9.63,9.63,0,0,0,444.14,1958.26Z" transform="translate(-423.4 -1909.2)"/><path class="cls-2" d="M514.76,1987.15a9.63,9.63,0,0,0-9.63-9.63h9.7a9.63,9.63,0,0,0,0-19.26H483.35a9.63,9.63,0,0,0,0,19.26H472.46a9.63,9.63,0,1,0,0,19.26h32.67A9.63,9.63,0,0,0,514.76,1987.15Z" transform="translate(-423.4 -1909.2)"/><path class="cls-2" d="M505.2,2008.92a9.63,9.63,0,0,0,5.85,8.86,58,58,0,0,0,19.43-18.48H514.83A9.63,9.63,0,0,0,505.2,2008.92Z" transform="translate(-423.4 -1909.2)"/><path class="cls-2" d="M532.13,1939.2a9.63,9.63,0,0,0,2,19.06H539A57.28,57.28,0,0,0,532.13,1939.2Z" transform="translate(-423.4 -1909.2)"/><path class="cls-2" d="M485.87,1948.63a9.63,9.63,0,0,0,0-19.26H466.61a9.63,9.63,0,0,0,0,19.26h19.26Z" transform="translate(-423.4 -1909.2)"/><path class="cls-2" d="M519.29,1939H532a58,58,0,0,0-16.81-18.34A9.62,9.62,0,0,0,519.29,1939Z" transform="translate(-423.4 -1909.2)"/><path class="cls-2" d="M472.35,1911a57.34,57.34,0,0,0-22.16,8.79h12.58A9.63,9.63,0,0,0,472.35,1911Z" transform="translate(-423.4 -1909.2)"/></g></svg>