<svg id="Saturn" xmlns="http://www.w3.org/2000/svg" viewBox="0 0 628.62 628.62"><defs><style>.cls-1{fill:#eec87d;stroke:#eec87d;}.cls-1,.cls-2,.cls-3,.cls-4,.cls-5{stroke-miterlimit:10;}.cls-1,.cls-2,.cls-3{stroke-width:2px;}.cls-2{fill:#dda55a;stroke:#dda55a;}.cls-3{fill:#c68a4a;stroke:#c68a4a;}.cls-4,.cls-5{fill:none;}.cls-4{stroke:#f7e3bf;stroke-width:50px;}.cls-5{stroke:#ddc0a2;stroke-width:30px;}</style></defs><title>saturn</title><path class="cls-1" d="M1487.43,1887.81H1512a22.37,22.37,0,0,1,0-44.74h40.84a22.37,22.37,0,0,1,0-44.74h-20.4a22.37,22.37,0,0,1,0-44.74h20.4a22.37,22.37,0,0,1-5.34-44.09c0-.22,0-0.43,0-0.65h-57a22.37,22.37,0,1,1,0-44.74H1512a22.37,22.37,0,0,1,0-44.74h-45a22.37,22.37,0,0,1-7.94-43.29h-0.19a22.37,22.37,0,0,1-22.35-21.63,192.85,192.85,0,0,0-72.68-.74,22.37,22.37,0,0,1-20.35,31.65h-55.19q-2.53,1.78-5,3.64a22.37,22.37,0,0,1-12.22,41.1h7a22.37,22.37,0,1,1,0,44.74h-26.8a22.37,22.37,0,1,1,0,44.74h69.19a22.37,22.37,0,0,1,0,44.74H1271.1a22.37,22.37,0,0,1,0,44.74h25.14a22.37,22.37,0,0,1,0,44.74h24.22a22.37,22.37,0,0,1,0,44.74h31.27a22.37,22.37,0,0,1,19.76,32.87,192.93,192.93,0,0,0,26.81,1.88,190.85,190.85,0,0,0,69.23-12.92A22.37,22.37,0,0,1,1487.43,1887.81Zm-161-215.43c0-.31,0-0.63,0-0.94a22.37,22.37,0,0,1,6.41-43.81h14.6a22.37,22.37,0,0,1,10.2-42.28h33a22.37,22.37,0,1,1,0,44.74H1376a22.36,22.36,0,0,1,12.17,19.91h46.77a22.37,22.37,0,0,1,15.59,38.4,22.37,22.37,0,0,1-21.45,28.71h-33a22.37,22.37,0,0,1-22.37-22.37h-25A22.37,22.37,0,0,1,1326.39,1672.38Zm104.29,203.8a22.37,22.37,0,0,1-22.37,22.37h-33a22.37,22.37,0,0,1,0-44.74h17.35a22.37,22.37,0,0,1-22.37-22.37h-10.71a22.37,22.37,0,1,1,0-44.74h33.08a22.37,22.37,0,0,1,0-44.74h86.15a22.37,22.37,0,0,1,4.64,44.26c0,0.16,0,.32,0,0.49v0a22.37,22.37,0,0,1,1.11,44.62s0,0.06,0,.09a22.37,22.37,0,0,1-22.37,22.37h-33c-0.61,0-1.22,0-1.82-.08s-1.21.08-1.82,0.08h-17.35A22.37,22.37,0,0,1,1430.68,1876.17Z" transform="translate(-1083.76 -1427.64)"/><path class="cls-2" d="M1484.63,1831.34a22.37,22.37,0,0,0-1.11-44.62,22.37,22.37,0,0,1-22.37,22.35h1.12A22.37,22.37,0,0,1,1484.63,1831.34Z" transform="translate(-1083.76 -1427.64)"/><path class="cls-2" d="M1365.89,1563a22.28,22.28,0,0,0-2-9.28,190.3,190.3,0,0,0-75.54,31.65h55.19A22.37,22.37,0,0,0,1365.89,1563Z" transform="translate(-1083.76 -1427.64)"/><path class="cls-2" d="M1351.72,1898.54h-31.27a22.37,22.37,0,0,0,0-44.74h-24.22a22.37,22.37,0,0,0,0-44.74H1271.1a22.37,22.37,0,0,0,0-44.74h49.36a22.37,22.37,0,0,0,0-44.74h-69.19a22.37,22.37,0,1,0,0-44.74h26.8a22.37,22.37,0,1,0,0-44.74h-7a22.37,22.37,0,0,0,12.22-41.1,191.86,191.86,0,0,0-64.26,85.84,189.7,189.7,0,0,0-6.83,22.37h8.62a22.37,22.37,0,0,1,0,44.74h16.25a22.37,22.37,0,0,1,0,44.74h-24.87a188.62,188.62,0,0,0,16.92,44.74h30.55a22.37,22.37,0,0,1,2.15,44.64,192.28,192.28,0,0,0,26.48,22.48,190.26,190.26,0,0,0,83.15,32.87A22.37,22.37,0,0,0,1351.72,1898.54Z" transform="translate(-1083.76 -1427.64)"/><path class="cls-2" d="M1405.81,1786.69a22.37,22.37,0,0,1,22.37-22.37h33a22.37,22.37,0,0,1,22.36,21.88,22.37,22.37,0,0,0-4.64-44.26H1392.7a22.37,22.37,0,0,0,0,44.74h-33.08a22.37,22.37,0,1,0,0,44.74h10.71a22.38,22.38,0,0,1,22.37-22.37h33c0.61,0,1.22,0,1.82.08s1.21-.08,1.82-0.08h-1.12A22.37,22.37,0,0,1,1405.81,1786.69Z" transform="translate(-1083.76 -1427.64)"/><path class="cls-2" d="M1467,1619.36h45a22.37,22.37,0,0,0,0,44.74h-21.51a22.37,22.37,0,1,0,0,44.74h57a22.37,22.37,0,0,1,22.37-22.37H1536.4a22.37,22.37,0,0,1,0-44.74h24.9a191.92,191.92,0,0,0-67.74-65.73c-0.56,0-1.13.07-1.7,0.07h-32.77A22.37,22.37,0,0,0,1467,1619.36Z" transform="translate(-1083.76 -1427.64)"/><path class="cls-2" d="M1589.32,1731.21h-19.43a22.37,22.37,0,0,1-22.35-21.72,22.37,22.37,0,0,0,5.34,44.09h-20.4a22.37,22.37,0,0,0,0,44.74h20.4a22.37,22.37,0,0,0,0,44.74H1512a22.37,22.37,0,0,0,0,44.74h-24.61a22.37,22.37,0,0,0-19.91,32.57,191.6,191.6,0,0,0,108-106.36h-0.4a22.37,22.37,0,0,1,0-44.74h12.5c0.74-5.17,1.28-10.39,1.6-15.69,0.23-3.85.36-7.73,0.36-11.63C1589.63,1738.35,1589.52,1734.77,1589.32,1731.21Z" transform="translate(-1083.76 -1427.64)"/><path class="cls-2" d="M1332.82,1672.38a22.36,22.36,0,0,1-6.41-.94c0,0.31,0,.62,0,0.94a22.37,22.37,0,0,0,22.37,22.37h25a22.37,22.37,0,0,1,22.37-22.37h33a22.38,22.38,0,0,1,21.45,16,22.37,22.37,0,0,0-15.59-38.4h-46.77a22.37,22.37,0,0,1-22.37,22.37h-33Z" transform="translate(-1083.76 -1427.64)"/><path class="cls-3" d="M1259.47,1764.32A22.37,22.37,0,0,0,1237.1,1742h-16.25a22.37,22.37,0,0,0,0-44.74h-8.62a190.79,190.79,0,0,0-4,22.37,191.85,191.85,0,0,0,0,44.74,190.79,190.79,0,0,0,4,22.37h24.87A22.37,22.37,0,0,0,1259.47,1764.32Z" transform="translate(-1083.76 -1427.64)"/><path class="cls-3" d="M1468.13,1809.85a22.38,22.38,0,0,0-5.87-.78h-1.12a22.37,22.37,0,0,0,22.37-22.35v0c0-.16,0-0.32,0-0.49a22.37,22.37,0,0,0-22.36-21.88h-33a22.37,22.37,0,0,0,0,44.74h1.12c-0.61,0-1.22,0-1.82.08s-1.21-.08-1.82-0.08h-33a22.37,22.37,0,0,0,0,44.74h-17.35a22.37,22.37,0,0,0,0,44.74h33a22.37,22.37,0,1,0,0-44.74h17.35c0.61,0,1.22,0,1.82-.08s1.21,0.08,1.82.08h33a22.37,22.37,0,0,0,22.37-22.37s0-.06,0-0.09A22.38,22.38,0,0,0,1468.13,1809.85Z" transform="translate(-1083.76 -1427.64)"/><path class="cls-3" d="M1388.14,1650A22.36,22.36,0,0,0,1376,1630.1h14.6a22.37,22.37,0,1,0,0-44.74h-33a22.37,22.37,0,0,0-10.2,42.28h-14.6a22.37,22.37,0,1,0,0,44.74h33A22.37,22.37,0,0,0,1388.14,1650Z" transform="translate(-1083.76 -1427.64)"/><path class="cls-3" d="M1569.89,1731.21h19.43a192.33,192.33,0,0,0-2.55-22.37c-0.13-.74-0.27-1.47-0.4-2.2a190.18,190.18,0,0,0-4.93-20.17q-0.45-1.5-.93-3a188.65,188.65,0,0,0-19.21-41.76h-24.9a22.37,22.37,0,0,0,0,44.74h33.49a22.37,22.37,0,0,0-22.37,22.37c0,0.22,0,.43,0,0.65A22.37,22.37,0,0,0,1569.89,1731.21Z" transform="translate(-1083.76 -1427.64)"/><path class="cls-3" d="M1552.8,1791.64a22.35,22.35,0,0,0,22.37,22.37h0.4c2.09-5.12,4-10.35,5.62-15.69a189.9,189.9,0,0,0,6.48-29.06h-12.5A22.37,22.37,0,0,0,1552.8,1791.64Z" transform="translate(-1083.76 -1427.64)"/><path class="cls-3" d="M1259.7,1831.43h-30.55a190.84,190.84,0,0,0,32.7,44.64A22.37,22.37,0,0,0,1259.7,1831.43Z" transform="translate(-1083.76 -1427.64)"/><path class="cls-3" d="M1436.55,1554.45a22.37,22.37,0,0,0,22.35,21.63h33c0.57,0,1.14,0,1.7-.07-0.81-.46-1.61-0.93-2.42-1.38A190.15,190.15,0,0,0,1436.55,1554.45Z" transform="translate(-1083.76 -1427.64)"/><path class="cls-3" d="M1373.72,1694.75a22.37,22.37,0,0,0,22.37,22.37h33a22.37,22.37,0,1,0,0-44.74h-33A22.37,22.37,0,0,0,1373.72,1694.75Z" transform="translate(-1083.76 -1427.64)"/><g id="Rings"><circle class="cls-4" cx="314.31" cy="314.31" r="247.97"/><circle class="cls-5" cx="314.31" cy="314.31" r="299.31"/></g></svg>