<svg id="Sun" xmlns="http://www.w3.org/2000/svg" viewBox="0 0 677.72 677.72"><defs><style>.cls-1{fill:#ffdb4c;stroke:#ffea4c;}.cls-1,.cls-2,.cls-3,.cls-4,.cls-5{stroke-miterlimit:10;stroke-width:2px;}.cls-2{fill:#ffcc4c;stroke:#ffcc4c;}.cls-3{fill:#ffae4c;stroke:#ffae4c;}.cls-4{fill:#ff773d;stroke:#ff773d;}.cls-5{fill:#f55536;stroke:#f55536;}</style></defs><title>sun</title><path class="cls-1" d="M3586.26,634.59h46.52c0-.33,0-0.65,0-1a50,50,0,0,1,8.39-99v0h5a50,50,0,0,1,50-50h62.15a50,50,0,0,1-31.83-74.33,50,50,0,0,1-18.9-75.78,49.84,49.84,0,0,1-3.42-18.16c0-.5,0-1,0-1.5h-7.94v0a50,50,0,0,1,0-99.93v0h-45.78v0a50,50,0,0,1-48.7-50h-13.85a50,50,0,0,1-1.53-100,339.11,339.11,0,0,0-216.79-20.74,50,50,0,0,1-41.76,75.59v0h-4.55a50,50,0,0,1-38.42,48.64c0,0.45,0,.91,0,1.36a50,50,0,0,1-48.81,50v0h-18a50,50,0,0,1-12.81,98v0h-8.36s0,0,0,.06h81.19v0a50,50,0,0,1,0,99.94v0h-14a50,50,0,0,1-50,50h-17.73v0.08a50,50,0,0,1,43.79,49.6c0,0.67,0,1.34-.05,2h15.47v0a50,50,0,0,1,0,99.94v0h72.24v0a50,50,0,0,1,37.78,81.29,339.68,339.68,0,0,0,172.57-2.32A50,50,0,0,1,3586.26,634.59ZM3304.44,218.71a50,50,0,0,1,48.7-50v0h15.23a50,50,0,0,1,50-49h66.3v0.1c1-.06,2-0.1,3-0.1a50,50,0,0,1,50,50s0,0,0,.06a50,50,0,0,1,11.53,97.92h22.92v0a50,50,0,0,1,0,99.94v0h-41.33a50.22,50.22,0,0,1-10,1h-73.08a50.22,50.22,0,0,1-10-1h-35v0a50,50,0,0,1-48.7-50q0-2.28.2-4.51a50,50,0,0,1-26.56-52.35A49.93,49.93,0,0,1,3304.44,218.71Zm183.5,397.74h-100a50,50,0,0,1-50-50c0-1.43.07-2.85,0.19-4.26a50,50,0,0,1,15-91.52c-0.05-1-.09-1.93-0.09-2.9a50,50,0,0,1,50-50h142a50,50,0,0,1,37.78,82.73A56.17,56.17,0,0,1,3537.88,569,50,50,0,0,1,3487.94,616.45Z" transform="translate(-3108.68 -34.06)"/><path class="cls-2" d="M3264.15,417.77h14v0a50,50,0,0,0,0-99.94v0h-81.19a50,50,0,0,1-34.62,47.58q0.15,1.2.24,2.42h51.59A50,50,0,0,1,3264.15,417.77Z" transform="translate(-3108.68 -34.06)"/><path class="cls-2" d="M3196.93,317.71h8.36v0a50,50,0,0,0,12.81-98h18v0a50,50,0,0,0,48.81-50c0-.46,0-0.91,0-1.36a50.1,50.1,0,0,1-11.58,1.36h-42.79a49.89,49.89,0,0,1-38.37-18,338.33,338.33,0,0,0-44.78,65.94c-0.35.67-.7,1.34-1,2a335.12,335.12,0,0,0-19.95,48h20.54A50,50,0,0,1,3196.93,317.71Z" transform="translate(-3108.68 -34.06)"/><path class="cls-2" d="M3646.18,534.59h-5v0a50,50,0,0,0-8.39,99,50,50,0,0,1,50-49h13.39A50,50,0,0,1,3646.18,534.59Z" transform="translate(-3108.68 -34.06)"/><path class="cls-2" d="M3704.21,314.81a50,50,0,0,1,50-48.5h14a336,336,0,0,0-22-51.5h-22.5a50,50,0,0,1-50-50h-71.88a50,50,0,0,0,48.7,50v0h45.78v0a50,50,0,0,0,0,99.93v0h7.94Z" transform="translate(-3108.68 -34.06)"/><path class="cls-2" d="M3785.33,366.31h-31.16a50,50,0,0,1-46.58-31.84,50,50,0,0,0,18.9,75.78,50,50,0,0,1,43-24.41h15.7c0.16-4.29.26-8.59,0.26-12.92C3785.41,370.71,3785.38,368.51,3785.33,366.31Z" transform="translate(-3108.68 -34.06)"/><path class="cls-2" d="M3327.87,619.48v0h-72.24v0a50,50,0,0,0,0-99.94v0h-15.47a50,50,0,0,1-49.95,48c-1,0-2,0-3-.1v0.1h-15.92a338.69,338.69,0,0,0,194.36,133.32A50,50,0,0,0,3327.87,619.48Z" transform="translate(-3108.68 -34.06)"/><path class="cls-2" d="M3368.38,168.71h-15.23v0a50,50,0,0,0-25.59,92.11,50,50,0,0,1,49.38-42.13h31.39a50,50,0,0,1-40-49C3368.35,169.38,3368.37,169,3368.38,168.71Z" transform="translate(-3108.68 -34.06)"/><path class="cls-2" d="M3397.67,318.72h-20.74a49.76,49.76,0,0,1-22.82-5.52q-0.2,2.23-.2,4.51a50,50,0,0,0,48.7,50v0h35A50,50,0,0,1,3397.67,318.72Z" transform="translate(-3108.68 -34.06)"/><path class="cls-2" d="M3620.91,317.71a50,50,0,0,0-48.81-50v0h-22.92a50,50,0,0,1-14,2h-2.23q0,0.24,0,.49a50,50,0,0,1-2.13,97.5h41.33v0A50,50,0,0,0,3620.91,317.71Z" transform="translate(-3108.68 -34.06)"/><path class="cls-2" d="M3353.09,470.67a50,50,0,0,0-15,91.52,50,50,0,0,1,49.81-45.74h3.65A50,50,0,0,1,3353.09,470.67Z" transform="translate(-3108.68 -34.06)"/><path class="cls-2" d="M3537.94,566.45q0,1.26-.06,2.51a49.88,49.88,0,0,0,28.49-14.16,49.75,49.75,0,0,1-28.44,10.89C3537.93,565.94,3537.94,566.19,3537.94,566.45Z" transform="translate(-3108.68 -34.06)"/><path class="cls-2" d="M3323.32,119.72h4.55v0a50,50,0,0,0,41.76-75.59,335.42,335.42,0,0,0-78.07,29.06A50,50,0,0,1,3323.32,119.72Z" transform="translate(-3108.68 -34.06)"/><path class="cls-3" d="M3214.15,367.77h-51.59c0.1,1.27.16,2.55,0.16,3.85a49.94,49.94,0,0,1-40.41,49.07h24.21a50,50,0,0,1,49.91,47.08h17.73A50,50,0,0,0,3214.15,367.77Z" transform="translate(-3108.68 -34.06)"/><path class="cls-3" d="M3162.31,365.35a50,50,0,0,0,34.62-47.58s0,0,0-.06a50,50,0,0,0-50-49.94h-20.54a336.16,336.16,0,0,0-12.19,49.94v0.06c-0.21,1.29-.4,2.58-0.6,3.87A50,50,0,0,1,3162.31,365.35Z" transform="translate(-3108.68 -34.06)"/><path class="cls-3" d="M3545,417.77H3403a50,50,0,0,0-50,50c0,1,0,1.94.09,2.9a50,50,0,0,0,38.5,45.78h-3.65a50,50,0,0,0-49.81,45.74c-0.12,1.4-.19,2.82-0.19,4.26a50,50,0,0,0,50,50h100A50,50,0,0,0,3537.88,569q0.06-1.25.06-2.51c0-.26,0-0.51,0-0.77-0.92.05-1.85,0.08-2.79,0.08H3452.4a50,50,0,0,1-49.95-48c0-.43,0-0.87,0-1.31,0-.23,0-0.46,0-0.69a50,50,0,0,1,50-50h82.74a50,50,0,0,1,47.62,34.73A50,50,0,0,0,3545,417.77Z" transform="translate(-3108.68 -34.06)"/><path class="cls-3" d="M3769.45,385.84a50,50,0,0,0-11.13,98.74h-62.15a50,50,0,0,0,0,100h14.68a335.89,335.89,0,0,0,55.24-98.87c0.13-.38.28-0.75,0.41-1.13a335.87,335.87,0,0,0,16.32-69.77q1.77-14.31,2.33-29h-15.7Z" transform="translate(-3108.68 -34.06)"/><path class="cls-3" d="M3685.21,132.86q-9.49-9.4-19.69-18.05a338.22,338.22,0,0,0-79.12-50,50,50,0,0,0,1.53,100h85.73A49.79,49.79,0,0,1,3685.21,132.86Z" transform="translate(-3108.68 -34.06)"/><path class="cls-4" d="M3537.65,169.72a50,50,0,0,0-50-50c-1,0-2,0-3,.1v-0.1h-66.3a50,50,0,0,0-50,49c0,0.34,0,.67,0,1a50,50,0,0,0,40,49h-31.39a50,50,0,0,0,0,100h20.74q0-1.3.07-2.59a50,50,0,0,1,49.93-47.41h34.62c-1.35-.28-2.67-0.62-4-1a50,50,0,0,1-36-48c0-.34,0-0.67,0-1a50,50,0,0,1,50-49h42.79q1.26,0,2.51.06S3537.65,169.74,3537.65,169.72Z" transform="translate(-3108.68 -34.06)"/><path class="cls-4" d="M3532.9,270.21q0-.24,0-0.49h-2.14C3531.49,269.87,3532.2,270,3532.9,270.21Z" transform="translate(-3108.68 -34.06)"/><path class="cls-4" d="M3196.42,467.85c0.05,0.94.09,1.89,0.09,2.84a50,50,0,0,1-50,50h-2.87a337.15,337.15,0,0,0,27.65,46.76h15.92v-0.1c1,0.06,2,.1,3,0.1a50,50,0,0,0,49.95-48c0-.66.05-1.33,0.05-2A50,50,0,0,0,3196.42,467.85Z" transform="translate(-3108.68 -34.06)"/><path class="cls-4" d="M3709.7,159.84a340.76,340.76,0,0,0-24.49-27,50,50,0,0,0,38.46,81.95h22.5A338.34,338.34,0,0,0,3709.7,159.84Z" transform="translate(-3108.68 -34.06)"/><path class="cls-4" d="M3586.26,634.59a50,50,0,0,0-48,63.87,336.38,336.38,0,0,0,98.11-45.35,49.84,49.84,0,0,1-3.55-18.51h-46.52Z" transform="translate(-3108.68 -34.06)"/><path class="cls-5" d="M3196.42,467.77a50,50,0,0,0-49.91-47.08H3122.3a49.94,49.94,0,0,0,40.41-49.07c0-1.3-.07-2.58-0.16-3.85q-0.09-1.22-.24-2.42a50,50,0,0,0-48.72-43.71,340.41,340.41,0,0,0-3.85,46.13c0,0.07,0,.14,0,0.2,0,1.65-.05,3.29-0.05,4.95a340.88,340.88,0,0,0,3,44.85c0.13,1,.28,1.95.42,2.92l0.13,0.92a336.76,336.76,0,0,0,9.92,45.84l0.09,0.32A335,335,0,0,0,3143,519.45c0.2,0.42.41,0.83,0.62,1.24h2.87a50,50,0,0,0,50-50c0-1,0-1.9-.09-2.84v-0.08Z" transform="translate(-3108.68 -34.06)"/><path class="cls-5" d="M3553,469.05a49.86,49.86,0,0,0-17.84-3.29H3452.4a50,50,0,0,0-50,50c0,0.23,0,.46,0,0.69,0,0.44,0,.87,0,1.31a50,50,0,0,0,49.95,48h82.74c0.94,0,1.86,0,2.79-.08A50,50,0,0,0,3553,469.05Z" transform="translate(-3108.68 -34.06)"/><path class="cls-5" d="M3780.41,314.81a335.27,335.27,0,0,0-12.21-48.5h-14a50,50,0,0,0-50,48.5c0,0.5,0,1,0,1.5a50,50,0,0,0,50,50h31.16A339.84,339.84,0,0,0,3780.41,314.81Z" transform="translate(-3108.68 -34.06)"/><path class="cls-5" d="M3537.65,169.79q-1.25-.06-2.51-0.06h-42.79a50,50,0,0,0-50,49c0,0.34,0,.67,0,1a50,50,0,0,0,36,48c1.31,0.38,2.63.72,4,1h-34.62a50,50,0,0,0-49.93,47.41q-0.07,1.29-.07,2.59a50,50,0,0,0,50,50h73.08a50,50,0,0,0,12.15-98.5c-0.7-.18-1.41-0.34-2.13-0.49h4.37A50,50,0,0,0,3537.65,169.79Z" transform="translate(-3108.68 -34.06)"/><path class="cls-5" d="M3291.56,73.17a338.91,338.91,0,0,0-99.4,78.6,49.89,49.89,0,0,0,38.37,18h42.79A50,50,0,0,0,3291.56,73.17Z" transform="translate(-3108.68 -34.06)"/><path class="cls-5" d="M3682.78,584.59a50,50,0,0,0-50,49c0,0.32,0,.64,0,1a49.84,49.84,0,0,0,3.55,18.51q12.7-8.57,24.57-18.22l0.36-.29a340,340,0,0,0,49.59-50h-28.08Z" transform="translate(-3108.68 -34.06)"/></svg>