<?xml version="1.0" standalone="no"?>
<!DOCTYPE svg PUBLIC "-//W3C//DTD SVG 20010904//EN"
 "http://www.w3.org/TR/2001/REC-SVG-20010904/DTD/svg10.dtd">
<svg version="1.0" xmlns="http://www.w3.org/2000/svg"
 width="16.000000pt" height="16.000000pt" viewBox="0 0 16.000000 16.000000"
 preserveAspectRatio="xMidYMid meet">
<metadata>
Created by potrace 1.11, written by Peter Selinger 2001-2013
</metadata>
<g transform="translate(0.000000,16.000000) scale(0.000800,-0.000800)"
fill="#000000" stroke="none">
<path d="M9190 15571 c0 -5 9 -31 21 -58 31 -72 49 -134 49 -174 0 -39 -49
-146 -79 -174 -19 -17 -21 -15 -64 76 -48 103 -112 189 -139 189 -22 0 -22 -3
2 -68 26 -67 25 -122 -1 -175 -24 -46 -108 -153 -163 -206 l-35 -34 -26 54
c-14 30 -25 72 -25 96 0 62 53 196 129 330 38 65 63 120 57 122 -14 5 -145
-134 -219 -234 -70 -94 -110 -172 -134 -267 -10 -37 -20 -68 -23 -68 -3 0 -25
39 -48 86 -68 137 -198 300 -210 264 -3 -7 9 -37 24 -68 28 -54 29 -64 29
-189 0 -161 -10 -179 -53 -103 -16 28 -40 89 -52 136 -24 87 -35 102 -46 58
-7 -28 0 -136 11 -169 3 -11 -15 5 -42 35 -85 97 -121 128 -187 159 -35 17
-70 31 -77 31 -7 0 10 -24 38 -52 68 -71 118 -139 155 -212 32 -64 60 -137 55
-142 -2 -2 -28 17 -58 43 -120 103 -224 150 -476 213 -81 20 -185 27 -167 12
5 -5 50 -26 99 -47 153 -64 198 -90 274 -161 100 -92 131 -143 131 -210 0 -29
-3 -55 -8 -58 -4 -2 -34 5 -67 16 -51 17 -78 19 -190 15 -115 -4 -215 -20
-202 -33 2 -2 37 -14 77 -25 121 -33 176 -71 241 -165 29 -42 59 -136 59 -184
l0 -25 -117 0 c-128 0 -234 -20 -293 -57 -39 -23 -28 -38 31 -38 20 0 55 -7
78 -15 45 -16 131 -71 131 -84 0 -5 -38 -6 -84 -4 -100 7 -202 -13 -296 -58
-113 -53 -132 -89 -32 -61 32 9 98 16 152 16 80 1 102 -3 136 -21 58 -31 97
-66 119 -106 l18 -35 -34 -43 c-20 -24 -42 -55 -51 -69 -39 -64 -82 -280 -59
-303 8 -8 15 0 28 31 9 23 19 42 22 42 3 0 5 -39 3 -87 -3 -97 27 -308 43
-305 6 1 13 54 16 119 6 99 33 243 44 231 2 -2 -1 -55 -6 -118 -15 -173 -12
-505 4 -565 l14 -49 7 84 c4 47 9 105 13 129 l6 43 20 -46 c11 -25 23 -46 28
-46 5 0 9 20 9 45 0 92 22 244 57 390 48 203 57 212 70 70 12 -130 22 -123 58
40 23 103 71 216 141 332 59 97 106 143 148 143 32 0 32 -11 1 -88 -41 -101
-30 -122 24 -48 49 70 130 154 178 187 71 49 391 179 440 179 41 0 -14 -78
-92 -131 -35 -24 -44 -39 -25 -39 6 0 68 24 139 54 196 83 260 100 586 161
162 31 163 31 124 -2 -41 -35 -90 -103 -83 -115 3 -4 19 3 36 17 54 46 124 74
220 90 200 32 441 4 390 -47 -7 -7 -42 -28 -79 -48 -106 -56 -79 -68 63 -29
118 32 215 40 358 29 140 -10 286 -37 286 -52 0 -14 -78 -45 -147 -58 -43 -9
-63 -17 -63 -27 0 -13 10 -14 63 -6 103 14 204 6 342 -27 72 -17 211 -47 310
-66 140 -28 198 -45 260 -75 l80 -38 -72 0 c-40 -1 -73 -5 -73 -9 0 -5 33 -21
73 -37 51 -19 460 -189 504 -210 1 0 5 -16 8 -35 22 -128 80 -302 125 -373 28
-45 59 -65 46 -30 -14 36 -38 204 -31 220 6 16 7 16 15 3 15 -27 44 -241 44
-331 1 -78 -2 -91 -35 -158 l-36 -72 26 6 c33 8 79 51 94 88 10 23 12 -2 13
-140 1 -92 5 -181 11 -198 l10 -30 22 43 c12 24 25 42 27 39 3 -3 -4 -36 -15
-73 -35 -116 -62 -264 -68 -370 -7 -118 5 -139 34 -62 30 78 44 71 23 -11 -11
-39 -21 -124 -24 -193 -6 -122 -6 -123 11 -88 l18 35 3 -47 c2 -27 6 -48 10
-48 4 0 18 30 31 67 18 51 26 63 31 48 6 -18 8 -18 23 6 36 54 58 145 69 283
9 105 14 134 21 118 12 -26 34 -29 41 -4 16 54 46 241 46 286 0 29 -11 108
-25 176 -14 71 -25 153 -24 194 1 54 3 64 9 41 4 -16 8 -51 9 -77 1 -58 16
-62 38 -11 12 30 14 65 10 173 -4 141 -17 192 -100 415 l-27 70 35 -39 c52
-59 54 -26 6 114 -43 125 -74 195 -130 293 -18 31 -30 57 -27 57 4 0 37 -28
74 -62 52 -49 67 -59 70 -45 6 29 -33 80 -134 175 -53 50 -93 96 -89 102 14
23 80 10 154 -31 89 -48 115 -46 74 7 -47 62 -164 154 -247 195 -44 22 -86 39
-93 39 -30 0 -9 20 38 35 67 22 199 16 283 -14 70 -25 76 -25 76 -7 0 22 -67
76 -134 107 -71 34 -164 39 -256 14 -30 -8 -57 -15 -59 -15 -2 0 21 26 51 58
66 69 121 175 116 223 l-3 34 -36 -55 c-44 -68 -133 -151 -194 -180 -25 -12
-48 -20 -50 -18 -2 2 7 33 21 68 23 56 26 74 22 159 -3 88 -7 103 -43 176 -22
44 -46 81 -54 84 -10 3 -12 -1 -6 -15 4 -11 10 -42 12 -70 4 -42 1 -58 -21
-92 -14 -22 -41 -52 -60 -67 l-35 -27 -41 34 c-22 19 -66 43 -97 53 -83 27
-89 39 -18 31 33 -3 72 -9 88 -12 22 -5 26 -3 21 9 -12 33 -213 142 -315 171
-31 9 -98 20 -150 24 l-94 8 48 31 c27 17 67 35 89 38 44 8 158 -2 196 -16 29
-11 35 -8 27 13 -4 9 -34 29 -68 44 -85 39 -230 45 -362 16 -49 -11 -91 -19
-93 -18 -1 2 4 19 13 38 34 84 118 128 242 128 35 0 63 4 63 9 0 23 -54 50
-113 56 -100 10 -190 -18 -333 -105 -36 -22 -70 -40 -75 -40 -15 0 -38 44 -44
85 -6 42 6 95 45 198 12 32 20 60 17 63 -9 9 -86 -63 -118 -111 -47 -70 -77
-102 -111 -116 -50 -21 -53 -10 -49 223 1 96 -13 188 -30 188 -5 0 -6 -20 -3
-44 8 -52 -8 -103 -51 -171 -75 -118 -171 -180 -267 -173 -40 3 -43 5 -46 33
-2 23 6 42 32 75 19 24 33 46 32 48 -9 9 -80 -31 -119 -67 -24 -23 -47 -41
-51 -41 -12 0 -6 52 10 85 20 43 44 58 149 96 47 17 85 35 85 40 0 17 -127 10
-178 -10 -55 -22 -202 -118 -202 -132 0 -11 -81 -101 -86 -96 -2 2 5 36 16 75
24 88 25 149 3 219 -19 59 -33 54 -33 -12 0 -63 -37 -124 -99 -166 -87 -58
-241 -102 -241 -68 0 6 7 36 16 66 23 80 70 128 151 153 36 11 76 20 90 20 30
0 26 17 -10 44 -22 16 -41 20 -97 19 -58 -1 -81 -7 -144 -37 -102 -49 -167
-115 -215 -216 l-38 -81 -18 48 c-27 74 -91 194 -126 236 -32 39 -69 65 -69
48z"/>
<path d="M12034 8854 c4 -49 16 -139 26 -200 40 -235 59 -265 376 -581 222
-222 253 -257 259 -291 7 -43 -19 -294 -40 -387 -27 -118 -76 -208 -228 -415
-85 -115 -163 -199 -323 -345 -161 -148 -185 -167 -349 -277 -239 -160 -417
-237 -711 -306 -220 -52 -353 -66 -584 -60 -202 6 -316 25 -541 92 -194 57
-591 202 -649 236 -209 122 -321 254 -355 417 -8 38 -15 115 -15 173 0 91 4
120 31 205 39 123 80 206 153 309 32 43 55 84 53 90 -3 6 -56 93 -118 193 -63
100 -131 210 -151 243 l-38 61 -47 -25 c-27 -13 -91 -61 -143 -107 -52 -45
-119 -93 -148 -107 -58 -26 -57 -26 -212 3 -102 20 -352 23 -455 6 -128 -21
-292 -118 -379 -224 -55 -67 -124 -193 -148 -272 -12 -38 -24 -73 -28 -77 -3
-4 -66 -23 -140 -43 -222 -59 -281 -98 -609 -399 -102 -94 -220 -200 -261
-235 -127 -107 -231 -297 -293 -531 -72 -272 -170 -794 -203 -1085 -24 -205
-24 -596 -1 -800 30 -255 139 -876 166 -941 16 -38 421 -260 751 -412 786
-361 1581 -583 2440 -681 336 -39 469 -45 890 -45 419 0 547 6 890 45 2181
245 4156 1378 5482 3144 127 169 338 478 338 495 0 17 -180 218 -296 330 -227
220 -433 364 -730 513 -177 89 -333 153 -695 287 l-307 113 -22 86 c-40 150
-100 323 -141 402 -42 80 -128 174 -227 248 -29 21 -74 70 -101 107 -86 123
-171 188 -321 249 -41 17 -109 49 -151 72 -74 42 -169 73 -219 73 -50 0 -125
50 -235 157 -60 59 -136 126 -168 149 -105 78 -229 110 -353 93 l-72 -10 -144
97 c-78 53 -172 118 -208 144 -102 75 -161 102 -237 108 l-66 5 7 -89z"/>
</g>
</svg>
