<svg id="Layer_30" data-name="Layer 30" xmlns="http://www.w3.org/2000/svg" viewBox="0 0 41.85 41.85"><defs><style>.cls-1{fill:#93928c;}.cls-2{fill:#767676;}</style></defs><title>astroid</title><path class="cls-1" d="M497.39,1892.1a3.49,3.49,0,0,1,2.78-3.42l0-.07h-4.62A3.49,3.49,0,0,1,494,1882a20.82,20.82,0,0,0-12-3.8,21,21,0,0,0-3.53.3,3.49,3.49,0,0,1-3.48,3.19h-4.56a21,21,0,0,0-6.56,7,3.49,3.49,0,0,1-.49,6.95h4.86a3.49,3.49,0,1,1,0,7h-2.38a3.49,3.49,0,0,1,0,7H467a3.49,3.49,0,0,1,2.27,6.14,20.91,20.91,0,0,0,23.21,1.47,3.49,3.49,0,0,1,1.37-6.7h5.67a20.82,20.82,0,0,0,3.38-11.39,21,21,0,0,0-.3-3.49h-1.77A3.49,3.49,0,0,1,497.39,1892.1Zm-24.48-3.49a3.49,3.49,0,0,1,3.49-3.49h7a3.49,3.49,0,1,1,0,7h-7A3.49,3.49,0,0,1,472.91,1888.61Zm21,14h-3.52a3.49,3.49,0,0,1,0,7H478.52a3.49,3.49,0,0,1,0-7h4a3.49,3.49,0,1,1,0-7h11.42A3.49,3.49,0,1,1,493.89,1902.58Z" transform="translate(-461.09 -1878.16)"/><path class="cls-2" d="M468.25,1895.6h-4.86a3.49,3.49,0,0,0,.49-6.95,20.78,20.78,0,0,0-2.5,6.95,20.77,20.77,0,0,0,0,7,20.78,20.78,0,0,0,2.52,7,21,21,0,0,0,5.4,6.14,3.49,3.49,0,0,0-2.27-6.14h-1.17a3.49,3.49,0,0,0,0-7h2.38A3.49,3.49,0,1,0,468.25,1895.6Z" transform="translate(-461.09 -1878.16)"/><path class="cls-2" d="M493.87,1906.07a3.49,3.49,0,0,0-3.49-3.49h3.52a3.49,3.49,0,1,0,0-7H482.48a3.49,3.49,0,1,0,0,7h-4a3.49,3.49,0,0,0,0,7h11.85A3.49,3.49,0,0,0,493.87,1906.07Z" transform="translate(-461.09 -1878.16)"/><path class="cls-2" d="M490.4,1914a3.49,3.49,0,0,0,2.12,3.21,21,21,0,0,0,7-6.7h-5.67A3.49,3.49,0,0,0,490.4,1914Z" transform="translate(-461.09 -1878.16)"/><path class="cls-2" d="M500.17,1888.68a3.49,3.49,0,0,0,.71,6.91h1.77A20.78,20.78,0,0,0,500.17,1888.68Z" transform="translate(-461.09 -1878.16)"/><path class="cls-2" d="M483.39,1892.1a3.49,3.49,0,1,0,0-7h-7a3.49,3.49,0,0,0,0,7h7Z" transform="translate(-461.09 -1878.16)"/><path class="cls-2" d="M495.51,1888.61h4.62A21,21,0,0,0,494,1882,3.49,3.49,0,0,0,495.51,1888.61Z" transform="translate(-461.09 -1878.16)"/><path class="cls-2" d="M478.48,1878.47a20.8,20.8,0,0,0-8,3.19H475A3.49,3.49,0,0,0,478.48,1878.47Z" transform="translate(-461.09 -1878.16)"/></svg>