<svg id="Mercury" xmlns="http://www.w3.org/2000/svg" viewBox="0 0 174.74 174.73"><defs><style>.cls-1{fill:#c2dfe3;stroke:#c2dfe3;}.cls-1,.cls-2,.cls-3,.cls-4,.cls-5{stroke-miterlimit:10;}.cls-2{fill:#9db4c0;stroke:#9db4c0;}.cls-3{fill:#e0fbfc;stroke:#e0fbfc;}.cls-4,.cls-5{fill:#5c6b73;stroke:#5c6b73;}.cls-5{stroke-width:2px;}</style></defs><title>mercury</title><path class="cls-1" d="M3465.21,1142.36a9.72,9.72,0,0,1,9.72-9.72h6.52a9.71,9.71,0,0,1,9.31-9.7v0a9.72,9.72,0,0,1,9.72-9.72H3483a15.11,15.11,0,0,1-1.58-29.17h7.09a9.72,9.72,0,0,1,7.9-9.54h-28a9.72,9.72,0,0,1,0-19.44h24.7a9.72,9.72,0,0,1,1.82-19.27h-15a9.72,9.72,0,0,1-9.72,9.72h-29.63a9.72,9.72,0,0,1,0-19.44h11a9.72,9.72,0,0,1,0-19.44h29.63a9.72,9.72,0,0,1,9.72,9.72h7.33a9.72,9.72,0,0,1,0-19.44h-19.63a9.72,9.72,0,0,1-9.67-8.72h-7.83a9.72,9.72,0,0,1-9.72-9.66,87.36,87.36,0,0,0-24.29,2.56,4.63,4.63,0,0,0,.29,6.09H3431v0a15.14,15.14,0,0,1,1.18,29.12h-32.59a9.72,9.72,0,0,1,0,19.44h15.18a9.72,9.72,0,0,1,0,19.44H3386.2a9.72,9.72,0,0,1-1.82,19.27h-16.53a9.72,9.72,0,0,1-1.67,19.26h16.52a9.72,9.72,0,0,1,0,19.44h32a9.72,9.72,0,0,1,0,19.44h23.83a9.72,9.72,0,0,1,2.07,19.22,87.37,87.37,0,0,0,28-2.08A9.7,9.7,0,0,1,3465.21,1142.36Zm-30.93-19.44a9.72,9.72,0,0,1,0-19.44H3406a9.72,9.72,0,1,1,0-19.44h10.68a9.72,9.72,0,0,1,1.82-19.27h29.63a9.72,9.72,0,0,1,9.71,9.54h2.28v0a16.48,16.48,0,0,1-3.47,29.12h7.23a9.72,9.72,0,1,1,0,19.44h-29.63Z" transform="translate(-3360.92 -977.95)"/><path class="cls-2" d="M3375.76,1084a9.72,9.72,0,0,0-7.9-9.55h16.53a9.72,9.72,0,0,0,1.82-19.27h28.53a9.72,9.72,0,1,0,0-19.44h-15.18a9.72,9.72,0,1,0,0-19.44h32.59a9.71,9.71,0,0,0,7.18-16.25,9.72,9.72,0,0,1-8.36,6.49v0h-19.44a9.71,9.71,0,0,1-7.21-16.23,86.31,86.31,0,0,0-9.56,6.51,87.31,87.31,0,0,0-10.81,10.07,9.72,9.72,0,0,1-2.55,19.09h-6.6a9.71,9.71,0,0,1-7.59,14.54v0H3365l0,0.14H3375v0a9.71,9.71,0,0,1,7.77,14.23l-0.1.18a9.72,9.72,0,0,1-7.67,5v0h-13.43a87.41,87.41,0,0,0,.32,14.09l0,0.18a87.14,87.14,0,0,0,4.28,19.26A9.72,9.72,0,0,0,3375.76,1084Z" transform="translate(-3360.92 -977.95)"/><path class="cls-2" d="M3438.56,1132.63h-23.83a9.72,9.72,0,1,0,0-19.44h-32a9.72,9.72,0,0,0,0-19.44h-16.52a86.12,86.12,0,0,0,17.26,29.37,9.74,9.74,0,0,1,2-.21h19.44v0a9.71,9.71,0,0,1,2.26,18.89,86.46,86.46,0,0,0,33.5,10A9.72,9.72,0,0,0,3438.56,1132.63Z" transform="translate(-3360.92 -977.95)"/><path class="cls-2" d="M3426.31,982.67a9.72,9.72,0,0,1-7.38,4.45v0h8.49A9.63,9.63,0,0,0,3426.31,982.67Z" transform="translate(-3360.92 -977.95)"/><path class="cls-2" d="M3410.32,987.16l-0.25.12a9.75,9.75,0,0,1,1.44-.12h-1.2Z" transform="translate(-3360.92 -977.95)"/><path class="cls-2" d="M3525.7,1064.76h-19.44a9.72,9.72,0,0,1-9.71-9.55c0-.06,0-0.12,0-0.18a9.72,9.72,0,0,1,9.72-9.72h11.52a9.72,9.72,0,0,1,1.82-19.27h6.2a86,86,0,0,0-5.74-9.72,87,87,0,0,0-14.61-16.43q-1.79-1.56-3.64-3a86.73,86.73,0,0,0-13.56-8.72H3469a9.72,9.72,0,0,0,9.67,8.72h19.63a9.72,9.72,0,1,0,0,19.44h-7.33a9.72,9.72,0,0,1-9.72,9.72h-11a9.72,9.72,0,0,1,9.72,9.72h15a9.72,9.72,0,0,0-1.82,19.27h-24.7a9.72,9.72,0,1,0,0,19.44h28a9.72,9.72,0,0,0-7.9,9.54h12.35v0a9.72,9.72,0,0,1,8.91,9.68h0a9.72,9.72,0,0,1-8.91,9.67v0h-19.44A9.7,9.7,0,0,1,3474,1100a9.7,9.7,0,0,0,9.05,13.24h17.46a9.72,9.72,0,0,0-9.72,9.72v0l0.41,0h19.44v0a9.66,9.66,0,0,1,2.24.47l0.85-.95a87.67,87.67,0,0,0,7.08-9.28,86.41,86.41,0,0,0,5.57-9.73h-2.79a9.72,9.72,0,0,1-9.72-9.71h0a9.72,9.72,0,0,1,9.72-9.72h9.57a86.82,86.82,0,0,0,1.55-9.54l0-.18a87.32,87.32,0,0,0,.46-9.55h-9.45Z" transform="translate(-3360.92 -977.95)"/><path class="cls-2" d="M3481.45,1132.63h-6.52a9.72,9.72,0,0,0-6.28,17.14,86.59,86.59,0,0,0,20.31-7.68A9.72,9.72,0,0,1,3481.45,1132.63Z" transform="translate(-3360.92 -977.95)"/><path class="cls-3" d="M3463.91,1103.47h-7.23a9.7,9.7,0,0,0,9.34-12.4,9.69,9.69,0,0,1-5.87,2.64v0H3440.7a9.72,9.72,0,0,1-9.71-9.54c0-.06,0-0.12,0-0.18h0a9.72,9.72,0,0,1,9.72-9.72h17.16a9.72,9.72,0,0,0-9.71-9.54h-29.63a9.72,9.72,0,0,0-1.82,19.27H3406a9.72,9.72,0,0,0,0,19.44h28.26a9.72,9.72,0,0,0,0,19.44h29.63A9.72,9.72,0,1,0,3463.91,1103.47Z" transform="translate(-3360.92 -977.95)"/><path class="cls-3" d="M3481.21,1006.61h-29.63a9.72,9.72,0,1,0,0,19.44h-11a9.72,9.72,0,1,0,0,19.44h29.63a9.72,9.72,0,1,0,0-19.44h11A9.72,9.72,0,0,0,3481.21,1006.61Z" transform="translate(-3360.92 -977.95)"/><path class="cls-3" d="M3461.14,988.17h27.11a86.37,86.37,0,0,0-36.83-9.66A9.72,9.72,0,0,0,3461.14,988.17Z" transform="translate(-3360.92 -977.95)"/><path class="cls-3" d="M3523.56,1084a9.72,9.72,0,0,0-9.72,9.72h0a9.72,9.72,0,0,0,9.72,9.71h2.79a86,86,0,0,0,6.78-19.44h-9.57Z" transform="translate(-3360.92 -977.95)"/><path class="cls-3" d="M3383.94,1007l-1.07,1.2a87.72,87.72,0,0,0-6.33,8.17q-2.3,3.36-4.25,6.88a9.75,9.75,0,0,1,2.49,2.84h6.6A9.72,9.72,0,0,0,3383.94,1007Z" transform="translate(-3360.92 -977.95)"/><path class="cls-4" d="M3375,1040.81v0h-10.06A86.76,86.76,0,0,0,3362,1055l0,0.18q-0.29,2.5-.43,5H3375v0a9.72,9.72,0,0,0,7.67-5l0.1-.18A9.71,9.71,0,0,0,3375,1040.81Z" transform="translate(-3360.92 -977.95)"/><path class="cls-4" d="M3534.59,1055.41c0-.12,0-0.24,0-0.37a9.69,9.69,0,0,0-.47-3q-0.51-3.31-1.27-6.58l0-.18a86.69,86.69,0,0,0-7-19.27h-6.2a9.72,9.72,0,0,0-1.82,19.27h-11.52a9.72,9.72,0,0,0-9.72,9.72c0,0.06,0,.12,0,0.18a9.72,9.72,0,0,0,9.71,9.55h28.9A87.26,87.26,0,0,0,3534.59,1055.41Z" transform="translate(-3360.92 -977.95)"/><path class="cls-4" d="M3404.88,1123v0h-19.44a9.74,9.74,0,0,0-2,.21,87.39,87.39,0,0,0,7.68,7.62c0.74,0.65,1.5,1.28,2.26,1.9a87,87,0,0,0,13.76,9.21A9.71,9.71,0,0,0,3404.88,1123Z" transform="translate(-3360.92 -977.95)"/><path class="cls-5" d="M3439.32,1001.07a9.69,9.69,0,0,0-8.36-12.87v0h-12v0a9.74,9.74,0,0,0,8.2-6.05c-0.52.13-1.05,0.25-1.57,0.39a86.6,86.6,0,0,0-15.23,5.7l-0.25.12c-0.49,0,.45-0.16,0,0a16.73,16.73,0,0,0-5.76,3.1c-1.84,1.42-2.51,4-2.51,6.51a9.72,9.72,0,0,0,9.72,9.72H3431v0A9.72,9.72,0,0,0,3439.32,1001.07Z" transform="translate(-3360.92 -977.95)"/><path class="cls-5" d="M3500.89,1103.46v0a9.72,9.72,0,0,0,8.91-9.67h0a9.72,9.72,0,0,0-8.91-9.68v0h-19.44a9.72,9.72,0,0,0,0,19.44h19.44Z" transform="translate(-3360.92 -977.95)"/><path class="cls-4" d="M3510.61,1122.91h-19.44l-0.41,0a9.71,9.71,0,0,0-1.8,19.16,86.32,86.32,0,0,0,14.24-9.46,87.46,87.46,0,0,0,9.65-9.21,9.66,9.66,0,0,0-2.24-.47v0Z" transform="translate(-3360.92 -977.95)"/><path class="cls-4" d="M3367.19,1040.59a9.71,9.71,0,0,0,5.1-17.38c-0.52.94-1,1.89-1.51,2.84a86.11,86.11,0,0,0-4.21,9.72q-0.87,2.41-1.59,4.86h2.21v0Z" transform="translate(-3360.92 -977.95)"/><path class="cls-4" d="M3460.14,1074.34v0H3440.7A9.72,9.72,0,0,0,3431,1084h0c0,0.06,0,.12,0,0.18a9.72,9.72,0,0,0,9.71,9.54h19.44v0A9.71,9.71,0,0,0,3460.14,1074.34Z" transform="translate(-3360.92 -977.95)"/></svg>