<svg id="Neptune" xmlns="http://www.w3.org/2000/svg" viewBox="0 0 296.03 296.03"><defs><style>.cls-1{fill:#5b5ddf;stroke:#5b5ddf;}.cls-1,.cls-2,.cls-3{stroke-miterlimit:10;stroke-width:2px;}.cls-2{fill:#3f54ba;stroke:#3f54ba;}.cls-3{fill:#274687;stroke:#274687;}</style></defs><title>neptune</title><path class="cls-1" d="M478.75,1514.58a17.5,17.5,0,0,1,17.5-17.5h8.64a17.5,17.5,0,0,1,17.5-17.43h22.75a17.5,17.5,0,1,1,0-35h30a17.5,17.5,0,0,1-17.5-17.5c0-.06,0-0.12,0-0.18a17.49,17.49,0,0,1-15.12-17.32c0-.17,0-0.33,0-0.5h-2.41a17.5,17.5,0,1,1,0-35H572a17.5,17.5,0,0,1,8.11-33H526.46a17.5,17.5,0,0,1,0-35h13.64a17.5,17.5,0,0,1-8.16-33q-1.88-1.37-3.81-2.67a17.46,17.46,0,0,1-13.73,6.67H505a17.49,17.49,0,0,1-6.36,33.79H478.27a17.5,17.5,0,0,1-17.5,17.5h-35a17.5,17.5,0,0,1,0-35h18.65a17.5,17.5,0,1,1,0-35H462a17.43,17.43,0,0,1,5.63-11.68,148.11,148.11,0,0,0-58.76,3,17.48,17.48,0,0,1-15.17,26.2h-35a17.53,17.53,0,0,1-2.84-.25l-0.62.47a17.49,17.49,0,0,1-2.66,34.78h-23.1a17.47,17.47,0,0,1,5.1,30.19h18a17.5,17.5,0,0,1,0,35H312.7a17.5,17.5,0,0,1-7.07,33.5h18.05a17.5,17.5,0,1,1,0,35H308.24a146.71,146.71,0,0,0,19.22,35l0.43,0h35a17.49,17.49,0,0,1,1.3,34.93l0.1,0.07h18.52a17.5,17.5,0,0,1,17.49,17.4,147.44,147.44,0,0,0,91.89-.45A17.49,17.49,0,0,1,478.75,1514.58ZM397.9,1357.15h2.41a17.5,17.5,0,0,1,17.5-17.5h35a17.5,17.5,0,0,1,17.5,17.5h2.91a17.5,17.5,0,1,1,0,35h11.18a17.5,17.5,0,0,1,0,35h-35a17.5,17.5,0,1,1,0-35H438.22a17.52,17.52,0,0,1-2.66-.22,17.52,17.52,0,0,1-2.66.22h-35A17.5,17.5,0,0,1,397.9,1357.15Zm38.62,140a17.5,17.5,0,0,1-17.5-17.5H393.68a17.5,17.5,0,0,1,0-35H370.19a17.5,17.5,0,1,1,0-35h35a17.5,17.5,0,0,1,0,35h23.49a17.5,17.5,0,0,1,17.5,17.5h25.34a17.5,17.5,0,0,1,0,35h-35Z" transform="translate(-297.58 -1244.13)"/><path class="cls-2" d="M484.39,1392.15H473.22a17.5,17.5,0,1,0,0-35h-2.91a17.5,17.5,0,0,1-17.5,17.5h-35a17.5,17.5,0,0,1-17.5-17.5H397.9a17.5,17.5,0,0,0,0,35h35a17.52,17.52,0,0,0,2.66-.22,17.52,17.52,0,0,0,2.66.22h11.18a17.5,17.5,0,1,0,0,35h35A17.5,17.5,0,0,0,484.39,1392.15Z" transform="translate(-297.58 -1244.13)"/><path class="cls-2" d="M557.62,1427c0,0.06,0,.12,0,0.18a17.5,17.5,0,0,0,17.5,17.5h-30a17.5,17.5,0,1,0,0,35H522.39a17.5,17.5,0,0,0-17.5,17.43h26.36a17.43,17.43,0,0,1,12.07,4.85A147.77,147.77,0,0,0,563,1480.59l0.71-.95a146.71,146.71,0,0,0,19.12-34.77l0.09-.23a145.87,145.87,0,0,0,5.45-17.5H560A17.58,17.58,0,0,1,557.62,1427Z" transform="translate(-297.58 -1244.13)"/><path class="cls-2" d="M592.61,1391.65c0-.06,0-0.11,0-0.17a148.59,148.59,0,0,0-.86-15.33q-0.08-.75-0.17-1.5a146.1,146.1,0,0,0-8.05-33.5q-2.36-6.39-5.29-12.49a146.92,146.92,0,0,0-13.11-22.13l-0.28-.39a147.84,147.84,0,0,0-32.88-33,17.5,17.5,0,0,0,8.16,33H526.46a17.5,17.5,0,0,0,0,35h53.67a17.5,17.5,0,0,0-8.11,33H540.11a17.5,17.5,0,1,0,0,35h2.41a17.49,17.49,0,0,1,17.47-17h32.61c0-.13,0-0.27,0-0.4S592.61,1391.68,592.61,1391.65Z" transform="translate(-297.58 -1244.13)"/><path class="cls-2" d="M380.4,1497.15a17.5,17.5,0,0,0-17.5-17.5h-35l-0.43,0a147.82,147.82,0,0,0,36.73,34.91A17.49,17.49,0,0,0,380.4,1497.15Z" transform="translate(-297.58 -1244.13)"/><path class="cls-2" d="M382.82,1514.65H364.3a146.4,146.4,0,0,0,36,17.4A17.5,17.5,0,0,0,382.82,1514.65Z" transform="translate(-297.58 -1244.13)"/><path class="cls-2" d="M341.18,1427.15a17.5,17.5,0,0,0-17.5-17.5H305.63a17.5,17.5,0,0,0,7.07-33.5h39.87a17.5,17.5,0,0,0,0-35h-18a17.47,17.47,0,0,0-5.1-30.19h23.1a17.49,17.49,0,0,0,2.66-34.78A147.83,147.83,0,0,0,323.68,1310l-0.66,1a147,147,0,0,0-9.95,17.5h1.06a17.5,17.5,0,0,1,0,35H301.4c-0.08.4-.17,0.8-0.25,1.21q-0.93,4.93-1.53,10-0.09.75-.17,1.5a147.59,147.59,0,0,0,.17,33.5,146.07,146.07,0,0,0,8.62,35h15.44A17.5,17.5,0,0,0,341.18,1427.15Z" transform="translate(-297.58 -1244.13)"/><path class="cls-2" d="M393.68,1276a17.48,17.48,0,0,0,15.17-26.2,146.46,146.46,0,0,0-53,25.95,17.53,17.53,0,0,0,2.84.25h35Z" transform="translate(-297.58 -1244.13)"/><path class="cls-2" d="M425.77,1328.46h35a17.5,17.5,0,0,0,17.5-17.5H463.68a17.5,17.5,0,0,1,0-35h9.38a17.49,17.49,0,0,1-11.14-16.29c0-.41,0-0.81.06-1.21H444.41a17.5,17.5,0,1,0,0,35H425.77A17.5,17.5,0,0,0,425.77,1328.46Z" transform="translate(-297.58 -1244.13)"/><path class="cls-2" d="M471.52,1462.15H446.18a17.5,17.5,0,0,1-17.5,17.5H419a17.5,17.5,0,0,0,17.5,17.5h35A17.5,17.5,0,0,0,471.52,1462.15Z" transform="translate(-297.58 -1244.13)"/><path class="cls-3" d="M452.81,1339.65h-35a17.5,17.5,0,0,0,0,35h35A17.5,17.5,0,1,0,452.81,1339.65Z" transform="translate(-297.58 -1244.13)"/><path class="cls-3" d="M428.68,1444.65H405.19a17.5,17.5,0,0,0,0-35h-35a17.5,17.5,0,1,0,0,35h23.49a17.5,17.5,0,0,0,0,35h35A17.5,17.5,0,1,0,428.68,1444.65Z" transform="translate(-297.58 -1244.13)"/><path class="cls-3" d="M560,1392.15a17.49,17.49,0,0,0-17.47,17c0,0.17,0,.33,0,0.5a17.64,17.64,0,0,0,17.5,17.5H588.4a146.43,146.43,0,0,0,3.17-17.5,148.48,148.48,0,0,0,1-17.5H560Z" transform="translate(-297.58 -1244.13)"/><path class="cls-3" d="M516.18,1293.46A17.49,17.49,0,0,0,505,1277.17h9.38a17.46,17.46,0,0,0,13.73-6.67,146.17,146.17,0,0,0-60.53-23.72,17.43,17.43,0,0,0-5.63,11.68c0,0.4-.06.8-0.06,1.21A17.49,17.49,0,0,0,473.06,1276h-9.38a17.5,17.5,0,0,0,0,35h35A17.5,17.5,0,0,0,516.18,1293.46Z" transform="translate(-297.58 -1244.13)"/><path class="cls-3" d="M504.89,1497.08h-8.64a17.49,17.49,0,0,0-4,34.51,145.69,145.69,0,0,0,51.12-29.66,17.43,17.43,0,0,0-12.07-4.85H504.89Z" transform="translate(-297.58 -1244.13)"/><path class="cls-3" d="M314.13,1328.46h-1.06c-2,4.13-3.8,8.35-5.4,12.69-0.47,1.26-.92,2.53-1.36,3.81l-0.14.42a145.85,145.85,0,0,0-4.78,18.08h12.73A17.5,17.5,0,0,0,314.13,1328.46Z" transform="translate(-297.58 -1244.13)"/></svg>