<svg id="Saturn" xmlns="http://www.w3.org/2000/svg" viewBox="0 0 1309.06 384.68"><defs><style>.cls-1{fill:#eec87d;stroke:#eec87d;}.cls-1,.cls-2,.cls-3{stroke-miterlimit:10;stroke-width:2px;}.cls-2{fill:#dda55a;stroke:#dda55a;}.cls-3{fill:#c68a4a;stroke:#c68a4a;}.cls-4{fill:none;}.cls-5{fill:#f7e3bf;}.cls-6{fill:#ddc0a2;}</style></defs><title>saturn2</title><path class="cls-1" d="M1487.43,1887.81H1512a22.37,22.37,0,0,1,0-44.74h40.84a22.37,22.37,0,0,1,0-44.74h-20.4a22.37,22.37,0,0,1,0-44.74h20.4a22.37,22.37,0,0,1-5.34-44.09c0-.22,0-0.43,0-0.65h-57a22.37,22.37,0,1,1,0-44.74H1512a22.37,22.37,0,0,1,0-44.74h-45a22.37,22.37,0,0,1-7.94-43.29h-0.19a22.37,22.37,0,0,1-22.35-21.63,192.85,192.85,0,0,0-72.68-.74,22.37,22.37,0,0,1-20.35,31.65h-55.19q-2.53,1.78-5,3.64a22.37,22.37,0,0,1-12.22,41.1h7a22.37,22.37,0,1,1,0,44.74h-26.8a22.37,22.37,0,1,1,0,44.74h69.19a22.37,22.37,0,0,1,0,44.74H1271.1a22.37,22.37,0,0,1,0,44.74h25.14a22.37,22.37,0,0,1,0,44.74h24.22a22.37,22.37,0,0,1,0,44.74h31.27a22.37,22.37,0,0,1,19.76,32.87,192.93,192.93,0,0,0,26.81,1.88,190.85,190.85,0,0,0,69.23-12.92A22.37,22.37,0,0,1,1487.43,1887.81Zm-161-215.43c0-.31,0-0.63,0-0.94a22.37,22.37,0,0,1,6.41-43.81h14.6a22.37,22.37,0,0,1,10.2-42.28h33a22.37,22.37,0,1,1,0,44.74H1376a22.36,22.36,0,0,1,12.17,19.91h46.77a22.37,22.37,0,0,1,15.59,38.4,22.37,22.37,0,0,1-21.45,28.71h-33a22.37,22.37,0,0,1-22.37-22.37h-25A22.37,22.37,0,0,1,1326.39,1672.38Zm104.29,203.8a22.37,22.37,0,0,1-22.37,22.37h-33a22.37,22.37,0,0,1,0-44.74h17.35a22.37,22.37,0,0,1-22.37-22.37h-10.71a22.37,22.37,0,1,1,0-44.74h33.08a22.37,22.37,0,0,1,0-44.74h86.15a22.37,22.37,0,0,1,4.64,44.26c0,0.16,0,.32,0,0.49v0a22.37,22.37,0,0,1,1.11,44.62s0,0.06,0,.09a22.37,22.37,0,0,1-22.37,22.37h-33c-0.61,0-1.22,0-1.82-.08s-1.21.08-1.82,0.08h-17.35A22.37,22.37,0,0,1,1430.68,1876.17Z" transform="translate(-746.23 -1549.61)"/><path class="cls-2" d="M1484.63,1831.34a22.37,22.37,0,0,0-1.11-44.62,22.37,22.37,0,0,1-22.37,22.35h1.12A22.37,22.37,0,0,1,1484.63,1831.34Z" transform="translate(-746.23 -1549.61)"/><path class="cls-2" d="M1365.89,1563a22.28,22.28,0,0,0-2-9.28,190.3,190.3,0,0,0-75.54,31.65h55.19A22.37,22.37,0,0,0,1365.89,1563Z" transform="translate(-746.23 -1549.61)"/><path class="cls-2" d="M1351.72,1898.54h-31.27a22.37,22.37,0,0,0,0-44.74h-24.22a22.37,22.37,0,0,0,0-44.74H1271.1a22.37,22.37,0,0,0,0-44.74h49.36a22.37,22.37,0,0,0,0-44.74h-69.19a22.37,22.37,0,1,0,0-44.74h26.8a22.37,22.37,0,1,0,0-44.74h-7a22.37,22.37,0,0,0,12.22-41.1,191.86,191.86,0,0,0-64.26,85.84,189.7,189.7,0,0,0-6.83,22.37h8.62a22.37,22.37,0,0,1,0,44.74h16.25a22.37,22.37,0,0,1,0,44.74h-24.87a188.62,188.62,0,0,0,16.92,44.74h30.55a22.37,22.37,0,0,1,2.15,44.64,192.28,192.28,0,0,0,26.48,22.48,190.26,190.26,0,0,0,83.15,32.87A22.37,22.37,0,0,0,1351.72,1898.54Z" transform="translate(-746.23 -1549.61)"/><path class="cls-2" d="M1405.81,1786.69a22.37,22.37,0,0,1,22.37-22.37h33a22.37,22.37,0,0,1,22.36,21.88,22.37,22.37,0,0,0-4.64-44.26H1392.7a22.37,22.37,0,0,0,0,44.74h-33.08a22.37,22.37,0,1,0,0,44.74h10.71a22.38,22.38,0,0,1,22.37-22.37h33c0.61,0,1.22,0,1.82.08s1.21-.08,1.82-0.08h-1.12A22.37,22.37,0,0,1,1405.81,1786.69Z" transform="translate(-746.23 -1549.61)"/><path class="cls-2" d="M1467,1619.36h45a22.37,22.37,0,0,0,0,44.74h-21.51a22.37,22.37,0,1,0,0,44.74h57a22.37,22.37,0,0,1,22.37-22.37H1536.4a22.37,22.37,0,0,1,0-44.74h24.9a191.92,191.92,0,0,0-67.74-65.73c-0.56,0-1.13.07-1.7,0.07h-32.77A22.37,22.37,0,0,0,1467,1619.36Z" transform="translate(-746.23 -1549.61)"/><path class="cls-2" d="M1589.32,1731.21h-19.43a22.37,22.37,0,0,1-22.35-21.72,22.37,22.37,0,0,0,5.34,44.09h-20.4a22.37,22.37,0,0,0,0,44.74h20.4a22.37,22.37,0,0,0,0,44.74H1512a22.37,22.37,0,0,0,0,44.74h-24.61a22.37,22.37,0,0,0-19.91,32.57,191.6,191.6,0,0,0,108-106.36h-0.4a22.37,22.37,0,0,1,0-44.74h12.5c0.74-5.17,1.28-10.39,1.6-15.69,0.23-3.85.36-7.73,0.36-11.63C1589.63,1738.35,1589.52,1734.77,1589.32,1731.21Z" transform="translate(-746.23 -1549.61)"/><path class="cls-2" d="M1332.82,1672.38a22.36,22.36,0,0,1-6.41-.94c0,0.31,0,.62,0,0.94a22.37,22.37,0,0,0,22.37,22.37h25a22.37,22.37,0,0,1,22.37-22.37h33a22.38,22.38,0,0,1,21.45,16,22.37,22.37,0,0,0-15.59-38.4h-46.77a22.37,22.37,0,0,1-22.37,22.37h-33Z" transform="translate(-746.23 -1549.61)"/><path class="cls-3" d="M1259.47,1764.32A22.37,22.37,0,0,0,1237.1,1742h-16.25a22.37,22.37,0,0,0,0-44.74h-8.62a190.79,190.79,0,0,0-4,22.37,191.85,191.85,0,0,0,0,44.74,190.79,190.79,0,0,0,4,22.37h24.87A22.37,22.37,0,0,0,1259.47,1764.32Z" transform="translate(-746.23 -1549.61)"/><path class="cls-3" d="M1468.13,1809.85a22.38,22.38,0,0,0-5.87-.78h-1.12a22.37,22.37,0,0,0,22.37-22.35v0c0-.16,0-0.32,0-0.49a22.37,22.37,0,0,0-22.36-21.88h-33a22.37,22.37,0,0,0,0,44.74h1.12c-0.61,0-1.22,0-1.82.08s-1.21-.08-1.82-0.08h-33a22.37,22.37,0,0,0,0,44.74h-17.35a22.37,22.37,0,0,0,0,44.74h33a22.37,22.37,0,1,0,0-44.74h17.35c0.61,0,1.22,0,1.82-.08s1.21,0.08,1.82.08h33a22.37,22.37,0,0,0,22.37-22.37s0-.06,0-0.09A22.38,22.38,0,0,0,1468.13,1809.85Z" transform="translate(-746.23 -1549.61)"/><path class="cls-3" d="M1388.14,1650A22.36,22.36,0,0,0,1376,1630.1h14.6a22.37,22.37,0,1,0,0-44.74h-33a22.37,22.37,0,0,0-10.2,42.28h-14.6a22.37,22.37,0,1,0,0,44.74h33A22.37,22.37,0,0,0,1388.14,1650Z" transform="translate(-746.23 -1549.61)"/><path class="cls-3" d="M1569.89,1731.21h19.43a192.33,192.33,0,0,0-2.55-22.37c-0.13-.74-0.27-1.47-0.4-2.2a190.18,190.18,0,0,0-4.93-20.17q-0.45-1.5-.93-3a188.65,188.65,0,0,0-19.21-41.76h-24.9a22.37,22.37,0,0,0,0,44.74h33.49a22.37,22.37,0,0,0-22.37,22.37c0,0.22,0,.43,0,0.65A22.37,22.37,0,0,0,1569.89,1731.21Z" transform="translate(-746.23 -1549.61)"/><path class="cls-3" d="M1552.8,1791.64a22.35,22.35,0,0,0,22.37,22.37h0.4c2.09-5.12,4-10.35,5.62-15.69a189.9,189.9,0,0,0,6.48-29.06h-12.5A22.37,22.37,0,0,0,1552.8,1791.64Z" transform="translate(-746.23 -1549.61)"/><path class="cls-3" d="M1259.7,1831.43h-30.55a190.84,190.84,0,0,0,32.7,44.64A22.37,22.37,0,0,0,1259.7,1831.43Z" transform="translate(-746.23 -1549.61)"/><path class="cls-3" d="M1436.55,1554.45a22.37,22.37,0,0,0,22.35,21.63h33c0.57,0,1.14,0,1.7-.07-0.81-.46-1.61-0.93-2.42-1.38A190.15,190.15,0,0,0,1436.55,1554.45Z" transform="translate(-746.23 -1549.61)"/><path class="cls-3" d="M1373.72,1694.75a22.37,22.37,0,0,0,22.37,22.37h33a22.37,22.37,0,1,0,0-44.74h-33A22.37,22.37,0,0,0,1373.72,1694.75Z" transform="translate(-746.23 -1549.61)"/><g id="Rings_2" data-name="Rings 2"><path class="cls-4" d="M1170.42,1844.45c-29.15-7.48-53.74-16.22-73.43-25.89-18.35-9-32.16-18.66-41.46-28.7-8.56-9.25-13-18.47-13.73-27.48-0.7-8.29,1.68-16.36,6.71-24.12,4.64-7.15,11.54-14,20.36-20.55a182.68,182.68,0,0,1,29.27-17.22,323.09,323.09,0,0,1,34.19-13.93c11.48-4,23.69-7.63,36.45-10.94,12.1-3.14,24.77-6,37.9-8.59,5.48-1.08,11.07-2.1,16.74-3.09q3.28-7.37,7.15-14.4h-26.61L746.23,1869.92h654.54A1121,1121,0,0,1,1274.9,1863C1236.26,1858.64,1201.15,1852.34,1170.42,1844.45Z" transform="translate(-746.23 -1549.61)"/><path class="cls-4" d="M1206.95,1741.69a191.31,191.31,0,0,1,8.21-55.58c-11.49,4.26-21.53,9.06-29.41,14.4-12,8.1-17.93,16.7-17.63,25.42,0.33,9.7,8.44,19.44,24.48,28.46,17.64,9.92,44.37,18.71,79.15,25.23,36.93,6.92,81.06,10.94,129,10.94s92.08-4,129-10.94c34.79-6.52,61.51-15.31,79.15-25.23,16-9,24.15-18.76,24.48-28.46,0.3-8.71-5.68-17.32-17.63-25.42-9.12-6.18-21.14-11.65-35-16.38a191.24,191.24,0,0,1,8.81,57.55H1206.95Z" transform="translate(-746.23 -1549.61)"/><path class="cls-4" d="M1608.33,1678.26c10.79,3,21,6.33,30.35,9.91a217.36,217.36,0,0,1,27.11,12.34,110.22,110.22,0,0,1,21.43,14.86c6,5.52,10.22,11.27,12.41,17.18a26.39,26.39,0,0,1-.26,19.43c-2.79,7.06-8.59,14.19-17.68,21.23-9.72,7.53-22.83,14.66-39.23,21.21-17.35,6.93-38.13,13.12-62,18.34a722.82,722.82,0,0,1-82.85,12.73c-30.81,3-63.36,4.62-96.8,4.62s-66-1.58-96.81-4.62a722.75,722.75,0,0,1-82.85-12.73c-23.89-5.23-44.67-11.41-62-18.34-16.4-6.55-29.51-13.69-39.23-21.21-9.1-7-14.89-14.17-17.68-21.23a26.39,26.39,0,0,1-.26-19.43c2.18-5.91,6.4-11.66,12.41-17.18a110.21,110.21,0,0,1,21.43-14.86,217.35,217.35,0,0,1,27.11-12.34c9.39-3.58,19.56-6.89,30.35-9.91,8.59-2.41,17.62-4.64,27-6.71,0.36-.91.73-1.81,1.1-2.71-12.17,2.46-24,5.19-35.17,8.22-23.59,6.37-45.34,14.17-63,23.45-20.25,10.63-33.54,22.31-38.85,34.57-6.14,14.19-1.54,29,15.25,43.39,19.26,16.46,53.83,31.68,103.36,43.37,54.28,12.82,122.36,20.45,197.88,20.45s143.6-7.64,197.88-20.45c49.52-11.7,84.09-26.91,103.35-43.37,16.79-14.35,21.39-29.2,15.25-43.39-5.31-12.26-18.6-23.95-38.85-34.57-17.67-9.27-39.42-17.08-63-23.45-12.85-3.47-26.47-6.56-40.55-9.28,0.36,0.86.71,1.73,1.06,2.6C1587.24,1672.76,1598.1,1675.39,1608.33,1678.26Z" transform="translate(-746.23 -1549.61)"/><path class="cls-4" d="M1597.59,1649.57H1566q3.63,6.59,6.75,13.49c7.51,1.26,14.89,2.58,22.08,4,13.12,2.58,25.8,5.44,37.9,8.59,12.76,3.31,25,7,36.45,10.94a323.09,323.09,0,0,1,34.19,13.93,182.69,182.69,0,0,1,29.27,17.22c8.82,6.52,15.72,13.4,20.36,20.55,5,7.75,7.41,15.83,6.71,24.12-0.76,9-5.17,18.23-13.73,27.48-9.3,10-23.1,19.69-41.45,28.7-19.69,9.66-44.28,18.4-73.43,25.89-30.74,7.89-65.85,14.19-104.48,18.58a1121,1121,0,0,1-125.88,6.88h654.52Z" transform="translate(-746.23 -1549.61)"/><path class="cls-5" d="M1162.86,1688.17a217.35,217.35,0,0,0-27.11,12.34,110.21,110.21,0,0,0-21.43,14.86c-6,5.52-10.22,11.27-12.41,17.18a26.39,26.39,0,0,0,.26,19.43c2.8,7.06,8.59,14.19,17.68,21.23,9.72,7.53,22.83,14.66,39.23,21.21,17.35,6.93,38.13,13.12,62,18.34A722.75,722.75,0,0,0,1304,1825.5c30.81,3,63.37,4.62,96.81,4.62s66-1.58,96.8-4.62a722.82,722.82,0,0,0,82.85-12.73c23.89-5.23,44.67-11.41,62-18.34,16.4-6.55,29.51-13.69,39.23-21.21,9.1-7,14.89-14.17,17.68-21.23a26.39,26.39,0,0,0,.26-19.43c-2.18-5.91-6.4-11.66-12.41-17.18a110.22,110.22,0,0,0-21.43-14.86,217.36,217.36,0,0,0-27.11-12.34c-9.39-3.58-19.56-6.89-30.35-9.91-10.24-2.87-21.09-5.49-32.44-7.88q2.71,6.75,4.92,13.75c13.83,4.73,25.85,10.19,35,16.38,12,8.1,17.93,16.7,17.63,25.42-0.33,9.7-8.44,19.44-24.48,28.46-17.64,9.92-44.37,18.71-79.15,25.23-36.93,6.92-81.06,10.94-129,10.94s-92.09-4-129-10.94c-34.79-6.52-61.51-15.31-79.15-25.23-16-9-24.15-18.76-24.48-28.46-0.3-8.71,5.68-17.32,17.63-25.42,7.88-5.34,17.91-10.14,29.41-14.4q2.25-7.41,5.05-14.56c-9.39,2.06-18.42,4.3-27,6.71C1182.42,1681.28,1172.25,1684.59,1162.86,1688.17Z" transform="translate(-746.23 -1549.61)"/><path class="cls-6" d="M1631.13,1844.45c29.15-7.48,53.73-16.22,73.43-25.89,18.35-9,32.16-18.66,41.45-28.7,8.56-9.25,13-18.47,13.73-27.48,0.7-8.29-1.68-16.36-6.71-24.12-4.64-7.15-11.54-14-20.36-20.55a182.69,182.69,0,0,0-29.27-17.22,323.09,323.09,0,0,0-34.19-13.93c-11.48-4-23.69-7.63-36.45-10.94-12.1-3.14-24.77-6-37.9-8.59-7.2-1.42-14.58-2.74-22.08-4q1.06,2.35,2.05,4.73c14.09,2.72,27.71,5.81,40.55,9.28,23.59,6.37,45.34,14.17,63,23.45,20.25,10.63,33.54,22.31,38.85,34.57,6.14,14.19,1.54,29-15.25,43.39-19.26,16.46-53.82,31.68-103.35,43.37-54.28,12.82-122.36,20.45-197.88,20.45s-143.6-7.64-197.88-20.45c-49.53-11.7-84.1-26.91-103.36-43.37-16.79-14.35-21.39-29.2-15.25-43.39,5.3-12.26,18.59-23.95,38.85-34.57,17.67-9.27,39.42-17.08,63-23.45,11.2-3,23-5.76,35.17-8.22q1-2.46,2.09-4.88c-5.66,1-11.26,2-16.74,3.09-13.12,2.58-25.8,5.44-37.9,8.59-12.76,3.31-25,7-36.45,10.94a323.09,323.09,0,0,0-34.19,13.93,182.68,182.68,0,0,0-29.27,17.22c-8.82,6.52-15.72,13.4-20.36,20.55-5,7.75-7.41,15.83-6.71,24.12,0.76,9,5.17,18.23,13.73,27.48,9.3,10,23.11,19.69,41.46,28.7,19.7,9.66,44.28,18.4,73.43,25.89,30.74,7.89,65.85,14.19,104.48,18.58a1154.54,1154.54,0,0,0,251.75,0C1565.28,1858.64,1600.39,1852.34,1631.13,1844.45Z" transform="translate(-746.23 -1549.61)"/></g></svg>