<svg id="Uranus" xmlns="http://www.w3.org/2000/svg" viewBox="0 0 265.4 265.4"><defs><style>.cls-1{fill:#d3f9fa;stroke:#d3f9fa;}.cls-1,.cls-2,.cls-3{stroke-miterlimit:10;stroke-width:2px;}.cls-2{fill:#a8f4f6;stroke:#a8f4f6;}.cls-3{fill:#6be6e8;stroke:#6be6e8;}</style></defs><title>uranus</title><path class="cls-1" d="M686.78,325.47a17.5,17.5,0,0,1,17.5-17.5H676a17.5,17.5,0,0,1,0-35h-28.5a17.49,17.49,0,0,1-.79-35,132.17,132.17,0,0,0-97,0h4a17.5,17.5,0,0,1,0,35H538.78s0,0,0,0a17.49,17.49,0,0,1-.72,35H509.8a17.5,17.5,0,0,1,0,35h31a17.5,17.5,0,0,1,0,35h-37a17.5,17.5,0,0,1,0,35h23.45a17.5,17.5,0,0,1,0,35h22.85a17.5,17.5,0,0,1,0,35h-0.37A131.16,131.16,0,0,0,593,492.06a17.5,17.5,0,0,1,14.57-27.19H635.1A17.49,17.49,0,0,1,652.57,448h38.05a17.5,17.5,0,0,1,0-35H713.9a17.5,17.5,0,0,1,0-35h14.81a132.62,132.62,0,0,0,0-35H704.28A17.5,17.5,0,0,1,686.78,325.47Zm-5,35a17.5,17.5,0,0,1-17.5,17.5H651.65a17.28,17.28,0,0,1-8.56,17.5h5a17.5,17.5,0,1,1,0,35H569.58a17.5,17.5,0,0,1,0-35h21a17.29,17.29,0,0,1-8.5-17.91A17.5,17.5,0,0,1,585.79,343H569.58a17.49,17.49,0,0,1-6.35-33.79c0-.4-0.06-0.8-0.06-1.21a17.5,17.5,0,0,1,17.5-17.5h35a17.5,17.5,0,0,1,17.5,17.5H648.1a17.38,17.38,0,0,1,17.32,19.87h3.91a17.49,17.49,0,0,1,12.26,30A17.54,17.54,0,0,1,681.81,360.47Z" transform="translate(-465.47 -227.77)"/><path class="cls-2" d="M550.09,448H527.24a17.5,17.5,0,0,0,0-35H503.78a17.5,17.5,0,0,0,0-35h37a17.5,17.5,0,0,0,0-35h-31a17.5,17.5,0,0,0,0-35h28.26a17.49,17.49,0,0,0,.72-35,17.5,17.5,0,0,1-17.5,17.46H486.63a129.9,129.9,0,0,0-15.44,35h13.94a17.5,17.5,0,0,1,0,35H471.46a17.5,17.5,0,0,1,0,35h-0.27A132,132,0,0,0,549.72,483h0.37A17.5,17.5,0,0,0,550.09,448Z" transform="translate(-465.47 -227.77)"/><path class="cls-2" d="M665.6,413a17.5,17.5,0,0,0-17.5-17.5h-5a17.4,17.4,0,0,1-8.76,2.37h-35a17.4,17.4,0,0,1-8.76-2.37h-21a17.5,17.5,0,0,0,0,35H648.1A17.5,17.5,0,0,0,665.6,413Z" transform="translate(-465.47 -227.77)"/><path class="cls-2" d="M538.78,273h14.91a17.5,17.5,0,0,0,0-35h-4a131.39,131.39,0,0,0-31,17.5h2.6A17.5,17.5,0,0,1,538.78,273Z" transform="translate(-465.47 -227.77)"/><path class="cls-2" d="M642.55,362.83h-8.22A17.49,17.49,0,0,1,651.65,378h12.66a17.38,17.38,0,0,0,17.28-20.15,17.44,17.44,0,0,1-12.26,5H642.55Z" transform="translate(-465.47 -227.77)"/><path class="cls-2" d="M647.52,273H676a17.5,17.5,0,0,0,0,35h28.26a17.5,17.5,0,0,0,0,35h24.44a130.44,130.44,0,0,0-19-52.5H695.06A17.48,17.48,0,0,1,683.32,260q-2.74-2.33-5.61-4.5h-8.43a17.49,17.49,0,0,1-17.34-15.29c-1.72-.77-3.45-1.52-5.21-2.21A17.49,17.49,0,0,0,647.52,273Z" transform="translate(-465.47 -227.77)"/><path class="cls-2" d="M563.23,309.17A17.49,17.49,0,0,0,569.58,343h16.21a17.5,17.5,0,0,0-3.72,34.59,17.49,17.49,0,0,1,17.26-14.73h8.22a17.5,17.5,0,0,1,0-35h57.87A17.38,17.38,0,0,0,648.1,308H633.17a17.5,17.5,0,0,1-17.5,17.5h-35A17.49,17.49,0,0,1,563.23,309.17Z" transform="translate(-465.47 -227.77)"/><path class="cls-2" d="M696.4,395.47A17.5,17.5,0,0,0,713.9,413H690.62a17.5,17.5,0,0,0,0,35H652.57a17.49,17.49,0,0,0-17.47,16.9h36.15a17.43,17.43,0,0,1,5.85,1A132.11,132.11,0,0,0,719,413a130.78,130.78,0,0,0,9.73-35H713.9A17.5,17.5,0,0,0,696.4,395.47Z" transform="translate(-465.47 -227.77)"/><path class="cls-3" d="M669.33,327.83H607.55a17.5,17.5,0,0,0,0,35h-8.22a17.5,17.5,0,0,0,0,35h35a17.5,17.5,0,0,0,0-35h35A17.5,17.5,0,0,0,669.33,327.83Z" transform="translate(-465.47 -227.77)"/><path class="cls-3" d="M485.13,325.47H471.19a130.92,130.92,0,0,0-3.56,17.5,132.62,132.62,0,0,0,0,35,130.92,130.92,0,0,0,3.56,17.5h0.27a17.5,17.5,0,0,0,0-35h13.67A17.5,17.5,0,0,0,485.13,325.47Z" transform="translate(-465.47 -227.77)"/><path class="cls-3" d="M669.28,255.51h8.43a131.54,131.54,0,0,0-25.77-15.29A17.49,17.49,0,0,0,669.28,255.51Z" transform="translate(-465.47 -227.77)"/><path class="cls-3" d="M521.28,255.47h-2.6a131.59,131.59,0,0,0-32.06,35h34.66A17.5,17.5,0,0,0,538.78,273s0,0,0,0A17.5,17.5,0,0,0,521.28,255.47Z" transform="translate(-465.47 -227.77)"/><path class="cls-3" d="M633.17,308a17.5,17.5,0,0,0-17.5-17.5h-35a17.5,17.5,0,0,0-17.5,17.5c0,0.41,0,.81.06,1.21a17.49,17.49,0,0,0,17.44,16.29h35A17.5,17.5,0,0,0,633.17,308Z" transform="translate(-465.47 -227.77)"/><path class="cls-3" d="M696.6,273a132.63,132.63,0,0,0-13.27-13,17.48,17.48,0,0,0,11.73,30.46h14.66A132.17,132.17,0,0,0,696.6,273Z" transform="translate(-465.47 -227.77)"/><path class="cls-3" d="M642.55,464.87h-35A17.5,17.5,0,0,0,593,492.06c1.72,0.07,3.45.11,5.19,0.11a132.33,132.33,0,0,0,22.47-1.92,130.89,130.89,0,0,0,27.45-7.89c3.82-1.57,7.54-3.31,11.17-5.22a131.77,131.77,0,0,0,17.84-11.26,17.43,17.43,0,0,0-5.85-1h-28.7Z" transform="translate(-465.47 -227.77)"/></svg>