<?xml version="1.0" standalone="no"?>
<!DOCTYPE svg PUBLIC "-//W3C//DTD SVG 20010904//EN"
 "http://www.w3.org/TR/2001/REC-SVG-20010904/DTD/svg10.dtd">
<svg version="1.0" xmlns="http://www.w3.org/2000/svg"
 width="2000.000000pt" height="2000.000000pt" viewBox="0 0 2000.000000 2000.000000"
 preserveAspectRatio="xMidYMid meet">
<metadata>
Created by potrace 1.11, written by Peter Selinger 2001-2013
</metadata>
<g transform="translate(0.000000,2000.000000) scale(0.100000,-0.100000)"
fill="#000000" stroke="none">
<path d="M9165 15555 c37 -95 65 -185 64 -210 0 -16 -6 -47 -14 -69 -15 -42
-75 -136 -88 -136 -4 0 -28 42 -53 94 -51 104 -110 185 -136 186 -15 0 -14 -5
3 -50 42 -110 19 -186 -97 -325 -84 -102 -91 -106 -120 -69 -52 64 -49 158 7
287 31 71 122 240 142 265 19 24 -2 24 -25 0 -86 -90 -209 -240 -244 -299 -37
-61 -94 -212 -94 -246 0 -30 -18 -8 -54 65 -21 42 -57 106 -81 142 -44 65
-121 148 -129 139 -3 -2 10 -33 27 -69 26 -53 33 -78 35 -146 5 -96 -13 -194
-34 -194 -22 0 -69 94 -94 188 -17 65 -25 82 -31 67 -12 -32 -10 -107 6 -157
8 -27 10 -48 5 -48 -6 0 -37 33 -70 73 -66 81 -122 126 -197 158 l-48 20 51
-53 c66 -68 119 -138 151 -201 25 -51 63 -159 57 -166 -1 -1 -36 25 -76 59
-87 75 -172 116 -333 163 -266 78 -362 88 -210 23 176 -75 216 -100 312 -193
72 -70 94 -98 103 -132 10 -37 5 -131 -6 -131 -3 0 -33 9 -67 21 -45 15 -88
21 -162 22 -96 0 -219 -19 -210 -33 2 -4 30 -12 62 -20 87 -19 145 -53 202
-117 58 -65 95 -160 89 -229 l-3 -38 -90 2 c-125 4 -335 -39 -335 -69 0 -4 16
-11 35 -14 19 -3 52 -8 72 -11 62 -10 163 -71 163 -98 0 -11 -11 -11 -52 -4
-76 14 -175 2 -270 -32 -78 -29 -165 -76 -155 -86 2 -2 39 3 82 12 158 33 286
6 357 -74 54 -63 55 -73 10 -130 -22 -28 -50 -72 -62 -97 -22 -46 -62 -242
-52 -259 2 -4 14 9 26 30 11 20 26 39 31 41 6 2 10 -41 10 -115 0 -133 24
-308 36 -257 4 17 7 64 8 106 1 73 33 225 52 243 5 6 7 -15 4 -55 -18 -231
-24 -399 -18 -499 8 -146 18 -179 27 -85 4 39 10 88 13 110 l6 40 20 -47 c11
-27 23 -48 28 -48 5 0 9 36 9 80 0 96 20 233 58 390 24 98 31 115 47 115 13 0
21 -7 22 -20 16 -165 16 -162 26 -125 65 242 87 299 179 445 67 108 126 152
166 126 10 -6 9 -19 -9 -62 -28 -72 -39 -109 -31 -109 4 1 27 28 52 61 60 82
137 151 218 196 77 43 240 111 330 138 55 16 65 17 73 4 15 -24 11 -32 -57
-96 -36 -35 -61 -63 -56 -63 5 0 53 20 106 45 114 54 243 98 344 120 102 21
286 52 357 60 l60 7 -46 -48 c-26 -27 -52 -60 -59 -74 -13 -24 -13 -24 20 3
65 56 125 77 253 93 178 23 377 -1 377 -45 0 -14 -33 -38 -99 -71 -34 -17 -61
-33 -59 -36 3 -2 60 10 129 28 111 28 138 31 262 30 176 -2 376 -33 384 -59 7
-19 -47 -47 -137 -71 l-85 -22 100 5 c125 7 212 -5 440 -60 99 -24 224 -51
279 -60 66 -10 123 -27 174 -50 89 -42 87 -59 -6 -53 -34 1 -58 0 -54 -3 4 -4
43 -20 87 -37 67 -26 295 -125 439 -190 38 -18 38 -19 67 -132 32 -131 71
-237 107 -295 32 -50 37 -35 17 50 -17 74 -20 151 -6 160 18 10 19 5 46 -184
24 -160 18 -251 -20 -328 l-30 -60 25 10 c38 16 57 35 77 76 l18 36 1 -165 c0
-91 5 -178 11 -195 l10 -30 24 48 c37 75 53 59 24 -24 -42 -118 -68 -248 -74
-372 -3 -70 -4 -127 -1 -127 3 0 14 23 25 51 24 62 52 91 42 44 -3 -16 -13
-61 -21 -100 -8 -38 -17 -115 -21 -170 l-5 -100 22 45 23 45 3 -50 4 -50 23
60 c21 56 50 90 38 46 -10 -39 8 -21 32 32 35 76 55 162 55 238 0 84 10 159
21 159 5 0 9 -11 9 -24 0 -27 15 -42 25 -26 12 20 55 247 55 293 0 27 -14 112
-31 189 -25 116 -29 151 -23 206 9 83 22 59 23 -41 1 -50 4 -68 14 -65 20 7
35 86 36 183 1 123 -28 237 -118 463 -25 62 -10 70 32 15 24 -33 27 -34 27
-13 0 29 -65 220 -98 285 -13 28 -43 81 -65 118 -22 37 -37 70 -34 74 6 6 87
-58 121 -96 27 -30 36 -26 23 9 -13 34 -62 88 -155 170 -65 58 -76 84 -41 95
33 11 81 -3 144 -41 32 -19 65 -33 72 -32 20 4 -36 68 -120 136 -93 75 -116
89 -190 117 l-62 23 50 24 c69 32 179 30 290 -6 43 -14 81 -24 83 -22 9 10
-27 50 -68 75 -105 64 -202 78 -323 46 -32 -8 -63 -15 -69 -15 -6 0 18 30 54
68 69 71 111 143 121 205 3 20 4 37 2 37 -2 0 -24 -29 -49 -64 -25 -35 -65
-81 -88 -100 -46 -40 -145 -92 -155 -83 -3 4 7 35 23 69 52 115 44 217 -27
360 -36 72 -51 82 -33 21 22 -74 3 -128 -71 -195 -30 -27 -65 -37 -65 -18 0
15 -80 57 -142 75 -32 9 -58 21 -58 26 0 18 49 20 106 6 33 -9 61 -13 64 -10
16 16 -227 150 -320 177 -30 9 -94 17 -143 20 -48 2 -88 7 -89 12 -1 5 20 23
47 39 44 28 56 30 139 30 50 0 108 -4 128 -8 56 -12 40 16 -25 42 -107 43
-176 46 -360 14 -48 -8 -90 -13 -93 -10 -10 10 9 56 38 91 45 55 99 78 198 85
l85 6 -38 24 c-32 20 -52 24 -115 24 -92 0 -144 -19 -281 -100 l-94 -56 -24
29 c-38 47 -35 137 8 238 16 37 29 73 29 78 0 23 -87 -62 -128 -125 -35 -55
-54 -73 -89 -89 -25 -11 -48 -17 -51 -13 -4 3 -7 88 -8 188 -1 102 -6 193 -12
207 -9 21 -10 17 -5 -23 5 -39 1 -57 -25 -110 -17 -34 -56 -90 -86 -123 -61
-67 -118 -98 -203 -110 -46 -6 -52 -4 -63 16 -15 28 0 74 37 112 15 15 23 28
19 28 -19 0 -85 -42 -118 -75 -39 -40 -58 -39 -58 2 0 68 52 120 148 148 28 9
63 22 79 30 27 15 27 15 -34 15 -37 0 -83 -8 -110 -18 -68 -26 -178 -105 -232
-165 -45 -52 -63 -68 -68 -64 -1 2 9 38 22 80 29 91 31 153 5 222 l-18 50 -1
-50 c-2 -64 -30 -126 -72 -158 -63 -47 -157 -87 -219 -94 -55 -5 -60 -4 -60
14 0 33 32 116 58 152 28 37 103 75 172 86 l44 7 -27 24 c-23 20 -39 24 -93
24 -136 0 -283 -103 -359 -252 -22 -43 -43 -78 -46 -78 -4 0 -16 28 -29 63
-35 99 -87 190 -132 233 -27 26 -38 32 -33 19z"/>
<path d="M12000 8928 c0 -8 5 -64 11 -124 16 -165 44 -286 88 -379 37 -79 49
-93 294 -337 299 -299 279 -257 253 -506 -29 -271 -74 -372 -294 -658 -140
-182 -479 -480 -695 -613 -371 -227 -802 -341 -1242 -328 -241 7 -383 40 -822
192 -309 108 -315 110 -390 156 -141 85 -208 149 -278 265 -46 76 -65 168 -65
313 0 109 3 129 34 224 41 125 68 180 141 287 30 44 55 86 55 93 0 7 -11 28
-24 47 -12 19 -80 128 -151 243 l-127 207 -40 -22 c-22 -13 -74 -52 -115 -88
-169 -149 -211 -165 -341 -137 -176 37 -473 33 -598 -9 -104 -35 -224 -123
-300 -219 -53 -69 -126 -211 -145 -284 l-12 -49 -116 -32 c-231 -62 -306 -106
-541 -320 -85 -77 -219 -197 -296 -266 -119 -105 -150 -138 -193 -209 -74
-120 -114 -213 -155 -355 -63 -220 -164 -739 -203 -1045 -26 -201 -26 -731 0
-930 39 -297 138 -820 160 -842 6 -6 82 -52 167 -101 1051 -603 2181 -948
3400 -1038 282 -20 979 -15 1240 10 1005 96 1899 347 2785 781 1243 610 2304
1536 3082 2691 l116 173 -70 83 c-109 128 -377 385 -485 466 -321 238 -562
356 -1271 617 -110 41 -201 75 -203 77 -2 3 -22 69 -44 147 -54 192 -101 310
-156 392 -45 68 -136 159 -206 206 -20 13 -66 65 -102 114 -77 104 -164 174
-276 219 -41 17 -124 55 -185 85 -83 42 -128 57 -183 65 -40 6 -91 19 -113 30
-22 12 -102 80 -178 153 -151 145 -214 186 -327 213 -50 12 -88 14 -139 9 -38
-4 -79 -8 -90 -8 -11 -1 -112 64 -225 143 -113 79 -230 156 -260 172 -65 33
-170 50 -170 26z"/>
</g>
</svg>
