<svg id="Layer_1" data-name="Layer 1" xmlns="http://www.w3.org/2000/svg" viewBox="0 0 24.11 24"><defs><style>.cls-1{fill:none;}.cls-2{fill:#3f51b5;}.cls-3{fill:#5c6bc0;}.cls-4{fill:#eee;}</style></defs><title>logo</title><path class="cls-1" d="M0,0H24V24H0V0Z" transform="translate(0 0)"/><circle class="cls-2" cx="12.11" cy="12" r="12"/><circle class="cls-3" cx="12" cy="12.15" r="9"/><path class="cls-4" d="M18.34,8.59A1.25,1.25,0,0,0,17.1,7.35h-10A1.25,1.25,0,0,0,5.87,8.59v7.48a1.25,1.25,0,0,0,1.25,1.25h8.73l2.49,2.49V8.59ZM12,8.38a1.81,1.81,0,1,1-1.81,1.81A1.81,1.81,0,0,1,12,8.38Zm3.63,7.25H8.38V14.72c0-1.21,2.42-1.81,3.63-1.81s3.63,0.61,3.63,1.81v0.91Z" transform="translate(0 0)"/><circle class="cls-2" cx="12" cy="10.19" r="1.81"/><path class="cls-2" d="M12,12.91c-1.21,0-3.62.61-3.62,1.81v0.91h7.25V14.72C15.63,13.51,13.21,12.91,12,12.91Z" transform="translate(0 0)"/></svg>