<?xml version="1.0" standalone="no"?>
<!DOCTYPE svg PUBLIC "-//W3C//DTD SVG 20010904//EN"
 "http://www.w3.org/TR/2001/REC-SVG-20010904/DTD/svg10.dtd">
<svg version="1.0" xmlns="http://www.w3.org/2000/svg"
 width="16.000000pt" height="16.000000pt" viewBox="0 0 16.000000 16.000000"
 preserveAspectRatio="xMidYMid meet">
<metadata>
Created by potrace 1.11, written by Peter Selinger 2001-2013
</metadata>
<g transform="translate(0.000000,16.000000) scale(0.005797,-0.005797)"
fill="#000000" stroke="none">
<path d="M1249 2750 c-300 -29 -603 -170 -828 -385 l-94 -91 13 -35 c16 -46 7
-99 -25 -133 l-24 -26 92 0 c74 0 98 -4 124 -20 58 -35 79 -110 48 -171 -12
-21 -13 -34 -5 -48 20 -39 12 -81 -24 -117 -32 -32 -37 -34 -106 -34 l-71 0
20 -26 c23 -29 27 -80 10 -118 -20 -43 -64 -56 -192 -56 l-115 0 29 -29 c23
-23 29 -38 29 -71 0 -53 -42 -100 -89 -100 -37 0 -37 -5 -17 -132 19 -118 61
-255 107 -355 35 -77 40 -83 68 -83 24 0 33 7 48 38 10 20 35 48 56 61 l37 25
-26 27 c-37 39 -44 106 -16 151 38 61 49 63 316 63 268 0 276 -2 316 -68 32
-52 25 -102 -23 -154 l-20 -23 144 0 c164 0 199 -11 231 -71 34 -63 15 -133
-45 -169 -29 -18 -51 -20 -242 -20 -196 0 -208 -1 -186 -16 25 -18 51 -71 51
-105 0 -36 -32 -90 -64 -110 -18 -11 -50 -19 -73 -19 -31 0 -43 -4 -43 -14 0
-8 -12 -29 -26 -46 -26 -30 -26 -31 -8 -45 43 -32 215 -115 297 -144 160 -56
272 -74 457 -74 135 0 183 4 264 22 199 46 346 106 491 203 l80 53 -65 5 c-70
6 -104 20 -120 50 -15 28 -12 92 5 117 14 20 13 22 -24 28 -46 8 -87 44 -96
84 -12 57 35 121 91 121 l32 0 -21 39 c-18 32 -20 45 -12 76 17 65 48 79 178
83 135 5 180 -7 207 -51 25 -41 25 -73 0 -115 l-20 -32 99 0 99 0 26 45 c39
66 104 234 126 327 26 110 44 311 35 401 l-6 74 -71 5 c-81 6 -113 25 -142 82
-22 46 -16 93 20 136 l26 30 -85 0 c-71 0 -89 4 -118 23 -85 57 -66 189 34
226 16 6 60 11 98 11 l71 0 -23 38 c-12 20 -43 65 -68 100 l-45 62 -196 0
c-226 0 -250 7 -285 79 l-20 41 -99 0 c-120 0 -174 20 -200 74 -28 60 -13 139
31 165 13 8 -3 10 -62 11 -110 0 -141 20 -175 113 -9 25 -13 27 -62 26 -29 -1
-87 -5 -129 -9z m520 -648 c19 -10 43 -34 53 -53 30 -56 22 -105 -25 -156
l-20 -23 83 0 c73 0 87 -3 116 -25 21 -16 37 -40 44 -65 l11 -40 97 0 c80 0
103 -4 130 -20 64 -39 79 -135 30 -188 -43 -46 -74 -52 -272 -52 -183 0 -184
0 -190 -23 -3 -12 -19 -36 -36 -52 l-31 -30 -338 -3 -337 -3 -34 23 c-62 42
-78 114 -40 176 30 49 71 62 202 63 62 0 107 3 100 6 -7 3 -22 22 -32 44 l-20
39 -129 0 c-124 0 -131 1 -160 26 -65 54 -61 155 8 201 28 19 47 23 112 23 75
0 79 1 79 23 0 37 34 89 71 109 30 16 60 18 264 18 204 0 234 -2 264 -18z
m-54 -1606 c13 -13 27 -36 31 -50 9 -36 -3 -73 -31 -102 -24 -24 -26 -24 -220
-24 -194 0 -196 0 -220 24 -45 45 -45 107 0 152 24 24 26 24 220 24 194 0 196
0 220 -24z"/>
</g>
</svg>
