<svg id="Layer_9" data-name="Layer 9" xmlns="http://www.w3.org/2000/svg" viewBox="0 0 500 500"><defs><style>.cls-1,.cls-4{fill:none;}.cls-2{fill:#f5f5f5;}.cls-3{fill:#eee;}.cls-4{stroke:#e0e0e0;stroke-miterlimit:10;stroke-width:10px;}.cls-5{fill:#e0e0e0;}</style></defs><title>logo-white</title><polygon class="cls-1" points="98 385 151.25 336 98 336 98 385"/><polygon class="cls-1" points="148.75 166 98 115 98 166 148.75 166"/><polygon class="cls-1" points="165 257 98 257 98 322 163.75 322 165 318.75 165 257"/><polygon class="cls-1" points="177 243 227.5 243 177 193.75 177 243"/><polygon class="cls-1" points="98 178 98 243 165 243 165 181.25 161.25 178 98 178"/><polygon class="cls-1" points="177 257 177 306.25 230 257 177 257"/><path class="cls-2" d="M98,336h53.25l12.5-14H98V257h67v61.75l12-12.5V257h53l5-5.75L227.5,243H177V193.75l-12-12.5V243H98V178h63.25l-12.5-12H98V115L86,102.5V166H15v12H86v65H15v14H86v65H15v14H86v61.5L98,385V336Zm74.5-86.87h0Z"/><path class="cls-3" d="M235,92.5a155.76,155.76,0,0,0-110.49,45.76L235,248.75,124.51,359.24A156.25,156.25,0,1,0,235,92.5Z"/><g id="Layer_8" data-name="Layer 8"><line class="cls-4" x1="58.22" y1="73.22" x2="238.82" y2="253.82"/><line class="cls-4" x1="58.22" y1="426.78" x2="236.25" y2="248.75"/><path class="cls-5" d="M411.78,73.22c-97.63-97.63-255.92-97.63-353.55,0L71.48,86.48c90.31-90.31,236.73-90.31,327,0s90.31,236.73,0,327-236.73,90.31-327,0L58.22,426.78c97.63,97.63,255.92,97.63,353.55,0S509.41,170.85,411.78,73.22Z"/></g></svg>