<svg id="Layer_5" data-name="Layer 5" xmlns="http://www.w3.org/2000/svg" viewBox="0 0 375 400"><defs><style>.cls-1{fill:none;stroke:#00796b;stroke-miterlimit:10;stroke-width:10px;}.cls-2{fill:#00796b;}.cls-3{fill:#009688;}.cls-4{fill:#26a69a;}</style></defs><title>logo</title><line class="cls-1" x1="187.5" y1="74.99" x2="187.5" y2="324.99"/><path class="cls-2" d="M250,203.81v-10H130V141H249.35V131H130V75.49H120V131H67.5V75h-10v56H0v10H57.5v52.85H0v10H57.5v53.34H0v10H57.5V325h10V267.15H120V325h10V267.15H249.35v-10H130V203.81H250ZM67.5,141H120v52.85H67.5V141Zm0,116.19V203.81H120v53.34H67.5Z" transform="translate(0 -0.01)"/><path class="cls-2" d="M316.42,58.58c-78.1-78.1-204.74-78.1-282.84,0L44.19,69.19a185,185,0,1,1,0,261.63L33.58,341.43c78.1,78.1,204.74,78.1,282.84,0S394.53,136.68,316.42,58.58Z" transform="translate(0 -0.01)"/><path class="cls-3" d="M44.19,330.81a185,185,0,1,0,0-261.63L175,200Z" transform="translate(0 -0.01)"/><path class="cls-4" d="M175,75a124.61,124.61,0,0,0-88.39,36.61L175,200,86.61,288.39A125,125,0,1,0,175,75Z" transform="translate(0 -0.01)"/></svg>