<svg id="Layer_9" data-name="Layer 9" xmlns="http://www.w3.org/2000/svg" viewBox="0 0 470 499.99"><defs><style>.cls-1{fill:none;}.cls-2{fill:#f5f5f5;}.cls-3{fill:#eee;}</style></defs><title>logo-white</title><polygon class="cls-1" points="83 384.99 136.25 335.99 83 335.99 83 384.99"/><polygon class="cls-1" points="133.75 165.99 83 114.99 83 165.99 133.75 165.99"/><polygon class="cls-1" points="150 256.99 83 256.99 83 321.99 148.75 321.99 150 318.74 150 256.99"/><polygon class="cls-1" points="162 242.99 212.5 242.99 162 193.74 162 242.99"/><polygon class="cls-1" points="83 177.99 83 242.99 150 242.99 150 181.24 146.25 177.99 83 177.99"/><polygon class="cls-1" points="162 256.99 162 306.24 215 256.99 162 256.99"/><path class="cls-2" d="M98,336h53.25l12.5-14H98V257h67v61.75l12-12.5V257h53l5-5.75L227.5,243H177V193.75l-12-12.5V243H98V178h63.25l-12.5-12H98V115L86,102.5V166H15v12H86v65H15v14H86v65H15v14H86v61.5L98,385V336Zm74.5-86.87h0Z" transform="translate(-15 -0.01)"/><path class="cls-3" d="M235,92.5a155.76,155.76,0,0,0-110.49,45.76L235,248.75,124.51,359.24A156.25,156.25,0,1,0,235,92.5Z" transform="translate(-15 -0.01)"/><path class="cls-3" d="M411.78,73.22C316.52-22,163.51-24.33,65.45,66.31l-0.16-.16L51.15,80.29,219.66,248.8,51.1,419.76l14.24,14,0.1-.1c98.06,90.64,251.07,88.34,346.33-6.92C509.4,329.15,509.41,170.85,411.78,73.22ZM387.37,402.41c-81.87,81.83-213.19,84.12-297.76,6.77L247.84,248.7,89.77,90.63c84.61-77.2,215.82-74.9,297.6,6.92C471.53,181.75,471.57,318.25,387.37,402.41Z" transform="translate(-15 -0.01)"/></svg>