<svg id="Layer_5" data-name="Layer 5" xmlns="http://www.w3.org/2000/svg" viewBox="0 0 375 400"><defs><style>.cls-1{fill:none;stroke:#00796b;stroke-miterlimit:10;stroke-width:10px;}.cls-2{fill:#00796b;}.cls-3{fill:#009688;}.cls-4{fill:#26a69a;}</style></defs><title>logo</title><line class="cls-1" x1="250" y1="198.81" x2="125" y2="198.81"/><line class="cls-1" x1="125" y1="200" x2="125" y2="75.49"/><line class="cls-1" x1="125" y1="198.81" y2="198.81"/><line class="cls-1" x1="125" y1="325" x2="125" y2="199.3"/><line class="cls-1" x1="249.35" y1="135.96" y2="135.96"/><line class="cls-1" x1="249.35" y1="262.15" y2="262.15"/><line class="cls-1" x1="187.5" y1="75" x2="187.5" y2="325"/><line class="cls-1" x1="62.5" y1="75" x2="62.5" y2="325"/><path class="cls-2" d="M391.42,108.58c-78.1-78.1-204.74-78.1-282.84,0l10.61,10.61c72.25-72.25,189.38-72.25,261.63,0s72.25,189.38,0,261.63-189.38,72.25-261.63,0l-10.61,10.61c78.1,78.1,204.74,78.1,282.84,0S469.53,186.68,391.42,108.58Z" transform="translate(-75 -50)"/><path class="cls-3" d="M119.19,380.81c72.25,72.25,189.38,72.25,261.63,0s72.25-189.38,0-261.63-189.38-72.25-261.63,0L250,250Z" transform="translate(-75 -50)"/><path class="cls-4" d="M250,125a124.61,124.61,0,0,0-88.39,36.61L250,250l-88.39,88.39A125,125,0,1,0,250,125Z" transform="translate(-75 -50)"/></svg>