<svg id="Bottom_ball" data-name="Bottom ball" xmlns="http://www.w3.org/2000/svg" viewBox="0 0 500 500"><defs><style>.cls-1{fill:#eee;}.cls-2{fill:#c62828;}.cls-3{fill:#ffc107;}.cls-4{fill:#ffa000;}.cls-5{fill:#212121;}.cls-6{fill:#b71c1c;}</style></defs><title>logo-color</title><circle class="cls-1" cx="250" cy="250" r="250"/><path class="cls-2" d="M250,0C111.93,0,0,111.93,0,250H31.25c120.91-145.83,316.59-145.83,437.5,0H500C500,111.93,388.07,0,250,0Z"/><path class="cls-3" d="M30,250c121.6,133.33,318.4,133.33,440,0C348.4,116.67,151.6,116.67,30,250Z"/><circle class="cls-4" cx="250" cy="250.07" r="87.43"/><g id="Pupil"><path class="cls-5" d="M250,175c-28.57,41.46-28.57,108.54,0,150C278.57,283.54,278.57,216.46,250,175Z"/></g><path class="cls-6" d="M0,250c138.18,166.67,361.82,166.67,500,0C361.82,83.33,138.18,83.33,0,250Zm441.41,0c-105.8,116.67-277,116.67-382.81,0C164.39,133.33,335.61,133.33,441.41,250Z"/></svg>