<svg id="Eye" xmlns="http://www.w3.org/2000/svg" viewBox="0 0 500 500"><defs><style>.cls-1{fill:none;}.cls-2{fill:#eee;}</style></defs><title>logo-white</title><g id="Pupil"><path class="cls-1" d="M500,250C361.82,83.33,138.18,83.33,0,250,138.18,416.67,361.82,416.67,500,250Zm-58.59,0c-105.8,116.67-277,116.67-382.81,0C164.39,133.33,335.61,133.33,441.41,250Z"/><path class="cls-2" d="M441.41,250c-105.8-116.67-277-116.67-382.81,0C164.39,366.67,335.61,366.67,441.41,250ZM250,175c28.57,41.46,28.57,108.54,0,150C221.43,283.54,221.43,216.46,250,175Z"/><path class="cls-2" d="M0,250C0,388.07,111.93,500,250,500S500,388.07,500,250C361.82,416.67,138.18,416.67,0,250Z"/><path class="cls-2" d="M500,250C500,111.93,388.07,0,250,0S0,111.93,0,250C138.18,83.33,361.82,83.33,500,250Z"/></g></svg>