<?xml version="1.0" standalone="no"?>
<!DOCTYPE svg PUBLIC "-//W3C//DTD SVG 20010904//EN"
 "http://www.w3.org/TR/2001/REC-SVG-20010904/DTD/svg10.dtd">
<svg version="1.0" xmlns="http://www.w3.org/2000/svg"
 width="16.000000pt" height="16.000000pt" viewBox="0 0 16.000000 16.000000"
 preserveAspectRatio="xMidYMid meet">
<metadata>
Created by potrace 1.11, written by Peter Selinger 2001-2013
</metadata>
<g transform="translate(0.000000,16.000000) scale(0.002133,-0.002133)"
fill="#000000" stroke="none">
<path d="M3510 7490 c-1515 -100 -2813 -1089 -3303 -2517 -283 -824 -269
-1736 40 -2543 475 -1242 1554 -2138 2852 -2370 402 -71 900 -71 1302 0 1156
206 2150 945 2679 1990 208 412 330 816 386 1280 22 179 25 627 5 800 -88 781
-372 1448 -870 2045 -178 214 -469 478 -713 648 -444 310 -972 528 -1488 616
-281 48 -633 68 -890 51z m530 -2220 c344 -41 574 -138 740 -311 95 -99 174
-255 205 -404 25 -120 30 -310 11 -433 -51 -336 -221 -570 -522 -718 -244
-121 -499 -164 -971 -164 l-203 0 0 -645 0 -645 -215 0 -215 0 0 1671 0 1672
538 -6 c304 -3 578 -10 632 -17z"/>
<path d="M3300 4265 l0 -655 219 0 c552 0 816 82 950 294 51 81 77 159 91 272
38 298 -73 535 -302 644 -164 78 -316 100 -704 100 l-254 0 0 -655z"/>
</g>
</svg>
