<svg version="1.1" viewBox="0.0 0.0 478.002624671916 481.1469816272966" fill="none" stroke="none" stroke-linecap="square" stroke-miterlimit="10" xmlns:xlink="http://www.w3.org/1999/xlink" xmlns="http://www.w3.org/2000/svg"><clipPath id="p.0"><path d="m0 0l478.00262 0l0 481.14697l-478.00262 0l0 -481.14697z" clip-rule="nonzero"/></clipPath><g clip-path="url(#p.0)"><path fill="#000000" fill-opacity="0.0" d="m0 0l478.00262 0l0 481.14697l-478.00262 0z" fill-rule="evenodd"/><path fill="#b3e5fc" d="m25.559055 209.08661l0 0c0 -96.81943 82.16809 -175.30708 183.52756 -175.30708l0 0c48.67453 0 95.3555 18.469803 129.77359 51.34626c34.41809 32.876457 53.753967 77.4665 53.753967 123.96082l0 0c0 96.81943 -82.16809 175.3071 -183.52756 175.3071l0 0c-101.35947 0 -183.52756 -78.48767 -183.52756 -175.3071z" fill-rule="evenodd"/><path fill="#795548" d="m179.8677 283.1752l49.417267 0l0 120.51349l-49.417267 0z" fill-rule="evenodd"/><path fill="#2e7d32" d="m138.49728 213.90517l0 0c0 -33.278885 26.977875 -60.25676 60.25676 -60.25676l0 0c15.981094 0 31.307632 6.348465 42.60797 17.648804c11.3003235 11.3003235 17.648788 26.626862 17.648788 42.607956l0 0c0 33.278885 -26.977875 60.25676 -60.25676 60.25676l0 0c-33.278885 0 -60.25676 -26.977875 -60.25676 -60.25676z" fill-rule="evenodd"/><path fill="#2e7d32" d="m104.29569 196.80437l0 0c0 -33.278885 26.977867 -60.25676 60.256752 -60.25676l0 0c15.981094 0 31.307632 6.348465 42.607956 17.648804c11.300339 11.3003235 17.648804 26.626862 17.648804 42.607956l0 0c0 33.278885 -26.977875 60.25676 -60.25676 60.25676l0 0c-33.278885 0 -60.256752 -26.977875 -60.256752 -60.25676z" fill-rule="evenodd"/><path fill="#795548" d="m182.11626 309.88095l-29.741257 -71.01207l16.865158 -9.728607l46.606415 61.283493z" fill-rule="evenodd"/><path fill="#795548" d="m192.51744 279.08252l60.34091 -85.108444l16.865158 9.745438l-43.475754 94.85388z" fill-rule="evenodd"/><path fill="#43a047" d="m220.50034 228.43916l0 0c0 -30.229874 24.50615 -54.736023 54.736023 -54.736023l0 0c14.516907 0 28.43924 5.766815 38.704224 16.0318c10.264984 10.264999 16.0318 24.187332 16.0318 38.704224l0 0c0 30.229874 -24.506134 54.73604 -54.736023 54.73604l0 0c-30.229874 0 -54.736023 -24.506165 -54.736023 -54.73604z" fill-rule="evenodd"/><path fill="#43a047" d="m88.20197 223.97882l0 0c0 -27.766495 22.509193 -50.27568 50.27569 -50.27568l0 0c13.333939 0 26.12175 5.296875 35.550262 14.725403c9.428528 9.428513 14.725403 22.21634 14.725403 35.550278l0 0c0 27.76648 -22.509186 50.275665 -50.275665 50.275665l0 0c-27.766495 0 -50.27569 -22.509186 -50.27569 -50.275665z" fill-rule="evenodd"/><path fill="#4caf50" d="m160.07527 182.91557l0 0c0 -39.906784 32.358368 -72.257614 72.274445 -72.257614l0 0c19.168365 0 37.55165 7.612831 51.10576 21.163757c13.554077 13.550934 21.16867 31.929947 21.16867 51.093857l0 0c0 39.90677 -32.358368 72.257614 -72.27443 72.257614l0 0c-39.916077 0 -72.274445 -32.350845 -72.274445 -72.257614z" fill-rule="evenodd"/><path fill="#616161" d="m464.85837 467.86115l0 0l0 0c-8.035858 8.035858 -18.934814 12.550354 -30.299225 12.550354c-11.36438 0 -22.263336 -4.514496 -30.299194 -12.550354l-109.38583 -109.38583c-2.746582E-4 -2.746582E-4 -2.746582E-4 -7.324219E-4 0 -0.0010070801l60.59842 -60.597412l0 0c2.746582E-4 -2.746582E-4 7.324219E-4 -2.746582E-4 0.0010070801 0l109.38483 109.38583l0 0c16.733795 16.733795 16.733795 43.864624 0 60.59842z" fill-rule="evenodd"/><path fill="#9e9e9e" d="m0 209.08661l0 0c0 -115.47534 93.61127 -209.08661 209.08661 -209.08661l0 0c55.453217 0 108.63522 22.028706 147.84656 61.24005c39.211365 39.21135 61.24005 92.39334 61.24005 147.84656l0 0c0 115.47534 -93.61127 209.08661 -209.08661 209.08661l0 0c-115.47534 0 -209.08661 -93.61127 -209.08661 -209.08661zm49.490803 0l0 0c0 88.142334 71.453476 159.59583 159.59581 159.59583c88.142334 0 159.59583 -71.45349 159.59583 -159.59583l0 0c0 -88.14233 -71.45349 -159.59581 -159.59583 -159.59581l0 0c-88.14233 0 -159.59581 71.453476 -159.59581 159.59581z" fill-rule="evenodd"/></g></svg>