<?xml version="1.0" encoding="UTF-8"?>
<svg fill="none" stroke-linecap="square" stroke-miterlimit="10" version="1.1" viewBox="0.0 0.0 623.2440944881889 622.3727034120735" xmlns="http://www.w3.org/2000/svg">
<clipPath id="a">
<path d="m0 0h623.24v622.37h-623.24v-622.37z"/>
</clipPath>
<g clip-path="url(#a)" fill-rule="evenodd">
<path d="m0 0h623.24v622.37h-623.24z" fill="#000" fill-opacity="0"/>
<path d="m0.44094 0.0052493h622.36v622.36h-622.36z" fill="#f3f3f3"/>
<path d="m149.48 622.33v-196.06h103.75v196.06z" fill="#d9d9d9"/>
<path d="m323.45 622.37v-407.06h118.24v407.06z" fill="#d9d9d9"/>
<path d="m233.89 303.96c0-82.112 66.565-148.68 148.68-148.68 39.432 0 77.248 15.664 105.13 43.547 27.882 27.882 43.547 65.699 43.547 105.13 0 82.112-66.565 148.68-148.68 148.68-82.112 0-148.68-66.565-148.68-148.68z" fill="#b7b7b7"/>
<path d="m91.996 357.04c0-60.395 48.96-109.35 109.35-109.35 29.003 0 56.817 11.521 77.325 32.029 20.508 20.508 32.029 48.323 32.029 77.325 0 60.395-48.96 109.35-109.35 109.35-60.395 0-109.35-48.96-109.35-109.35z" fill="#ccc"/>
</g>
</svg>
